<svg width="153" height="147" viewBox="0 0 153 147" fill="none" xmlns="http://www.w3.org/2000/svg">
<g clip-path="url(#clip0_639_989)">
<path d="M172 118.835C172 134.389 159.165 147.001 143.334 147.001C127.502 147.001 114.668 134.389 114.668 118.835C114.668 103.278 127.502 90.6685 143.334 90.6685C159.165 90.6685 172 103.278 172 118.835Z" fill="#F6F7F9"/>
<path d="M136.168 51.9373C136.168 65.5498 124.938 76.5836 111.084 76.5836C97.2296 76.5836 86 65.5498 86 51.9373C86 38.3264 97.2296 27.291 111.084 27.291C124.938 27.291 136.168 38.3264 136.168 51.9373Z" fill="#F6F7F9"/>
<path d="M86.0003 104.749C86.0003 128.084 66.7479 147 42.9993 147C19.2524 147 0 128.084 0 104.749C0 81.415 19.2524 62.5 42.9993 62.5C66.7479 62.5 86.0003 81.415 86.0003 104.749Z" fill="#F6F7F9"/>
<path d="M71.6689 13.2094C71.6689 32.6547 55.6249 48.4188 35.8344 48.4188C16.044 48.4188 0 32.6547 0 13.2094C0 -6.23587 16.044 -22 35.8344 -22C55.6249 -22 71.6689 -6.23587 71.6689 13.2094Z" fill="#F6F7F9"/>
<path d="M172.001 -0.875322C172.001 10.7918 162.374 20.2494 150.5 20.2494C138.625 20.2494 129 10.7918 129 -0.875322C129 -12.5425 138.625 -22 150.5 -22C162.374 -22 172.001 -12.5425 172.001 -0.875322Z" fill="#F6F7F9"/>
<path d="M164.832 69.54C164.832 73.429 161.624 76.5815 157.666 76.5815C153.707 76.5815 150.499 73.429 150.499 69.54C150.499 65.6525 153.707 62.5 157.666 62.5C161.624 62.5 164.832 65.6525 164.832 69.54Z" fill="#F6F7F9"/>
<path d="M111.084 2.646C111.084 8.48039 106.271 13.2091 100.333 13.2091C94.3967 13.2091 89.584 8.48039 89.584 2.646C89.584 -3.18677 94.3967 -7.91553 100.333 -7.91553C106.271 -7.91553 111.084 -3.18677 111.084 2.646Z" fill="#F6F7F9"/>
</g>
<defs>
<clipPath id="clip0_639_989">
<rect width="172" height="169" fill="white" transform="translate(0 -22)"/>
</clipPath>
</defs>
</svg>
