<svg width="144" height="160" viewBox="0 0 144 160" fill="none" xmlns="http://www.w3.org/2000/svg">
<path d="M35.9992 33.9912H18.001C18.001 103.581 74.4093 160 143.999 160V141.999C84.3482 141.999 35.9992 93.6422 35.9992 33.9912Z" fill="#F6F7F9"/>
<path d="M143.999 -37.9991V-56C94.2896 -56 54 -15.7104 54 33.9912C54 83.7007 94.2896 124.001 143.999 124.001V106C104.231 106 72.0009 73.7619 72.0009 33.9938C72.0009 -5.76102 104.231 -37.9991 143.999 -37.9991Z" fill="#F6F7F9"/>
<path d="M143.999 -20.001C114.169 -20.001 89.999 4.16929 89.999 33.9911C89.999 63.8208 114.169 87.999 143.999 87.999V33.999L197.999 33.9911C197.999 4.16929 173.831 -20.001 143.999 -20.001Z" fill="#F6F7F9"/>
</svg>
