<svg width="35" height="35" viewBox="0 0 35 35" fill="none" xmlns="http://www.w3.org/2000/svg">
<path opacity="0.3" fill-rule="evenodd" clip-rule="evenodd" d="M13.1253 16.0417C9.90366 16.0417 7.29199 13.43 7.29199 10.2083C7.29199 6.98667 9.90366 4.375 13.1253 4.375C16.347 4.375 18.9587 6.98667 18.9587 10.2083C18.9587 13.43 16.347 16.0417 13.1253 16.0417ZM27.2503 16.0417C26.698 16.0417 26.2503 15.594 26.2503 15.0417V11.6667H22.8753C22.323 11.6667 21.8753 11.219 21.8753 10.6667V9.75C21.8753 9.19772 22.323 8.75 22.8753 8.75H26.2503V5.375C26.2503 4.82272 26.698 4.375 27.2503 4.375H28.167C28.7193 4.375 29.167 4.82272 29.167 5.375V8.75H32.542C33.0943 8.75 33.542 9.19772 33.542 9.75V10.6667C33.542 11.219 33.0943 11.6667 32.542 11.6667H29.167V15.0417C29.167 15.594 28.7193 16.0417 28.167 16.0417H27.2503Z" fill="#FFA800"/>
<path d="M0.000950373 29.4573C0.56621 22.4972 6.21529 18.9585 13.1007 18.9585C20.083 18.9585 25.8196 22.3027 26.247 29.4585C26.264 29.7436 26.247 30.6252 25.1514 30.6252C19.7475 30.6252 11.7173 30.6252 1.06094 30.6252C0.695205 30.6252 -0.0298401 29.8365 0.000950373 29.4573Z" fill="#FFA800"/>
</svg>
