<svg width="28" height="28" viewBox="0 0 28 28" fill="none" xmlns="http://www.w3.org/2000/svg">
<path fill-rule="evenodd" clip-rule="evenodd" d="M4.6665 11.2871L12.6935 15.9215C12.7799 15.9714 12.8705 16.0075 12.9628 16.0303V25.0185L5.23899 20.4475C4.88415 20.2375 4.6665 19.8558 4.6665 19.4435V11.2871ZM23.3332 11.1641V19.4436C23.3332 19.8559 23.1155 20.2376 22.7607 20.4476L15.0369 25.0186V15.9517C15.0557 15.9423 15.0743 15.9323 15.0928 15.9216L23.3332 11.1641Z" fill="#8950FC"/>
<path opacity="0.3" fill-rule="evenodd" clip-rule="evenodd" d="M4.91895 9.03809C5.01699 8.91428 5.14074 8.80964 5.28502 8.73279L13.4517 4.38304C13.7945 4.20044 14.2058 4.20044 14.5486 4.38304L22.7153 8.73279C22.8265 8.79203 22.9255 8.86778 23.0099 8.9561L14.0561 14.1256C13.9972 14.1596 13.9429 14.1985 13.8934 14.2415C13.844 14.1985 13.7897 14.1596 13.7308 14.1256L4.91895 9.03809Z" fill="#8950FC"/>
</svg>
