<svg width="40" height="40" viewBox="0 0 40 40" fill="none" xmlns="http://www.w3.org/2000/svg">
<path d="M33.7809 36.4547L33.7183 35.8912C33.6936 35.6683 33.4928 35.5077 33.2699 35.5325L33.2348 35.5363L32.629 30.6903C32.4972 29.6362 31.7718 28.7514 30.764 28.4154L27.3979 27.2934C26.9357 27.1392 26.4286 27.2374 26.0721 27.5411L25.0806 27.2106C24.5173 27.0228 24.1375 26.4958 24.1375 25.9021V23.6778L27.1082 22.4399C28.6504 21.7976 29.6548 20.291 29.6548 18.6205V17.9308C30.7975 17.9308 31.7237 17.0045 31.7237 15.8619C31.7237 14.7192 30.7975 13.7929 29.6548 13.7929V12.4136C29.6548 10.5092 28.1109 8.96533 26.2065 8.96533H13.7928C11.8884 8.96533 10.3445 10.5092 10.3445 12.4136V13.7929C9.20186 13.7929 8.27557 14.7192 8.27557 15.8619C8.27557 17.0045 9.20186 17.9308 10.3445 17.9308V18.6205C10.3445 20.2909 11.3489 21.7975 12.8909 22.4401L15.8617 23.678V25.9022C15.8617 26.4959 15.4818 27.023 14.9186 27.2108L13.9271 27.5413C13.5706 27.2376 13.0636 27.1394 12.6013 27.2935L9.23522 28.4156C8.22738 28.7515 7.50204 29.6364 7.37023 30.6905L6.76445 35.5365L6.72937 35.5326C6.50644 35.5079 6.30575 35.6685 6.28092 35.8914L6.21834 36.4549C6.19359 36.6777 6.3542 36.8785 6.57704 36.9032L7.58583 37.0153V38.6205C7.58583 39.3824 8.20333 39.9999 8.96513 39.9999H12.4134H27.5857H31.034C31.7958 39.9999 32.4133 39.3824 32.4133 38.6205V37.0153L33.4221 36.9032C33.645 36.8783 33.8057 36.6775 33.7809 36.4547Z" fill="#FDC88E"/>
<path d="M24.1379 23.678L15.862 21.8389V25.9022C15.862 26.3987 15.5874 26.8359 15.1709 27.0797C20.9548 28.0922 24.1379 23.678 24.1379 23.678Z" fill="#F5B97A"/>
<path d="M29.6546 13.7929V12.4136C29.6546 10.5092 28.1107 8.96533 26.2063 8.96533H13.7926C11.8882 8.96533 10.3443 10.5092 10.3443 12.4136V13.7929C9.20168 13.7929 8.27539 14.7192 8.27539 15.8619C8.27539 17.0045 9.20168 17.9308 10.3443 17.9308V18.6205C10.3443 20.2909 11.3487 21.7975 12.8907 22.4401L17.3468 24.2968C18.1873 24.6471 19.0889 24.8273 19.9994 24.8273C20.9099 24.8273 21.8114 24.6471 22.6519 24.2968L27.1082 22.44C28.6502 21.7976 29.6546 20.291 29.6546 18.6205V17.9308C30.7973 17.9308 31.7236 17.0045 31.7236 15.8619C31.7236 14.7192 30.7973 13.7929 29.6546 13.7929Z" fill="#FFD7A3"/>
<path d="M15.1721 16.5519C14.7928 16.5519 14.4824 16.2415 14.4824 15.8622V15.1726C14.4824 14.7933 14.7928 14.4829 15.1721 14.4829C15.5514 14.4829 15.8617 14.7933 15.8617 15.1726V15.8622C15.8617 16.2415 15.5514 16.5519 15.1721 16.5519Z" fill="#623F33"/>
<path d="M24.8273 16.5519C24.448 16.5519 24.1377 16.2415 24.1377 15.8622V15.1726C24.1377 14.7933 24.448 14.4829 24.8273 14.4829C25.2067 14.4829 25.517 14.7933 25.517 15.1726V15.8622C25.517 16.2415 25.2067 16.5519 24.8273 16.5519Z" fill="#623F33"/>
<path d="M20.0001 21.398C18.774 21.398 17.6271 21.0963 16.8536 20.57C16.5388 20.3559 16.4569 19.9268 16.6714 19.612C16.8852 19.2975 17.3146 19.2156 17.6294 19.4298C18.1716 19.7986 19.0579 20.0188 20.0001 20.0188C20.9424 20.0188 21.8286 19.7986 22.3708 19.4298C22.6863 19.215 23.1147 19.2972 23.3288 19.612C23.5433 19.9268 23.4615 20.3559 23.1467 20.57C22.3732 21.0963 21.2262 21.398 20.0001 21.398Z" fill="#E4B07B"/>
<path d="M13.9647 21.0104C13.4059 20.4112 13.103 19.6206 13.103 18.8013V12.7145C15.0064 11.6851 20.5684 8.96533 26.2063 8.96533H13.7926C13.5552 8.96533 13.3253 8.993 13.103 9.04128V9.03481C11.5291 9.35438 10.3443 10.7454 10.3443 12.4136V13.7929C9.20168 13.7929 8.27539 14.7192 8.27539 15.8619C8.27539 17.0045 9.20168 17.9308 10.3443 17.9308V18.6205C10.3443 20.291 11.3487 21.7976 12.8907 22.4401L17.3467 24.2968C17.5648 24.3877 17.7874 24.466 18.0128 24.5338C16.0435 23.0931 14.7327 21.8338 13.9647 21.0104Z" fill="#FDC88E"/>
<path d="M31.7238 3.44826C31.7238 3.44826 31.477 3.26706 31.016 2.99481C30.8911 1.40422 30.3445 0.689652 30.3445 0.689652L27.8273 1.5287C25.634 0.736721 22.5502 0 18.6204 0C18.6204 0 18.1678 0.474136 17.2411 0.689652C17.2411 0.689652 14.8919 0.172413 12.4135 0L11.0342 3.44826C11.0342 3.44826 7.58594 3.41955 7.58594 7.58617C7.58594 9.11729 8.44119 12.9399 8.80404 14.493C9.183 14.0668 9.72938 13.793 10.3445 13.793V12.4137C10.3445 10.5264 11.8621 8.99781 13.7429 8.97048C13.2134 10.1191 13.1032 11.0344 13.1032 11.0344C14.8273 9.88496 17.0687 8.96548 19.9997 8.96548H26.2065C28.1109 8.96548 29.6548 10.5094 29.6548 12.4137V13.793C30.3193 13.793 30.904 14.1118 31.2826 14.5987C31.8804 13.0939 33.2469 8.75617 31.7238 3.44826Z" fill="#8DB9E2"/>
<path d="M30.3445 0.689652L27.8273 1.5287C25.634 0.736721 22.5502 0 18.6204 0C18.6204 0 18.1678 0.474136 17.2411 0.689652C17.2411 0.689652 14.8919 0.172413 12.4135 0L11.0342 3.44826C11.0342 3.44826 7.58594 3.41955 7.58594 7.58617C7.58594 9.11729 8.44119 12.9399 8.80404 14.493C9.183 14.0668 9.72938 13.793 10.3445 13.793V12.4137C10.3445 10.6137 11.7289 9.15263 13.4883 8.99617C13.3034 9.51048 13.1032 10.2433 13.1032 11.0344C15.8187 7.58617 19.6757 6.34213 22.7583 5.51722C25.8186 4.69826 26.2065 3.44826 26.2065 3.44826C26.2065 3.44826 29.2238 3.27585 30.3445 0.689652Z" fill="#6AA2DE"/>
<path d="M27.5854 39.9998V36.5516H33.3613L32.6286 30.6905C32.4968 29.6363 31.7714 28.7515 30.7636 28.4156L27.3975 27.2935C26.8113 27.0981 26.1518 27.3068 25.8207 27.8285C24.5983 29.7547 22.4496 31.0343 19.9992 31.0343C17.5489 31.0343 15.4002 29.7546 14.1777 27.8284C13.8466 27.3067 13.1871 27.098 12.6009 27.2934L9.23481 28.4155C8.22696 28.7514 7.50162 29.6362 7.36981 30.6904L6.71387 35.9379L12.4131 36.5515V39.9997H27.5854V39.9998Z" fill="#9BCE7A"/>
<path d="M12.4139 37.0723V35.5114C12.4139 34.8479 12.1748 34.2067 11.7404 33.7051L7.94564 29.3247C7.63944 29.7124 7.43444 30.1807 7.37073 30.6905L6.65039 36.4531C7.74728 36.519 10.6649 36.8608 12.4139 37.0723Z" fill="#8ABE69"/>
<path d="M12.4135 36.1643L6.72937 35.5328C6.50644 35.508 6.30575 35.6687 6.28092 35.8915L6.21834 36.4549C6.19359 36.6778 6.3542 36.8786 6.57704 36.9033L12.4135 37.5518V36.1643Z" fill="#76AB5F"/>
<path d="M27.5859 37.0723V35.5114C27.5859 34.8479 27.8251 34.2067 28.2595 33.7051L32.0542 29.3247C32.3604 29.7124 32.5654 30.1807 32.6291 30.6905L33.3494 36.4531C32.2526 36.519 29.335 36.8608 27.5859 37.0723Z" fill="#8ABE69"/>
<path d="M27.5859 36.1643L33.2701 35.5328C33.493 35.508 33.6937 35.6687 33.7185 35.8915L33.7811 36.4549C33.8058 36.6778 33.6452 36.8786 33.4224 36.9033L27.5859 37.5518V36.1643Z" fill="#76AB5F"/>
<path d="M27.3975 27.2935C26.8113 27.0981 26.1518 27.3068 25.8207 27.8285C24.5982 29.7547 22.4495 31.0343 19.9992 31.0343C17.5489 31.0343 15.4002 29.7546 14.1777 27.8284C13.8465 27.3067 13.1871 27.098 12.6009 27.2934L12.3779 27.3677C13.6364 30.3334 16.5747 32.4136 19.9992 32.4136C23.4237 32.4136 26.3621 30.3333 27.6205 27.3678L27.3975 27.2935Z" fill="#8ABE69"/>
<path d="M19.9992 38.6205C20.3801 38.6205 20.6889 38.3117 20.6889 37.9309C20.6889 37.55 20.3801 37.2412 19.9992 37.2412C19.6183 37.2412 19.3096 37.55 19.3096 37.9309C19.3096 38.3117 19.6183 38.6205 19.9992 38.6205Z" fill="#82B8AD"/>
<path d="M14.4826 38.6205C14.8635 38.6205 15.1723 38.3117 15.1723 37.9309C15.1723 37.55 14.8635 37.2412 14.4826 37.2412C14.1017 37.2412 13.793 37.55 13.793 37.9309C13.793 38.3117 14.1017 38.6205 14.4826 38.6205Z" fill="#82B8AD"/>
<path d="M25.5168 38.6205C25.8977 38.6205 26.2065 38.3117 26.2065 37.9309C26.2065 37.55 25.8977 37.2412 25.5168 37.2412C25.1359 37.2412 24.8271 37.55 24.8271 37.9309C24.8271 38.3117 25.1359 38.6205 25.5168 38.6205Z" fill="#82B8AD"/>
<path d="M22.758 38.6205C23.1389 38.6205 23.4477 38.3117 23.4477 37.9309C23.4477 37.55 23.1389 37.2412 22.758 37.2412C22.3771 37.2412 22.0684 37.55 22.0684 37.9309C22.0684 38.3117 22.3771 38.6205 22.758 38.6205Z" fill="#6AA2DE"/>
<path d="M17.2414 38.6205C17.6223 38.6205 17.9311 38.3117 17.9311 37.9309C17.9311 37.55 17.6223 37.2412 17.2414 37.2412C16.8605 37.2412 16.5518 37.55 16.5518 37.9309C16.5518 38.3117 16.8605 38.6205 17.2414 38.6205Z" fill="#6AA2DE"/>
<path d="M21.3791 36.5517C21.76 36.5517 22.0688 36.2429 22.0688 35.862C22.0688 35.4811 21.76 35.1724 21.3791 35.1724C20.9982 35.1724 20.6895 35.4811 20.6895 35.862C20.6895 36.2429 20.9982 36.5517 21.3791 36.5517Z" fill="#6AA2DE"/>
<path d="M15.8615 36.5517C16.2424 36.5517 16.5512 36.2429 16.5512 35.862C16.5512 35.4811 16.2424 35.1724 15.8615 35.1724C15.4806 35.1724 15.1719 35.4811 15.1719 35.862C15.1719 36.2429 15.4806 36.5517 15.8615 36.5517Z" fill="#6AA2DE"/>
<path d="M26.8957 36.5517C27.2766 36.5517 27.5854 36.2429 27.5854 35.862C27.5854 35.4811 27.2766 35.1724 26.8957 35.1724C26.5148 35.1724 26.2061 35.4811 26.2061 35.862C26.2061 36.2429 26.5148 36.5517 26.8957 36.5517Z" fill="#6AA2DE"/>
<path d="M13.1027 36.5517C13.4836 36.5517 13.7924 36.2429 13.7924 35.862C13.7924 35.4811 13.4836 35.1724 13.1027 35.1724C12.7219 35.1724 12.4131 35.4811 12.4131 35.862C12.4131 36.2429 12.7219 36.5517 13.1027 36.5517Z" fill="#82B8AD"/>
<path d="M24.1379 36.5517C24.5188 36.5517 24.8275 36.2429 24.8275 35.862C24.8275 35.4811 24.5188 35.1724 24.1379 35.1724C23.757 35.1724 23.4482 35.4811 23.4482 35.862C23.4482 36.2429 23.757 36.5517 24.1379 36.5517Z" fill="#82B8AD"/>
<path d="M18.6203 36.5517C19.0012 36.5517 19.31 36.2429 19.31 35.862C19.31 35.4811 19.0012 35.1724 18.6203 35.1724C18.2394 35.1724 17.9307 35.4811 17.9307 35.862C17.9307 36.2429 18.2394 36.5517 18.6203 36.5517Z" fill="#82B8AD"/>
</svg>
