<svg width="32" height="32" viewBox="0 0 32 32" fill="none" xmlns="http://www.w3.org/2000/svg">
<path opacity="0.3" d="M16 6.08257L10.3577 12.8534C9.88624 13.4191 9.04549 13.4956 8.47979 13.0241C7.91409 12.5527 7.83765 11.712 8.30907 11.1463L14.9757 3.14626C15.5088 2.50659 16.4913 2.50659 17.0243 3.14626L23.691 11.1463C24.1624 11.712 24.086 12.5527 23.5203 13.0241C22.9546 13.4956 22.1138 13.4191 21.6424 12.8534L16 6.08257Z" fill="#1BC5BD"/>
<path fill-rule="evenodd" clip-rule="evenodd" d="M6.17929 12C5.46217 12 4.97815 12.7326 5.25943 13.3922L9.88948 24.2508C10.361 25.3565 11.447 26.0741 12.6491 26.0741H19.3513C20.5535 26.0741 21.6395 25.3564 22.111 24.2506L26.74 13.3922C27.0212 12.7325 26.5372 12 25.8201 12H6.17929ZM18.6668 20.0001C18.6668 21.4728 17.4729 22.6667 16.0002 22.6667C14.5274 22.6667 13.3335 21.4728 13.3335 20.0001C13.3335 18.5273 14.5274 17.3334 16.0002 17.3334C17.4729 17.3334 18.6668 18.5273 18.6668 20.0001Z" fill="#1BC5BD"/>
</svg>
