<svg width="27" height="25" viewBox="0 0 27 25" fill="none" xmlns="http://www.w3.org/2000/svg">
<path opacity="0.3" d="M13.5 4.81917L8.73928 9.96079C8.34152 10.3904 7.63213 10.4484 7.15482 10.0904C6.67751 9.73244 6.61302 9.09399 7.01078 8.66441L12.6358 2.58941C13.0856 2.10366 13.9145 2.10366 14.3643 2.58941L19.9893 8.66441C20.387 9.09399 20.3225 9.73244 19.8452 10.0904C19.3679 10.4484 18.6585 10.3904 18.2608 9.96079L13.5 4.81917Z" fill="white"/>
<path fill-rule="evenodd" clip-rule="evenodd" d="M5.51684 9.3125C4.78269 9.3125 4.29881 10.0772 4.61313 10.7407L8.1872 18.2845C8.68355 19.3321 9.73906 20 10.8983 20H16.1015C17.2608 20 18.3164 19.332 18.8127 18.2842L22.3859 10.7406C22.7002 10.0771 22.2163 9.3125 21.4822 9.3125H5.51684ZM15.7499 15.3875C15.7499 16.5059 14.7425 17.4125 13.4999 17.4125C12.2572 17.4125 11.2499 16.5059 11.2499 15.3875C11.2499 14.2691 12.2572 13.3625 13.4999 13.3625C14.7425 13.3625 15.7499 14.2691 15.7499 15.3875Z" fill="white"/>
</svg>
