<svg width="26" height="26" viewBox="0 0 26 26" fill="none" xmlns="http://www.w3.org/2000/svg">
<path opacity="0.3" d="M13 4.94206L8.4156 10.4434C8.03257 10.903 7.34946 10.9651 6.88983 10.5821C6.43019 10.1991 6.36809 9.51594 6.75112 9.0563L12.1678 2.5563C12.6009 2.03657 13.3992 2.03657 13.8323 2.5563L19.2489 9.0563C19.632 9.51594 19.5699 10.1991 19.1102 10.5821C18.6506 10.9651 17.9675 10.903 17.5845 10.4434L13 4.94206Z" fill="#B5B5C3"/>
<path fill-rule="evenodd" clip-rule="evenodd" d="M5.30478 9.75C4.58766 9.75 4.10364 10.4826 4.38491 11.1422L7.88975 19.3619C8.36125 20.4676 9.44727 21.1852 10.6494 21.1852H15.3516C16.5537 21.1852 17.6398 20.4675 18.1113 19.3617L21.6153 11.1422C21.8965 10.4825 21.4125 9.75 20.6954 9.75H5.30478ZM15.1671 16.25C15.1671 17.4466 14.197 18.4167 13.0004 18.4167C11.8038 18.4167 10.8338 17.4466 10.8338 16.25C10.8338 15.0534 11.8038 14.0833 13.0004 14.0833C14.197 14.0833 15.1671 15.0534 15.1671 16.25Z" fill="#B5B5C3"/>
</svg>
