<svg width="34" height="34" viewBox="0 0 34 34" fill="none" xmlns="http://www.w3.org/2000/svg">
<path opacity="0.3" fill-rule="evenodd" clip-rule="evenodd" d="M3.18543 15.5745C2.59965 16.1603 2.59965 17.1101 3.18543 17.6958L7.07452 21.5849C7.66031 22.1707 8.61005 22.1707 9.19584 21.5849L13.0849 17.6958C13.6707 17.1101 13.6707 16.1603 13.0849 15.5745L9.19584 11.6854C8.61005 11.0996 7.66031 11.0996 7.07452 11.6854L3.18543 15.5745ZM20.1854 15.5745C19.5996 16.1603 19.5996 17.1101 20.1854 17.6958L24.0745 21.5849C24.6603 22.1707 25.6101 22.1707 26.1958 21.5849L30.0849 17.6958C30.6707 17.1101 30.6707 16.1603 30.0849 15.5745L26.1958 11.6854C25.6101 11.0996 24.6603 11.0996 24.0745 11.6854L20.1854 15.5745Z" fill="#F65464"/>
<path fill-rule="evenodd" clip-rule="evenodd" d="M11.6854 7.07452C11.0996 7.66031 11.0996 8.61005 11.6854 9.19584L15.5745 13.0849C16.1603 13.6707 17.1101 13.6707 17.6958 13.0849L21.5849 9.19584C22.1707 8.61005 22.1707 7.66031 21.5849 7.07452L17.6958 3.18543C17.1101 2.59965 16.1603 2.59965 15.5745 3.18543L11.6854 7.07452ZM11.6854 24.0745C11.0996 24.6603 11.0996 25.6101 11.6854 26.1958L15.5745 30.0849C16.1603 30.6707 17.1101 30.6707 17.6958 30.0849L21.5849 26.1958C22.1707 25.6101 22.1707 24.6603 21.5849 24.0745L17.6958 20.1854C17.1101 19.5996 16.1603 19.5996 15.5745 20.1854L11.6854 24.0745Z" fill="#F65464"/>
</svg>
