<svg width="14" height="14" viewBox="0 0 14 14" fill="none" xmlns="http://www.w3.org/2000/svg">
<g clip-path="url(#clip0_639_838)">
<path d="M7.82031 14H5.35938C5.13267 14 4.94922 13.8166 4.94922 13.5899V8.20313H3.71875C3.49204 8.20313 3.30859 8.01968 3.30859 7.79297V5.33203C3.30859 5.10533 3.49204 4.92188 3.71875 4.92188H4.94922V2.8711C4.94922 1.28814 6.23736 0 7.82031 0H10.2813C10.508 0 10.6914 0.183449 10.6914 0.410156V2.8711C10.6914 3.0978 10.508 3.28125 10.2813 3.28125H8.23047V4.92188H10.2813C10.4018 4.92188 10.5164 4.97476 10.5941 5.06688C10.6722 5.159 10.7058 5.28038 10.6858 5.39933L10.2756 7.86027C10.2428 8.05813 10.0717 8.20313 9.87107 8.20313H8.23044V13.5899C8.23047 13.8166 8.04702 14 7.82031 14Z" fill="white"/>
</g>
<defs>
<clipPath id="clip0_639_838">
<rect width="14" height="14" fill="white"/>
</clipPath>
</defs>
</svg>
