<svg width="25" height="23" viewBox="0 0 25 23" fill="none" xmlns="http://www.w3.org/2000/svg">
<path fill-rule="evenodd" clip-rule="evenodd" d="M23.1457 17.3573C23.4682 17.6475 23.9819 17.4174 23.9802 16.9836L23.9628 12.586V5.48073C23.9628 4.17268 22.7846 3.1123 21.3312 3.1123H9.05052C7.59714 3.1123 6.41895 4.17268 6.41895 5.48073V8.7373H13.667C15.3239 8.7373 16.667 10.0804 16.667 11.7373V14.9544H20.4759L23.1457 17.3573Z" fill="white"/>
<path opacity="0.3" fill-rule="evenodd" clip-rule="evenodd" d="M2.06738 17.1748V12.4873C2.06738 11.4518 3.00012 10.6123 4.15072 10.6123H12.4841C13.6346 10.6123 14.5674 11.4518 14.5674 12.4873V17.1748C14.5674 18.2103 13.6346 19.0498 12.4841 19.0498H4.27127L2.92095 20.213C2.59686 20.4922 2.09462 20.2619 2.09462 19.8342V17.4788C2.0767 17.3799 2.06738 17.2783 2.06738 17.1748ZM6.24961 13.8936C6.24961 13.6347 6.45948 13.4248 6.71836 13.4248H12.0309C12.2897 13.4248 12.4996 13.6347 12.4996 13.8936C12.4996 14.1524 12.2897 14.3623 12.0309 14.3623H6.71836C6.45948 14.3623 6.24961 14.1524 6.24961 13.8936ZM9.84336 15.2998C9.58448 15.2998 9.37461 15.5097 9.37461 15.7686C9.37461 16.0274 9.58448 16.2373 9.84336 16.2373H12.0309C12.2897 16.2373 12.4996 16.0274 12.4996 15.7686C12.4996 15.5097 12.2897 15.2998 12.0309 15.2998H9.84336Z" fill="white"/>
</svg>
