<svg width="29" height="29" viewBox="0 0 29 29" fill="none" xmlns="http://www.w3.org/2000/svg">
<rect x="4.83301" y="4.8335" width="8.45833" height="8.45833" rx="1.5" fill="white"/>
<path opacity="0.3" fill-rule="evenodd" clip-rule="evenodd" d="M15.708 6.3335C15.708 5.50507 16.3796 4.8335 17.208 4.8335H22.6663C23.4948 4.8335 24.1663 5.50507 24.1663 6.3335V11.7918C24.1663 12.6203 23.4948 13.2918 22.6663 13.2918H17.208C16.3796 13.2918 15.708 12.6203 15.708 11.7918V6.3335ZM4.83301 17.2085C4.83301 16.3801 5.50458 15.7085 6.33301 15.7085H11.7913C12.6198 15.7085 13.2913 16.3801 13.2913 17.2085V22.6668C13.2913 23.4953 12.6198 24.1668 11.7913 24.1668H6.33301C5.50458 24.1668 4.83301 23.4953 4.83301 22.6668V17.2085ZM17.208 15.7085C16.3796 15.7085 15.708 16.3801 15.708 17.2085V22.6668C15.708 23.4953 16.3796 24.1668 17.208 24.1668H22.6663C23.4948 24.1668 24.1663 23.4953 24.1663 22.6668V17.2085C24.1663 16.3801 23.4948 15.7085 22.6663 15.7085H17.208Z" fill="white"/>
</svg>
