<svg width="26" height="26" viewBox="0 0 26 26" fill="none" xmlns="http://www.w3.org/2000/svg">
<path fill-rule="evenodd" clip-rule="evenodd" d="M5.3335 3.25C4.78121 3.25 4.3335 3.69772 4.3335 4.25V21.75C4.3335 22.3023 4.78121 22.75 5.3335 22.75H6.5835C7.13578 22.75 7.5835 22.3023 7.5835 21.75V4.25C7.5835 3.69772 7.13578 3.25 6.5835 3.25H5.3335ZM10.7502 3.25C10.1979 3.25 9.75016 3.69772 9.75016 4.25V21.75C9.75016 22.3023 10.1979 22.75 10.7502 22.75H12.0002C12.5524 22.75 13.0002 22.3023 13.0002 21.75V4.25C13.0002 3.69772 12.5524 3.25 12.0002 3.25H10.7502Z" fill="#FFA800"/>
<rect opacity="0.3" x="14.6001" y="4.25098" width="3.25" height="19.5" rx="1" transform="rotate(-19 14.6001 4.25098)" fill="#FFA800"/>
</svg>
