<svg width="14" height="14" viewBox="0 0 14 14" fill="none" xmlns="http://www.w3.org/2000/svg">
<g clip-path="url(#clip0_639_834)">
<path d="M13.8042 2.55901C13.7497 2.50453 13.685 2.46053 13.6144 2.42816C13.6617 2.32787 13.7042 2.22554 13.7417 2.12119C13.8403 1.86633 13.7888 1.60411 13.6029 1.41815C13.413 1.22846 13.1157 1.17665 12.8744 1.28987C12.3587 1.51087 11.8617 1.7199 11.4492 1.8549C10.9683 1.59685 10.1732 1.23091 9.53227 1.23091H9.5265C8.64798 1.2433 7.82457 1.60625 7.20795 2.25288C6.6897 2.79623 6.36862 3.48677 6.28221 4.22965C4.3469 3.80432 3.22751 3.18268 1.97782 1.87253L1.81974 1.71423C1.71004 1.60443 1.55325 1.5538 1.39986 1.57858C1.2467 1.60336 1.11382 1.70099 1.04418 1.83995L0.957344 2.01373C0.582009 2.733 0.464089 3.47086 0.607003 4.207C0.658486 4.47264 0.745324 4.73679 0.864739 4.99399C0.753976 4.99655 0.643639 5.02667 0.542062 5.08499C0.29992 5.21594 0.167795 5.51982 0.226861 5.81537L0.2306 5.83385L0.236047 5.85201C0.41015 6.43637 0.720757 6.98891 1.14138 7.47458C1.06982 7.49733 1.00221 7.5313 0.942391 7.57626C0.699929 7.75806 0.609139 8.06322 0.714349 8.33836C1.0272 9.22063 1.55303 9.83009 2.31 10.1823C1.83544 10.3205 1.31249 10.3917 0.714776 10.4021C0.424356 10.4038 0.156366 10.5879 0.046991 10.8615L0.0387665 10.884C-0.0513823 11.1542 0.0174042 11.4296 0.227289 11.6397L0.242883 11.6553L0.26008 11.6691C1.14352 12.3808 2.99039 12.7889 5.327 12.7889C9.44778 12.7889 12.81 9.18517 12.8938 4.72044C13.396 4.39488 13.7755 3.87621 13.9732 3.2394L13.9794 3.21707C14.038 2.9823 13.9692 2.72403 13.8042 2.55901Z" fill="white"/>
</g>
<defs>
<clipPath id="clip0_639_834">
<rect width="14" height="14" fill="white"/>
</clipPath>
</defs>
</svg>
