<svg width="35" height="36" viewBox="0 0 35 36" fill="none" xmlns="http://www.w3.org/2000/svg">
<path opacity="0.3" fill-rule="evenodd" clip-rule="evenodd" d="M18.5266 20.5694L22.8476 14.6924H19.6068V8.81545L13.1253 17.6309H16.3661V20.5694H8.75033C7.94491 20.5694 7.29199 19.9116 7.29199 19.1002V4.40772C7.29199 3.59628 7.94491 2.93848 8.75033 2.93848H26.2503C27.0557 2.93848 27.7087 3.59628 27.7087 4.40772V19.1002C27.7087 19.9116 27.0557 20.5694 26.2503 20.5694H18.5266Z" fill="#1BC5BC"/>
<path fill-rule="evenodd" clip-rule="evenodd" d="M14.2979 16.0357L13.125 17.631H16.3657V23.5079L22.8472 14.6925H22.5481L29.4689 9.65671C29.7954 9.41917 30.2512 9.49323 30.487 9.82214C30.5767 9.94733 30.625 10.0978 30.625 10.2523V24.9772C30.625 26.6001 29.3192 27.9157 27.7083 27.9157H7.29167C5.68084 27.9157 4.375 26.6001 4.375 24.9772V10.2523C4.375 9.84653 4.70146 9.51763 5.10417 9.51763C5.25745 9.51763 5.40683 9.5663 5.53109 9.65671L14.2979 16.0357Z" fill="#1BC5BC"/>
</svg>
