<svg width="29" height="29" viewBox="0 0 29 29" fill="none" xmlns="http://www.w3.org/2000/svg">
<path d="M16.1862 29H12.8145C7.39035 29 2.97754 24.5871 2.97754 19.163V3.26907C2.97748 1.46648 4.44396 0 6.24655 0C8.04914 0 9.51562 1.46648 9.51562 3.26907V19.163C9.51562 20.982 10.9955 22.4619 12.8145 22.4619H16.1862C18.0053 22.4619 19.4851 20.9821 19.4851 19.163C19.4851 17.344 18.0053 15.8641 16.1862 15.8641H14.5951C12.7925 15.8641 11.326 14.3976 11.326 12.5951C11.326 10.7925 12.7925 9.32599 14.5951 9.32599H16.1862C21.6104 9.32599 26.0232 13.7389 26.0232 19.1629C26.0232 24.5871 21.6104 29 16.1862 29Z" fill="#FF3C3C"/>
<path d="M16.1852 9.32617H15.3672V15.8643H16.1852C18.0042 15.8643 19.4841 17.3441 19.4841 19.1631C19.4841 20.9821 18.0042 22.462 16.1852 22.462H15.3672V29.0001H16.1852C21.6093 29.0001 26.0221 24.5873 26.0221 19.1631C26.0221 13.739 21.6093 9.32617 16.1852 9.32617Z" fill="#DA0806"/>
</svg>
