<svg width="29" height="29" viewBox="0 0 29 29" fill="none" xmlns="http://www.w3.org/2000/svg">
<g clip-path="url(#clip0_639_1050)">
<path d="M20.3228 14.576L25.3856 8.21048C27.0675 6.05287 26.7448 2.82487 24.4683 1.05796C22.2087 -0.675024 19.0315 -0.216251 17.3326 1.97534C17.1967 2.1283 13.2893 7.02128 12.7795 7.6329C12.7625 7.66693 12.7455 7.68381 12.7455 7.68381V5.10146C12.7455 2.29814 10.4519 0.00461243 7.64861 0.00461243C4.84528 0.00461243 2.55176 2.29814 2.55176 5.10146V23.9032C2.55176 26.7064 4.84528 29 7.64861 29C10.4519 29 12.7455 26.7064 12.7455 23.9032V21.3717C12.8815 21.5416 17.3155 27.0179 17.3326 27.0179C19.0825 29.2435 22.2428 29.6513 24.4683 27.9183C26.7618 26.1344 27.0505 23.0027 25.3856 20.8281L20.3228 14.576Z" fill="#7FE881"/>
<path d="M25.3852 20.8281C27.0502 23.0027 26.7615 26.1344 24.4679 27.9183C22.2424 29.6513 19.0822 29.2435 17.3322 27.0179C17.3152 27.0179 12.8812 21.5416 12.7451 21.3717V7.68381C12.7451 7.68381 12.7621 7.66693 12.7792 7.6329C13.2889 7.02128 17.1964 2.1283 17.3322 1.97534C19.0312 -0.216251 22.2084 -0.675024 24.4679 1.05796C26.7445 2.82481 27.0671 6.05287 25.3852 8.21048L20.3224 14.576L25.3852 20.8281Z" fill="#5BC980"/>
</g>
<defs>
<clipPath id="clip0_639_1050">
<rect width="29" height="29" fill="white"/>
</clipPath>
</defs>
</svg>
