<svg width="29" height="29" viewBox="0 0 29 29" fill="none" xmlns="http://www.w3.org/2000/svg">
<g clip-path="url(#clip0_639_1073)">
<path d="M21.508 14.984H16.4381C16.2031 14.984 16.0126 14.7934 16.0126 14.5584V13.7553C16.0126 13.6307 16.0671 13.5124 16.1619 13.4315C16.6539 13.0119 16.936 12.4009 16.936 11.7552C16.936 10.5408 15.948 9.55275 14.7336 9.55275C13.5192 9.55275 12.5312 10.5408 12.5312 11.7552C12.5312 12.3692 12.7778 12.9392 13.2256 13.3601C13.3112 13.4406 13.3596 13.5528 13.3596 13.6703V14.5585C13.3596 14.7935 13.1691 14.984 12.9341 14.984H7.49199C7.25695 14.984 7.06641 14.7935 7.06641 14.5585V0.425589C7.06641 0.190543 7.25695 0 7.49199 0H21.508C21.7431 0 21.9336 0.190486 21.9336 0.425589V4.20481H22.1912C22.7547 3.67615 23.5064 3.37631 24.282 3.37631C25.9658 3.37631 27.3356 4.74616 27.3356 6.42992C27.3356 8.11368 25.9658 9.48353 24.282 9.48353C23.4544 9.48353 22.6679 9.14927 22.0943 8.56002H21.9335V14.5585C21.9335 14.7935 21.7431 14.984 21.508 14.984Z" fill="#FF7C48"/>
<path d="M24.2819 3.37631C23.5062 3.37631 22.7545 3.67615 22.191 4.20481H21.9334V0.425589C21.9334 0.190543 21.7429 0 21.5078 0H14.7334V9.55275C15.9478 9.55275 16.9358 10.5408 16.9358 11.7552C16.9358 12.4009 16.6537 13.0119 16.1618 13.4315C16.067 13.5124 16.0124 13.6307 16.0124 13.7553V14.5584C16.0124 14.7934 16.2029 14.984 16.438 14.984H21.5078C21.7429 14.984 21.9334 14.7934 21.9334 14.5584V8.55996H22.0942C22.6678 9.14922 23.4543 9.48347 24.2819 9.48347C25.9657 9.48347 27.3355 8.11362 27.3355 6.42986C27.3355 4.7461 25.9656 3.37631 24.2819 3.37631Z" fill="#FF415B"/>
<path d="M21.5077 29.0001H7.49168C7.25664 29.0001 7.06609 28.8097 7.06609 28.5746V23.6966H6.90543C6.33176 24.2858 5.54533 24.6201 4.71768 24.6201C3.03392 24.6201 1.66406 23.2502 1.66406 21.5665C1.66406 19.8828 3.03392 18.5129 4.71768 18.5129C5.4934 18.5129 6.24508 18.8127 6.80854 19.3414H7.06609V14.5585C7.06609 14.3234 7.25664 14.1329 7.49168 14.1329H12.5082V13.8461C11.9795 13.2827 11.6797 12.531 11.6797 11.7553C11.6797 10.0715 13.0496 8.70166 14.7333 8.70166C16.417 8.70166 17.7869 10.0715 17.7869 11.7553C17.7869 12.5829 17.4526 13.3694 16.8634 13.943V14.1329H21.5077C21.7427 14.1329 21.9333 14.3234 21.9333 14.5585V19.767C21.9333 20.0021 21.7427 20.1926 21.5077 20.1926H20.6487C20.5313 20.1926 20.419 20.1441 20.3386 20.0585C19.9177 19.6108 19.3477 19.3642 18.7337 19.3642C17.5193 19.3642 16.5313 20.3523 16.5313 21.5667C16.5313 22.7811 17.5193 23.769 18.7337 23.769C19.3794 23.769 19.9904 23.4869 20.41 22.995C20.4909 22.9002 20.6092 22.8456 20.7338 22.8456H21.5076C21.7427 22.8456 21.9332 23.0361 21.9332 23.2712V28.5747C21.9332 28.8097 21.7427 29.0001 21.5077 29.0001Z" fill="#8EE16A"/>
<path d="M18.7339 19.3642C19.3479 19.3642 19.9179 19.6108 20.3388 20.0585C20.4192 20.1441 20.5315 20.1926 20.6489 20.1926H21.5079C21.7429 20.1926 21.9335 20.0021 21.9335 19.767V14.5585C21.9335 14.3235 21.7429 14.1329 21.5079 14.1329H16.8636V13.943C17.4528 13.3694 17.787 12.5829 17.787 11.7553C17.787 10.0715 16.4172 8.70166 14.7334 8.70166V29.0001H21.5078C21.7429 29.0001 21.9334 28.8096 21.9334 28.5745V23.271C21.9334 23.0359 21.7429 22.8454 21.5078 22.8454H20.734C20.6094 22.8454 20.4911 22.9 20.4102 22.9948C19.9906 23.4867 19.3796 23.7689 18.7339 23.7689C17.5195 23.7689 16.5315 22.7809 16.5315 21.5665C16.5315 20.3523 17.5195 19.3642 18.7339 19.3642Z" fill="#00CAB1"/>
</g>
<defs>
<clipPath id="clip0_639_1073">
<rect width="29" height="29" fill="white"/>
</clipPath>
</defs>
</svg>
