<svg width="322" height="200" viewBox="0 0 322 200" fill="none" xmlns="http://www.w3.org/2000/svg">
<path d="M0.634766 110.333C0.634766 108.229 2.34035 106.523 4.44429 106.523C6.54823 106.523 8.25382 108.229 8.25382 110.333V199.065H0.634766V110.333Z" fill="white" fill-opacity="0.3"/>
<path d="M12.0635 97.1128C12.0635 95.0088 13.7691 93.3032 15.873 93.3032C17.9769 93.3032 19.6825 95.0088 19.6825 97.1127V199.065H12.0635V97.1128Z" fill="white"/>
<path d="M51.4287 44.2319C51.4287 42.128 53.1343 40.4224 55.2382 40.4224C57.3422 40.4224 59.0478 42.1279 59.0478 44.2319V199.065H51.4287V44.2319Z" fill="white" fill-opacity="0.3"/>
<path d="M62.8569 31.0117C62.8569 28.9077 64.5625 27.2021 66.6665 27.2021C68.7704 27.2021 70.476 28.9077 70.476 31.0117V199.065H62.8569V31.0117Z" fill="white"/>
<path d="M102.222 17.7915C102.222 15.6875 103.928 13.9819 106.032 13.9819C108.136 13.9819 109.841 15.6875 109.841 17.7915V199.065H102.222V17.7915Z" fill="white" fill-opacity="0.3"/>
<path d="M113.65 4.57127C113.65 2.46732 115.356 0.761719 117.46 0.761719C119.564 0.761719 121.269 2.4673 121.269 4.57125V199.065H113.65V4.57127Z" fill="white"/>
<path d="M153.016 83.8925C153.016 81.7886 154.721 80.083 156.825 80.083C158.929 80.083 160.635 81.7886 160.635 83.8925V199.065H153.016V83.8925Z" fill="white" fill-opacity="0.3"/>
<path d="M164.444 70.6723C164.444 68.5684 166.15 66.8628 168.254 66.8628C170.358 66.8628 172.063 68.5684 172.063 70.6723V199.065H164.444V70.6723Z" fill="white"/>
<path d="M203.81 103.723C203.81 101.619 205.515 99.9131 207.619 99.9131C209.723 99.9131 211.429 101.619 211.429 103.723V199.065H203.81V103.723Z" fill="white" fill-opacity="0.3"/>
<path d="M215.238 90.5024C215.238 88.3984 216.943 86.6929 219.047 86.6929C221.151 86.6929 222.857 88.3984 222.857 90.5024V199.065H215.238V90.5024Z" fill="white"/>
<path d="M253.333 57.4521C253.333 55.3481 255.039 53.6426 257.143 53.6426C259.246 53.6426 260.952 55.3482 260.952 57.4521V199.065H253.333V57.4521Z" fill="white" fill-opacity="0.3"/>
<path d="M264.762 44.2319C264.762 42.1279 266.467 40.4224 268.571 40.4224C270.675 40.4224 272.381 42.1279 272.381 44.2319V199.065H264.762V44.2319Z" fill="white"/>
<path d="M302.857 77.2822C302.857 75.1782 304.563 73.4727 306.666 73.4727C308.77 73.4727 310.476 75.1782 310.476 77.2822V199.065H302.857V77.2822Z" fill="white" fill-opacity="0.3"/>
<path d="M314.285 64.062C314.285 61.958 315.991 60.2524 318.095 60.2524C320.199 60.2524 321.904 61.958 321.904 64.062V199.064H314.285V64.062Z" fill="white"/>
</svg>
