<svg width="30" height="30" viewBox="0 0 30 30" fill="none" xmlns="http://www.w3.org/2000/svg">
<path d="M7.32143 2.5H17.3078C17.6625 2.5 18.0057 2.62568 18.2765 2.85474L24.4687 8.09228C24.8057 8.37728 25 8.79621 25 9.23754V25.1042C25 27.3423 24.9744 27.5 22.6786 27.5H7.32143C5.02556 27.5 5 27.3423 5 25.1042V4.89583C5 2.65766 5.02556 2.5 7.32143 2.5Z" fill="#B8EBE8"/>
<path fill-rule="evenodd" clip-rule="evenodd" d="M13.7502 17.5L11.2502 17.5C10.5598 17.5 10.0002 16.9404 10.0002 16.25C10.0002 15.5596 10.5598 15 11.2502 15L13.7502 15L13.7502 12.5C13.7502 11.8096 14.3098 11.25 15.0002 11.25C15.6905 11.25 16.2502 11.8096 16.2502 12.5L16.2502 15H18.7502C19.4405 15 20.0002 15.5596 20.0002 16.25C20.0002 16.9404 19.4405 17.5 18.7502 17.5H16.2502L16.2502 20C16.2502 20.6904 15.6905 21.25 15.0002 21.25C14.3098 21.25 13.7502 20.6904 13.7502 20L13.7502 17.5Z" fill="#1DC9B7"/>
</svg>
