<svg width="25" height="25" viewBox="0 0 25 25" fill="none" xmlns="http://www.w3.org/2000/svg">
<rect x="4.1665" y="4.1665" width="7.29167" height="7.29167" rx="1.5" fill="white"/>
<path opacity="0.3" fill-rule="evenodd" clip-rule="evenodd" d="M13.5415 5.6665C13.5415 4.83808 14.2131 4.1665 15.0415 4.1665H19.3332C20.1616 4.1665 20.8332 4.83808 20.8332 5.6665V9.95817C20.8332 10.7866 20.1616 11.4582 19.3332 11.4582H15.0415C14.2131 11.4582 13.5415 10.7866 13.5415 9.95817V5.6665ZM4.1665 15.0415C4.1665 14.2131 4.83808 13.5415 5.6665 13.5415H9.95817C10.7866 13.5415 11.4582 14.2131 11.4582 15.0415V19.3332C11.4582 20.1616 10.7866 20.8332 9.95817 20.8332H5.6665C4.83808 20.8332 4.1665 20.1616 4.1665 19.3332V15.0415ZM15.0415 13.5415C14.2131 13.5415 13.5415 14.2131 13.5415 15.0415V19.3332C13.5415 20.1616 14.2131 20.8332 15.0415 20.8332H19.3332C20.1616 20.8332 20.8332 20.1616 20.8332 19.3332V15.0415C20.8332 14.2131 20.1616 13.5415 19.3332 13.5415H15.0415Z" fill="white"/>
</svg>
