<svg width="20" height="19" viewBox="0 0 20 19" fill="none" xmlns="http://www.w3.org/2000/svg">
<path opacity="0.3" d="M9.29289 12.7071C8.90237 12.3166 8.90237 11.6834 9.29289 11.2929C9.68342 10.9024 10.3166 10.9024 10.7071 11.2929L14.7071 15.2929C15.0976 15.6834 15.0976 16.3166 14.7071 16.7071C14.3166 17.0976 13.6834 17.0976 13.2929 16.7071L9.29289 12.7071Z" fill="white"/>
<path fill-rule="evenodd" clip-rule="evenodd" d="M0.166992 7.65614C0.166992 11.2403 3.0725 14.1458 6.65662 14.1458C10.2407 14.1458 13.1463 11.2403 13.1463 7.65614C13.1463 4.07201 10.2407 1.1665 6.65662 1.1665C3.0725 1.1665 0.166992 4.07201 0.166992 7.65614ZM11.292 7.65633C11.292 10.2164 9.21662 12.2918 6.65653 12.2918C4.09644 12.2918 2.02108 10.2164 2.02108 7.65633C2.02108 5.09624 4.09644 3.02087 6.65653 3.02087C9.21662 3.02087 11.292 5.09624 11.292 7.65633Z" fill="white"/>
</svg>
