<svg width="16" height="16" viewBox="0 0 16 16" fill="none" xmlns="http://www.w3.org/2000/svg">
<path d="M14.1383 2.98661C14.7157 3.56402 14.7252 4.49722 14.1596 5.08622L8.74273 10.7273C8.46744 11.014 8.08962 11.1797 7.69225 11.188L5.41693 11.2358L5.46498 8.94521C5.47313 8.55688 5.6316 8.18685 5.90704 7.91298L11.4441 2.40759C12.0303 1.82467 12.9777 1.82602 13.5623 2.41063L14.1383 2.98661Z" fill="#3699FF"/>
<path opacity="0.3" d="M8.60016 1.3335C8.96835 1.3335 9.26683 1.63197 9.26683 2.00016C9.26683 2.36835 8.96835 2.66683 8.60016 2.66683H4.00016C3.26378 2.66683 2.66683 3.26378 2.66683 4.00016V12.0002C2.66683 12.7365 3.26378 13.3335 4.00016 13.3335H12.0002C12.7365 13.3335 13.3335 12.7365 13.3335 12.0002V8.66683C13.3335 8.29864 13.632 8.00016 14.0002 8.00016C14.3684 8.00016 14.6668 8.29864 14.6668 8.66683V12.0002C14.6668 13.4729 13.4729 14.6668 12.0002 14.6668H4.00016C2.5274 14.6668 1.3335 13.4729 1.3335 12.0002V4.00016C1.3335 2.5274 2.5274 1.3335 4.00016 1.3335H8.60016Z" fill="#3699FF"/>
</svg>
