<svg width="493" height="235" viewBox="0 0 493 235" fill="none" xmlns="http://www.w3.org/2000/svg">
<path d="M507 104.188C507 114.198 498.955 122.312 489.031 122.312C479.107 122.312 471.062 114.198 471.062 104.188" stroke="#FFC700" stroke-width="13" stroke-linecap="round" stroke-linejoin="round"/>
<path d="M416.753 174.643C410.083 199.585 424.513 225.129 448.983 231.699C473.453 238.266 498.701 223.372 505.372 198.43C512.042 173.488 497.612 147.945 473.142 141.375" stroke="#6ED47C" stroke-width="13" stroke-linecap="round" stroke-linejoin="round"/>
<path d="M463.871 63.875C463.871 74.4028 472.269 82.9375 482.625 82.9375C492.981 82.9375 501.375 74.4028 501.375 63.875C501.375 53.3472 492.981 44.8125 482.625 44.8125H419.812" stroke="#6ED47C" stroke-width="13" stroke-linecap="round" stroke-linejoin="round"/>
<path d="M258.504 242.062C258.504 231.535 250.106 223 239.75 223C229.394 223 221 231.535 221 242.062C221 252.59 229.394 261.125 239.75 261.125H302.562" stroke="#6ED47C" stroke-width="13" stroke-linecap="round" stroke-linejoin="round"/>
<path d="M292.912 215.125C292.912 205.115 300.963 197 310.894 197C320.825 197 328.875 205.115 328.875 215.125C328.875 225.135 320.825 233.25 310.894 233.25H282.312" stroke="#FFC700" stroke-width="13" stroke-linecap="round" stroke-linejoin="round"/>
<path d="M475.326 19.1875C492.821 19.1875 507 4.77653 507 -13C507 -30.7765 492.821 -45.1875 475.326 -45.1875H392.312" stroke="white" stroke-width="13" stroke-linecap="round" stroke-linejoin="round"/>
<path d="M459.969 169.138C469.893 169.138 477.938 177.125 477.938 186.975C477.938 196.825 469.893 204.812 459.969 204.812C450.045 204.812 442 196.825 442 186.975V70.75" stroke="#F64E60" stroke-width="13" stroke-linecap="round" stroke-linejoin="round"/>
<path d="M325.438 180.75C325.438 162.456 340.077 147.625 358.136 147.625H415.75" stroke="#6ED47C" stroke-width="13" stroke-linecap="round" stroke-linejoin="round"/>
<path d="M419.812 71.375V88.1735C419.812 105.129 406.062 118.875 389.098 118.875H365.125" stroke="white" stroke-width="13" stroke-linecap="round" stroke-linejoin="round"/>
<path d="M477.938 -12.375H451.685C432.701 -12.375 417.312 3.1552 417.312 22.3125" stroke="#FFC700" stroke-width="13" stroke-linecap="round" stroke-linejoin="round"/>
<path d="M299.031 155.125C299.031 156.106 299.031 168.449 299.031 174.5" stroke="#FFC700" stroke-width="13" stroke-linecap="round" stroke-linejoin="round"/>
<path d="M398.813 -24.5625C398.813 -28.1524 395.902 -31.0625 392.313 -31.0625C388.723 -31.0625 385.813 -28.1524 385.813 -24.5625H398.813ZM356.556 85.2204C352.966 85.2204 350.056 88.1305 350.056 91.7204C350.056 95.3102 352.966 98.2204 356.556 98.2204V85.2204ZM305.125 126.75C301.535 126.75 298.625 129.66 298.625 133.25C298.625 136.84 301.535 139.75 305.125 139.75V126.75ZM351.3 101.981C351.3 98.3909 348.39 95.4808 344.8 95.4808C341.21 95.4808 338.3 98.3909 338.3 101.981H351.3ZM385.813 -24.5625V19.9158H398.813V-24.5625H385.813ZM385.813 19.9158C385.813 23.2742 383.056 26.0832 379.542 26.0832V39.0832C390.135 39.0832 398.813 30.5543 398.813 19.9158H385.813ZM379.542 26.0832C368.947 26.0832 360.272 34.6196 360.272 45.2554H373.272C373.272 41.8935 376.032 39.0832 379.542 39.0832V26.0832ZM360.272 45.2554V47.8838H373.272V45.2554H360.272ZM360.272 47.8838C360.272 58.5191 368.947 67.056 379.542 67.056V54.056C376.032 54.056 373.272 51.2454 373.272 47.8838H360.272ZM379.542 67.056C383.053 67.056 385.813 69.8664 385.813 73.2283H398.813C398.813 62.5925 390.138 54.056 379.542 54.056V67.056ZM385.813 73.2283V76.1382H398.813V73.2283H385.813ZM385.813 76.1382C385.813 81.1071 381.74 85.2204 376.61 85.2204V98.2204C388.825 98.2204 398.813 88.381 398.813 76.1382H385.813ZM376.61 85.2204H368.475V98.2204H376.61V85.2204ZM368.475 85.2204H356.556V98.2204H368.475V85.2204ZM305.125 139.75H313.493V126.75H305.125V139.75ZM313.493 139.75C334.366 139.75 351.3 122.848 351.3 101.981H338.3C338.3 115.653 327.201 126.75 313.493 126.75V139.75Z" fill="#F64E60"/>
<path fill-rule="evenodd" clip-rule="evenodd" d="M347.312 193.865C347.312 181.273 357.526 171.062 370.125 171.062V171.062C382.723 171.062 392.938 181.273 392.938 193.865V210.448C392.938 223.04 382.723 233.25 370.125 233.25V233.25C357.526 233.25 347.312 223.04 347.312 210.448V193.865Z" stroke="white" stroke-width="13" stroke-linecap="round" stroke-linejoin="round"/>
</svg>
