<svg width="36" height="36" viewBox="0 0 36 36" fill="none" xmlns="http://www.w3.org/2000/svg">
<path d="M27 32.4C24.9 30.6 13.65 30.45 9.45 31.8C8.55 32.1 7.65001 31.8 7.05001 31.2L3 27C6.3 23.7 16.2 22.65 23.7 23.7C24.3 27.45 25.5 30.75 27 32.4ZM28.2 4.2C27.6 3.6 26.7 3.30001 25.8 3.60001C21.6 4.95001 10.35 4.8 8.25 3C10.2 4.95 11.1 8.25 11.55 11.55C13.5 11.85 15.45 12 17.55 12C23.7 12 29.7 10.8 32.25 8.25L28.2 4.2Z" fill="white"/>
<path opacity="0.3" d="M31.7999 25.95C32.0999 26.85 31.7999 27.75 31.1999 28.35L26.9999 32.4C23.6999 29.1 22.6499 19.2 23.6999 11.7C27.4499 11.1 30.5999 10.05 32.2499 8.40001C30.5999 10.5 30.2999 21.75 31.7999 25.95ZM11.9999 17.55C11.9999 13.5 11.5499 6.3 8.24989 3L4.1999 7.2C3.5999 7.8 3.2999 8.70001 3.5999 9.60001C4.0499 11.1 4.4999 13.8 4.6499 17.55C4.6499 23.25 3.5999 26.4 3.1499 27C4.7999 25.35 7.9499 24.3 11.6999 23.7C11.9999 21.3 11.9999 19.05 11.9999 17.55Z" fill="white"/>
</svg>
