<svg width="36" height="36" viewBox="0 0 36 36" fill="none" xmlns="http://www.w3.org/2000/svg">
<path opacity="0.3" d="M3.1499 15C4.4999 8.4 10.0499 3.45 16.7999 3L13.1999 6.59999L16.6499 10.5C14.3999 10.95 12.4499 12.3 11.3999 14.4L6.74989 18.6L3.1499 15ZM28.9499 17.25L24.5999 21C23.5499 23.25 21.5999 24.9 19.0499 25.35L22.4999 29.25L18.8999 32.85C25.6499 32.4 31.1999 27.3 32.5499 20.85L28.9499 17.25Z" fill="white"/>
<path d="M20.7 3.1499C27.3 4.4999 32.25 10.0499 32.7 16.7999L29.1 13.1999L25.2 16.4999C24.75 14.0999 23.25 12.1499 21 11.0999L17.1 6.59991L20.7 3.1499ZM18.45 29.0999L14.55 24.5999C12.45 23.5499 10.95 21.5999 10.5 19.1999L6.59999 22.6499L3 19.0499C3.45 25.7999 8.55 31.3499 15 32.6999L18.45 29.0999Z" fill="white"/>
</svg>
