<svg width="35" height="36" viewBox="0 0 35 36" fill="none" xmlns="http://www.w3.org/2000/svg">
<path opacity="0.3" d="M12.8159 30.2399L10.3679 32.6879C9.79187 33.2639 8.92788 33.2639 8.35188 32.6879L5.90388 30.2399H12.8159ZM5.75988 23.1839L3.31188 25.632C2.73588 26.208 2.73588 27.0719 3.31188 27.6479L5.75988 30.096V23.1839ZM27.7919 13.2479L22.7519 8.20788C22.1759 7.63188 21.3119 7.63188 20.7359 8.20788L12.9599 15.9839V30.2399L27.7919 15.4079C28.3679 14.8319 28.3679 13.8239 27.7919 13.2479Z" fill="white"/>
<path d="M30.2401 21.5998V28.7998C30.2401 29.6638 29.6641 30.2398 28.8001 30.2398H16.9921L27.0721 20.1598H28.8001C29.6641 20.1598 30.2401 20.7358 30.2401 21.5998ZM14.4001 30.2398V5.75982C14.4001 4.89582 13.8241 4.31982 12.9601 4.31982H5.76007C4.89607 4.31982 4.32007 4.89582 4.32007 5.75982V30.2398C4.32007 31.1038 4.89607 31.6798 5.76007 31.6798H12.9601C13.8241 31.6798 14.4001 31.1038 14.4001 30.2398ZM10.8001 26.6398C10.8001 27.5038 10.2241 28.0798 9.36007 28.0798C8.49607 28.0798 7.92007 27.5038 7.92007 26.6398C7.92007 25.7758 8.49607 25.1998 9.36007 25.1998C10.2241 25.1998 10.8001 25.7758 10.8001 26.6398Z" fill="white"/>
</svg>
