<svg width="28" height="28" viewBox="0 0 28 28" fill="none" xmlns="http://www.w3.org/2000/svg">
<path fill-rule="evenodd" clip-rule="evenodd" d="M4.66675 11.2871L12.6937 15.9215C12.7802 15.9714 12.8708 16.0075 12.963 16.0303V25.0185L5.23923 20.4475C4.88439 20.2375 4.66675 19.8558 4.66675 19.4435V11.2871ZM23.3334 11.1641V19.4436C23.3334 19.8559 23.1158 20.2376 22.7609 20.4476L15.0371 25.0186V15.9517C15.0559 15.9423 15.0746 15.9323 15.0931 15.9216L23.3334 11.1641Z" fill="#8950FC"/>
<path opacity="0.3" fill-rule="evenodd" clip-rule="evenodd" d="M4.9187 9.03809C5.01675 8.91428 5.1405 8.80964 5.28478 8.73279L13.4514 4.38304C13.7943 4.20044 14.2055 4.20044 14.5483 4.38304L22.715 8.73279C22.8262 8.79203 22.9253 8.86778 23.0097 8.9561L14.0558 14.1256C13.997 14.1596 13.9427 14.1985 13.8932 14.2415C13.8437 14.1985 13.7894 14.1596 13.7306 14.1256L4.9187 9.03809Z" fill="#8950FC"/>
</svg>
