<svg width="32" height="32" viewBox="0 0 32 32" fill="none" xmlns="http://www.w3.org/2000/svg">
<path opacity="0.3" d="M16 6.08257L10.3577 12.8534C9.88624 13.4191 9.04549 13.4956 8.47979 13.0241C7.91409 12.5527 7.83765 11.712 8.30907 11.1463L14.9757 3.14626C15.5088 2.50659 16.4913 2.50659 17.0243 3.14626L23.691 11.1463C24.1624 11.712 24.086 12.5527 23.5203 13.0241C22.9546 13.4956 22.1138 13.4191 21.6424 12.8534L16 6.08257Z" fill="#50CD89"/>
<path fill-rule="evenodd" clip-rule="evenodd" d="M6.17905 12C5.46192 12 4.9779 12.7326 5.25918 13.3922L9.88924 24.2508C10.3607 25.3565 11.4468 26.0741 12.6488 26.0741H19.351C20.5532 26.0741 21.6393 25.3564 22.1107 24.2506L26.7398 13.3922C27.021 12.7325 26.537 12 25.8199 12H6.17905ZM18.6666 20.0001C18.6666 21.4728 17.4727 22.6667 15.9999 22.6667C14.5272 22.6667 13.3332 21.4728 13.3332 20.0001C13.3332 18.5273 14.5272 17.3334 15.9999 17.3334C17.4727 17.3334 18.6666 18.5273 18.6666 20.0001Z" fill="#50CD89"/>
</svg>
