<svg width="217" height="214" viewBox="0 0 217 214" fill="none" xmlns="http://www.w3.org/2000/svg">
<path d="M76.5306 83.9956C76.5306 83.9956 84.016 57.7226 57.2698 56.7606L56.7238 53.6406L48.4402 61.5316L57.3478 66.417L58.3644 63.0188C58.3644 63.0188 74.1698 65.8918 69.4586 80.4076L76.5306 83.9956Z" fill="#FFAD00"/>
<path d="M76.5306 84.3855C76.4692 84.3859 76.4085 84.3717 76.3538 84.3439L69.2818 80.7481C69.1989 80.7061 69.1339 80.6357 69.0986 80.5498C69.0633 80.4639 69.06 80.3682 69.0894 80.2801C70.3894 76.2423 70.2022 72.7531 68.507 69.9113C65.8186 65.4055 60.0882 63.8117 58.627 63.4711L57.7196 66.5235C57.7045 66.5813 57.6762 66.6349 57.637 66.68C57.5977 66.7251 57.5486 66.7605 57.4934 66.7835C57.4395 66.8051 57.3816 66.8147 57.3237 66.8115C57.2657 66.8084 57.2092 66.7926 57.158 66.7653L48.2504 61.8799C48.1963 61.8507 48.1499 61.8091 48.115 61.7584C48.0802 61.7078 48.0579 61.6495 48.0501 61.5886C48.0422 61.5276 48.0489 61.4656 48.0698 61.4078C48.0906 61.3499 48.1248 61.2979 48.1698 61.2559L56.4534 53.3623C56.5043 53.3137 56.5676 53.28 56.6364 53.2648C56.7051 53.2497 56.7767 53.2538 56.8434 53.2765C56.9098 53.2988 56.969 53.3385 57.0148 53.3916C57.0605 53.4447 57.0911 53.5091 57.1034 53.5781L57.5948 56.3939C65.3506 56.7345 70.9848 59.2539 74.3414 63.8637C80.2564 71.9991 77.0402 83.6237 76.8998 84.1151C76.8855 84.1722 76.8584 84.2252 76.8206 84.2703C76.7827 84.3153 76.7351 84.3512 76.6814 84.3751C76.6322 84.3882 76.581 84.3917 76.5306 84.3855ZM69.9396 80.2047L76.281 83.4287C76.801 81.1823 78.7692 71.2451 73.7226 64.3083C70.4596 59.8337 64.9216 57.4261 57.2568 57.1401C57.1673 57.1376 57.0816 57.1041 57.0142 57.0453C56.9468 56.9864 56.902 56.906 56.8876 56.8177L56.4664 54.4101L49.0954 61.4301L57.1138 65.8267L57.9796 62.9017C58.0069 62.8093 58.0674 62.7303 58.1495 62.6799C58.2316 62.6295 58.3294 62.6113 58.4242 62.6287C58.7284 62.6833 65.8992 64.0457 69.1648 69.5083C70.9484 72.4801 71.2006 76.0733 69.9396 80.2047Z" fill="black"/>
<path d="M75.1399 80.2594C75.1166 80.262 75.0931 80.262 75.0697 80.2594C74.9681 80.241 74.8779 80.1831 74.8189 80.0983C74.7599 80.0134 74.737 79.9087 74.7551 79.807C75.7197 74.4666 74.9242 69.94 72.397 66.3494C68.1746 60.3538 60.4786 59.0096 60.4006 58.9966C60.2971 58.9797 60.2046 58.9224 60.1435 58.8373C60.0823 58.7522 60.0574 58.6463 60.0743 58.5429C60.0912 58.4395 60.1484 58.347 60.2335 58.2858C60.3186 58.2246 60.4245 58.1997 60.528 58.2166C60.8582 58.2712 68.627 59.631 73.0366 65.8892C75.6885 69.6566 76.5257 74.3808 75.5221 79.9292C75.508 80.0206 75.4617 80.104 75.3917 80.1645C75.3217 80.225 75.2325 80.2586 75.1399 80.2594Z" fill="white"/>
<path d="M82.3285 82.056C82.2991 82.0585 82.2695 82.0585 82.2401 82.056C82.19 82.0443 82.1427 82.0229 82.1009 81.9929C82.0591 81.963 82.0236 81.925 81.9966 81.8813C81.9695 81.8375 81.9513 81.7889 81.9432 81.7381C81.935 81.6873 81.9369 81.6354 81.9489 81.5854C84.2317 72.0044 82.2947 66.2038 80.2693 63.024C78.0801 59.5894 75.3163 58.3882 75.2903 58.3752C75.2399 58.3577 75.1936 58.3301 75.1544 58.294C75.1151 58.258 75.0836 58.2142 75.0619 58.1656C75.0402 58.1169 75.0287 58.0642 75.0281 58.0109C75.0275 57.9576 75.0379 57.9047 75.0585 57.8556C75.0792 57.8064 75.1097 57.762 75.1482 57.7252C75.1867 57.6883 75.2323 57.6596 75.2823 57.6411C75.3323 57.6225 75.3856 57.6144 75.4388 57.6173C75.492 57.6201 75.5441 57.6338 75.5919 57.6576C75.7141 57.707 78.5767 58.942 80.8985 62.5586C83.0227 65.8684 85.0585 71.8874 82.7185 81.7674C82.6952 81.8522 82.6441 81.9268 82.5734 81.9791C82.5027 82.0314 82.4164 82.0585 82.3285 82.056Z" fill="black"/>
<path d="M55.3279 99.6608H20.5815C18.8057 99.6608 17.3679 97.9682 17.3679 95.883C16.7751 90.163 16.8193 84.0868 17.3679 77.7324C17.3679 75.6524 18.8057 73.9546 20.5815 73.9546H55.3279C57.1011 73.9546 58.5415 75.6472 58.5415 77.7324C59.3267 83.7571 59.3267 89.8583 58.5415 95.883C58.5415 97.9604 57.1011 99.6608 55.3279 99.6608Z" fill="#D9CFFF"/>
<path d="M55.3252 100.04H20.5814C18.6002 100.04 16.9882 98.181 16.9778 95.88C16.411 90.394 16.411 84.2736 16.9778 77.6956C16.9778 75.405 18.6002 73.5356 20.5814 73.5356H55.3252C57.3064 73.5356 58.9184 75.392 58.9314 77.68C59.7142 83.7215 59.7142 89.8386 58.9314 95.88C58.9184 98.194 57.3064 100.04 55.3252 100.04ZM20.5814 74.3442C19.0214 74.3442 17.7578 75.8652 17.7578 77.7242C17.7592 77.7355 17.7592 77.7468 17.7578 77.758C17.1936 84.3048 17.1936 90.3862 17.7578 95.8332C17.7592 95.8471 17.7592 95.861 17.7578 95.8748C17.7578 97.7416 19.024 99.2549 20.5814 99.2549H55.3252C56.8852 99.2549 58.1514 97.7339 58.1514 95.8748C58.1501 95.8575 58.1501 95.8402 58.1514 95.8228C58.9288 89.8324 58.9288 83.7667 58.1514 77.7762C58.1501 77.7589 58.1501 77.7416 58.1514 77.7242C58.1514 75.8574 56.8826 74.3442 55.3252 74.3442H20.5814Z" fill="black"/>
<path d="M16.949 88.4414C16.975 90.4001 17.0616 92.3215 17.209 94.2056C39.4416 96.5066 52.9564 95.6304 58.6426 94.9856C58.8575 93.1552 59.0005 91.3239 59.0716 89.4918C45.0278 90.413 30.9294 90.0615 16.949 88.4414Z" fill="#58298C"/>
<path d="M43.8128 96.096C36.9566 96.096 28.1244 95.7268 17.1758 94.5932C17.0853 94.5838 17.0009 94.543 16.9373 94.478C16.8737 94.4129 16.8348 94.3277 16.8274 94.237C16.674 92.3702 16.5856 90.4228 16.5674 88.4468C16.5668 88.3914 16.5781 88.3365 16.6005 88.2858C16.6229 88.2351 16.656 88.1898 16.6974 88.153C16.7386 88.1158 16.7873 88.0877 16.8402 88.0707C16.8931 88.0536 16.949 88.048 17.0042 88.0542C30.9594 89.6724 45.0321 90.0292 59.0514 89.1202C59.1058 89.1162 59.1603 89.1239 59.2114 89.1427C59.2625 89.1616 59.3091 89.1911 59.3478 89.2294C59.387 89.2675 59.4178 89.3132 59.4384 89.3638C59.459 89.4143 59.4689 89.4686 59.4674 89.5232C59.3972 91.3588 59.2516 93.2178 59.0384 95.0456C59.0274 95.1332 58.9874 95.2146 58.9247 95.2768C58.862 95.339 58.7803 95.3785 58.6926 95.3888C53.7496 95.8996 48.782 96.1357 43.8128 96.096ZM17.5788 93.8496C38.9508 96.0414 52.1588 95.303 58.2974 94.6296C58.4742 93.0696 58.599 91.4784 58.6692 89.908C44.8915 90.7755 31.0641 90.4275 17.3474 88.868C17.376 90.5736 17.454 92.2402 17.5788 93.8496Z" fill="black"/>
<path d="M25.5082 77.0197C25.423 77.0197 25.34 76.9924 25.2716 76.9417C17.612 71.1047 13.868 61.2039 12.074 53.9291C10.9002 49.1734 10.2034 44.3125 9.99395 39.4185C9.99223 39.3151 10.0317 39.2152 10.1036 39.1409C10.1755 39.0665 10.274 39.0238 10.3775 39.022C10.4809 39.0203 10.5808 39.0597 10.6551 39.1317C10.7295 39.2036 10.7722 39.3021 10.774 39.4055C10.774 39.6655 11.4058 65.4055 25.7396 76.3255C25.8041 76.3751 25.8516 76.4436 25.8753 76.5215C25.8989 76.5994 25.8976 76.6828 25.8716 76.7599C25.8455 76.837 25.7959 76.904 25.7298 76.9516C25.6637 76.9991 25.5844 77.0248 25.503 77.0249L25.5082 77.0197Z" fill="black"/>
<path d="M22.7186 82.1391C22.6919 82.1429 22.6647 82.1429 22.638 82.1391C13.2598 80.1813 7.86221 74.9605 4.98401 70.9201C1.86401 66.5443 0.972213 62.6833 0.935813 62.5221C0.924546 62.4721 0.923241 62.4204 0.931974 62.3699C0.940706 62.3193 0.959304 62.271 0.986706 62.2277C1.01411 62.1843 1.04978 62.1468 1.09168 62.1173C1.13358 62.0877 1.18089 62.0667 1.23091 62.0554C1.33193 62.0327 1.43786 62.051 1.52538 62.1063C1.56872 62.1337 1.60623 62.1694 1.63578 62.2113C1.66534 62.2532 1.68635 62.3005 1.69761 62.3505C1.69761 62.3895 2.59721 66.2505 5.63921 70.4937C8.43681 74.4067 13.6836 79.4663 22.7992 81.3617C22.9026 81.3721 22.9977 81.4231 23.0636 81.5035C23.1294 81.584 23.1605 81.6873 23.1502 81.7907C23.1399 81.8942 23.0889 81.9892 23.0084 82.0551C22.9279 82.1209 22.8246 82.1521 22.7212 82.1417L22.7186 82.1391Z" fill="black"/>
<path d="M52.3791 76.0656H33.5135C33.4101 76.0656 33.3109 76.0245 33.2378 75.9514C33.1646 75.8783 33.1235 75.7791 33.1235 75.6756C33.1235 75.5722 33.1646 75.473 33.2378 75.3999C33.3109 75.3267 33.4101 75.2856 33.5135 75.2856H52.3791C52.4826 75.2856 52.5818 75.3267 52.6549 75.3999C52.728 75.473 52.7691 75.5722 52.7691 75.6756C52.7691 75.7791 52.728 75.8783 52.6549 75.9514C52.5818 76.0245 52.4826 76.0656 52.3791 76.0656Z" fill="white"/>
<path d="M71.6396 215.35C71.5017 215.35 71.3695 215.296 71.2719 215.198C71.1744 215.101 71.1196 214.968 71.1196 214.83C71.1196 214.692 71.1744 214.56 71.2719 214.463C71.3695 214.365 71.5017 214.31 71.6396 214.31L217.697 213.424L217.619 50.0683C217.619 49.9304 217.674 49.7982 217.772 49.7006C217.869 49.6031 218.001 49.5483 218.139 49.5483C218.277 49.5483 218.409 49.6031 218.507 49.7006C218.604 49.7982 218.659 49.9304 218.659 50.0683L218.724 213.939C218.724 214.076 218.669 214.209 218.572 214.306C218.474 214.404 218.342 214.459 218.204 214.459L71.6422 215.35H71.6396Z" fill="black"/>
<path d="M20.8726 132.428C20.8726 132.428 21.806 126.752 30.1936 129.022C30.1936 129.022 32.9886 124.482 37.6478 126.752C42.307 129.022 46.9688 133.562 46.9688 133.562L33.9194 140.371H23.6598L20.8726 132.428Z" fill="#FFCDB2"/>
<path d="M33.9188 140.761H23.6592C23.5783 140.762 23.4993 140.737 23.4331 140.69C23.367 140.644 23.317 140.578 23.29 140.501L20.495 132.558C20.4723 132.497 20.466 132.431 20.4768 132.366C20.6236 131.696 20.9013 131.063 21.294 130.501C21.6867 129.939 22.1865 129.46 22.7648 129.093C24.5146 127.967 26.9534 127.793 30.0188 128.573C30.713 127.624 33.5418 124.322 37.8188 126.399C42.4806 128.669 47.0462 133.091 47.2386 133.279C47.2831 133.321 47.3168 133.374 47.3368 133.432C47.3568 133.491 47.3626 133.553 47.3537 133.614C47.3448 133.675 47.3215 133.733 47.2856 133.783C47.2498 133.833 47.2024 133.874 47.1476 133.903L34.1008 140.712C34.0449 140.743 33.9825 140.76 33.9188 140.761ZM23.9452 139.981H33.8252L46.3052 133.481C45.091 132.356 41.2612 128.955 37.4834 127.114C33.1882 125.034 30.635 129.064 30.5284 129.238C30.4847 129.31 30.419 129.365 30.3412 129.396C30.2634 129.427 30.1776 129.432 30.0968 129.41C27.138 128.609 24.8214 128.723 23.2146 129.75C22.2606 130.365 21.5715 131.315 21.2828 132.413L23.9452 139.981Z" fill="black"/>
<path d="M61.1512 153.429C61.1512 153.429 60.0436 152.469 48.8064 150.548C38.2972 148.751 21.431 148.452 17.1592 132.428C17.1592 132.428 19.9542 129.022 28.3392 134.698C36.7242 140.374 51.8666 132.878 47.4336 127.187C43.0006 121.495 38.5936 115.406 44.181 110.867C44.181 110.867 53.502 112 66.541 132.428L61.1512 153.429Z" fill="#FFCDB2"/>
<path d="M61.1517 153.818C61.0653 153.818 60.9812 153.79 60.9125 153.738C60.8241 153.678 59.2901 152.737 48.7419 150.932C47.4757 150.716 46.1263 150.524 44.6963 150.319C34.5303 148.86 20.6047 146.866 16.7697 132.529C16.753 132.47 16.7511 132.407 16.7643 132.346C16.7774 132.285 16.8051 132.229 16.8451 132.181C16.9673 132.03 19.9651 128.567 28.5451 134.375C34.4003 138.335 43.2169 135.694 46.4851 132.207C47.5693 131.05 48.5651 129.279 47.1195 127.428C43.2039 122.4 37.8427 115.499 43.9397 110.562C43.9799 110.529 44.0265 110.505 44.0766 110.49C44.1267 110.476 44.1792 110.472 44.2309 110.479C44.6209 110.526 53.8847 111.87 66.8795 132.217C66.909 132.262 66.9287 132.313 66.9372 132.366C66.9458 132.418 66.9429 132.473 66.9289 132.524L61.5417 153.524C61.5255 153.589 61.4932 153.648 61.4477 153.696C61.4021 153.745 61.345 153.78 61.2817 153.8C61.2398 153.814 61.1957 153.82 61.1517 153.818ZM17.5835 132.54C21.3665 146.177 34.3587 148.038 44.8081 149.536C46.2433 149.741 47.5979 149.934 48.8719 150.152C56.9891 151.541 59.8829 152.438 60.8917 152.856L66.1177 132.485C54.2773 114.002 45.5413 111.537 44.2777 111.272C39.4053 115.38 42.9569 120.798 47.7279 126.937C49.0955 128.697 48.8485 130.808 47.0493 132.73C43.6043 136.409 34.2963 139.196 28.1083 135.01C21.1637 130.322 18.2257 132.033 17.5835 132.54Z" fill="black"/>
<path d="M185.627 69.1417C191.24 69.1417 195.79 64.5914 195.79 58.9783C195.79 53.3652 191.24 48.8149 185.627 48.8149C180.013 48.8149 175.463 53.3652 175.463 58.9783C175.463 64.5914 180.013 69.1417 185.627 69.1417Z" fill="#6C32AD"/>
<path d="M185.639 48.82C188.302 48.8356 190.852 49.8955 192.741 51.7718C194.631 53.648 195.708 56.1908 195.742 58.8532C195.776 61.5157 194.764 64.0852 192.924 66.0091C191.083 67.9331 188.561 69.0579 185.899 69.1416H185.626C182.948 69.1502 180.375 68.1012 178.467 66.2229C176.558 64.3445 175.468 61.7886 175.434 59.1109C175.4 56.4332 176.424 53.8502 178.284 51.9236C180.144 49.9971 182.689 48.8826 185.366 48.8226H185.639V48.82ZM185.639 48.0426H185.346C182.46 48.1041 179.716 49.3031 177.711 51.3783C175.706 53.4536 174.601 56.2371 174.639 59.1227C174.676 62.0083 175.852 64.7622 177.911 66.7848C179.969 68.8074 182.743 69.9349 185.629 69.9216H185.923C188.791 69.8342 191.509 68.624 193.494 66.5516C195.478 64.4792 196.569 61.7105 196.532 58.8416C196.495 55.9727 195.332 53.2331 193.295 51.2129C191.258 49.1926 188.508 48.0532 185.639 48.04V48.0426Z" fill="black"/>
<path d="M182.114 91.5615C182.114 91.5615 182.374 101.962 189.812 100.165C197.251 98.3683 213.16 94.3617 216.889 105.472C220.617 116.581 219.364 118.716 227.614 118.927C235.864 119.137 250.044 133.895 231.657 147.93C213.27 161.964 167.237 101.46 167.237 101.46L168.661 95.1677L182.114 91.5615Z" fill="#6C32AD"/>
<path d="M182.114 91.5614C182.114 91.5614 182.327 100.373 188.166 100.373C188.721 100.369 189.274 100.299 189.812 100.165C193.34 99.3094 198.767 97.9626 203.896 97.9626C209.596 97.9626 214.926 99.624 216.896 105.471C220.622 116.584 219.372 118.716 227.621 118.926C235.871 119.137 250.052 133.895 231.664 147.929C229.753 149.388 227.541 150.041 225.118 150.041C204.206 150.041 167.244 101.46 167.244 101.46L168.669 95.1676L182.121 91.5614H182.114ZM182.121 90.7814C182.054 90.7809 181.986 90.7897 181.921 90.8074L168.469 94.4162C168.332 94.4528 168.207 94.5262 168.109 94.6284C168.01 94.7305 167.941 94.8576 167.91 94.996L166.482 101.288C166.457 101.399 166.457 101.515 166.481 101.626C166.505 101.737 166.554 101.842 166.623 101.933C173.23 110.43 180.29 118.564 187.774 126.3C194.687 133.385 201.088 139.04 206.793 143.091C214.013 148.223 220.175 150.826 225.11 150.826C227.793 150.826 230.154 150.061 232.13 148.553C236.264 145.4 239.059 141.994 240.45 138.432C241.655 135.446 241.767 132.132 240.767 129.072C238.703 122.694 232.317 118.282 227.645 118.152C221.506 117.996 221.212 117.008 219.325 110.591C218.87 109.059 218.355 107.32 217.653 105.23C215.838 99.8892 211.218 97.18 203.896 97.18C198.811 97.18 193.457 98.48 189.916 99.3328L189.63 99.403C189.151 99.5231 188.66 99.5859 188.166 99.5902C183.148 99.5902 182.896 91.6186 182.894 91.5302C182.888 91.3269 182.804 91.1339 182.658 90.992C182.512 90.8502 182.317 90.7709 182.114 90.771L182.121 90.7814Z" fill="black"/>
<path d="M233.599 146.333C231.878 129.23 204.544 111.672 195.816 109.085C187.088 106.498 176.552 102.299 174.966 98.6151C173.38 94.9309 179.571 93.2253 179.571 93.2253L177.715 92.7417L168.661 95.1675L167.237 101.46C167.237 101.46 213.27 161.964 231.659 147.929C232.351 147.399 232.996 146.866 233.599 146.333Z" fill="#59298F"/>
<path d="M146.483 75.4494C146.483 75.4494 142.708 66.8876 148.134 62.4338C153.56 57.98 154.827 59.176 157.531 56.6384C160.235 54.1008 167.309 53.6094 171.724 57.4964C171.724 57.4964 180.304 55.731 185.343 59.9092C190.382 64.0874 191.094 67.7664 190.618 73.0158C190.142 78.2652 190.829 81.0212 190.618 84.7158C190.408 88.4104 188.169 98.0382 172.954 98.7558C157.739 99.4734 146.483 75.4494 146.483 75.4494Z" fill="#6C32AD"/>
<path d="M163.76 54.657C166.482 54.657 169.454 55.4968 171.724 57.4962C173.122 57.2489 174.54 57.1297 175.959 57.14C178.843 57.14 182.613 57.66 185.343 59.922C190.381 64.1028 191.094 67.7792 190.618 73.0286C190.142 78.278 190.829 81.034 190.618 84.7286C190.408 88.4232 188.169 98.051 172.954 98.7686C172.735 98.7686 172.514 98.7842 172.296 98.7842C157.413 98.7842 146.483 75.4674 146.483 75.4674C146.483 75.4674 142.708 66.9056 148.134 62.4518C153.56 57.998 154.827 59.194 157.531 56.6564C158.846 55.4266 161.191 54.6752 163.771 54.6752L163.76 54.657ZM163.771 53.8952C161.002 53.8952 158.472 54.7142 157.011 56.0896C155.908 57.1296 155.102 57.4624 153.989 57.933C152.546 58.544 150.75 59.3032 147.653 61.8486C145.222 63.8428 144.135 66.9056 144.51 70.7068C144.688 72.451 145.117 74.1604 145.784 75.782V75.8002C147.843 79.9814 150.329 83.9388 153.201 87.6094C155.916 91.0518 158.721 93.8026 161.542 95.7786C165.125 98.2902 168.744 99.5642 172.301 99.5642C172.533 99.5642 172.766 99.5642 172.995 99.5486C179.781 99.234 184.836 97.1592 188.016 93.3814C190.032 90.9511 191.216 87.9386 191.396 84.7858C191.461 83.2752 191.441 81.7622 191.336 80.254C191.167 77.8729 191.185 75.4822 191.39 73.104C191.882 67.7038 191.13 63.718 185.837 59.324C182.886 56.8748 178.835 56.3626 175.957 56.3626C174.612 56.3611 173.27 56.4671 171.942 56.6798C169.753 54.8806 166.862 53.8926 163.755 53.8926L163.771 53.8952Z" fill="black"/>
<path d="M160.16 97.8484L155.537 109.369C155.537 109.369 156.057 116.714 174.044 105.989C174.044 105.989 172.151 101.613 173.212 90.4098C173.212 90.4098 178.178 91.819 179.602 87.4666C181.027 83.1142 178.191 80.7274 175.728 80.7924C175.728 80.7924 165.588 81.9858 166.314 62.5586C166.314 62.5586 156.738 61.5784 150.768 68.822C144.799 76.0656 141.372 86.32 146.153 92.3572C150.935 98.3944 160.16 97.8484 160.16 97.8484Z" fill="#FFCDB2"/>
<path d="M165.138 62.5246C165.879 62.5246 166.314 62.5688 166.314 62.5688C165.674 79.8718 173.643 80.8182 175.393 80.8182C175.505 80.8195 175.617 80.8143 175.728 80.8026H175.827C178.266 80.8026 181.009 83.1842 179.602 87.4768C178.736 90.1184 176.568 90.6358 174.995 90.6358C174.394 90.6378 173.795 90.5653 173.211 90.42C172.151 101.623 174.043 105.999 174.043 105.999C166.454 110.518 161.974 111.826 159.33 111.826C155.706 111.826 155.537 109.369 155.537 109.369L160.159 97.8482C160.159 97.8482 159.941 97.8612 159.548 97.8612C157.414 97.8612 150.188 97.4686 146.153 92.3674C141.372 86.3302 144.799 76.0758 150.768 68.8322C155.479 63.12 162.401 62.5246 165.138 62.5246ZM165.138 61.7446C162.278 61.7446 155.069 62.3868 150.165 68.3356C146.983 72.1992 144.674 76.6556 143.665 80.8728C142.513 85.7088 143.161 89.8506 145.537 92.851C149.492 97.8456 156.285 98.558 159 98.6334L154.806 109.078C154.762 109.187 154.743 109.306 154.751 109.423C154.829 110.523 155.882 112.606 159.325 112.606C162.767 112.606 167.822 110.609 174.436 106.67C174.599 106.573 174.721 106.42 174.779 106.24C174.838 106.059 174.828 105.864 174.753 105.69C174.738 105.651 173.055 101.53 173.906 91.3456C174.265 91.3916 174.627 91.4151 174.99 91.4158C177.657 91.4158 179.558 90.1158 180.338 87.7212C181.048 85.5528 180.858 83.543 179.774 82.061C179.322 81.434 178.729 80.9226 178.042 80.5684C177.355 80.2141 176.594 80.0272 175.822 80.0226H175.702H175.632C175.551 80.0268 175.469 80.0268 175.388 80.0226C174.608 80.0226 172.613 79.8146 170.765 77.8958C168.092 75.1216 166.821 69.8358 167.088 62.5818C167.096 62.3833 167.028 62.1894 166.897 62.0397C166.767 61.8899 166.584 61.7955 166.386 61.7758C166.368 61.7758 165.905 61.729 165.133 61.729L165.138 61.7446Z" fill="black"/>
<path d="M159.624 98.5424C159.429 98.5424 159.231 98.5424 159.039 98.5216C158.935 98.5144 158.839 98.4664 158.771 98.3881C158.703 98.3099 158.669 98.2078 158.676 98.1043C158.683 98.0009 158.731 97.9046 158.81 97.8366C158.888 97.7685 158.99 97.7344 159.093 97.7416C161.868 97.9392 165.175 96.4417 165.206 96.4417C165.253 96.4162 165.304 96.4007 165.358 96.396C165.411 96.3914 165.464 96.3977 165.515 96.4145C165.566 96.4314 165.612 96.4585 165.652 96.4941C165.692 96.5298 165.724 96.5732 165.746 96.6217C165.768 96.6702 165.781 96.7227 165.782 96.7761C165.783 96.8295 165.773 96.8825 165.753 96.9319C165.733 96.9814 165.703 97.0261 165.664 97.0634C165.626 97.1007 165.581 97.1298 165.531 97.1489C165.398 97.2035 162.44 98.5424 159.624 98.5424Z" fill="black"/>
<path d="M174.384 88.6208C174.316 88.6207 174.25 88.6031 174.191 88.5699C174.132 88.5366 174.083 88.4888 174.048 88.431C173.996 88.3423 173.981 88.2365 174.006 88.1366C174.031 88.0368 174.095 87.951 174.184 87.898C175.616 87.04 176.352 86.1482 176.373 85.246C176.401 83.9642 174.961 83.0022 174.948 82.9918C174.865 82.9336 174.808 82.8456 174.789 82.7463C174.77 82.6469 174.79 82.5441 174.846 82.4594C174.901 82.3747 174.987 82.3148 175.086 82.2924C175.184 82.27 175.288 82.2868 175.374 82.3392C175.45 82.3886 177.194 83.5456 177.153 85.259C177.127 86.4498 176.264 87.5626 174.584 88.5662C174.524 88.6032 174.454 88.6221 174.384 88.6208Z" fill="black"/>
<path d="M159.574 74.5132C163.844 77.5422 171.069 78.2156 171.436 80.3606C171.802 82.5056 170 84.4036 167.216 83.8628C164.431 83.322 161.933 82.152 156.933 79.513C151.933 76.874 147.237 73.9152 149.018 71.4036C150.799 68.892 153.295 70.0594 159.574 74.5132Z" fill="#FFB49F"/>
<path d="M156.319 69.3838C156.231 69.3841 156.146 69.3548 156.077 69.3005C156.008 69.2461 155.959 69.1701 155.938 69.0846C155.918 68.9991 155.927 68.9092 155.964 68.8295C156.001 68.7498 156.064 68.6849 156.142 68.6454C157.275 68.1342 158.532 67.9652 159.759 68.1592C159.81 68.1674 159.858 68.1855 159.902 68.2127C159.946 68.2398 159.983 68.2753 160.013 68.3171C160.043 68.359 160.064 68.4064 160.075 68.4565C160.087 68.5066 160.088 68.5584 160.079 68.609C160.06 68.7104 160.003 68.8006 159.919 68.8604C159.835 68.9201 159.731 68.9447 159.629 68.9288C158.565 68.7686 157.477 68.9119 156.491 69.3422C156.438 69.3696 156.379 69.3839 156.319 69.3838Z" fill="black"/>
<path d="M168.394 75.6211C168.307 75.6211 168.224 75.5925 168.156 75.5398C168.087 75.4871 168.039 75.4133 168.017 75.3299C167.991 75.2363 167.398 73.0705 165.469 73.0705H165.419C165.316 73.0705 165.217 73.0294 165.144 72.9563C165.07 72.8832 165.029 72.784 165.029 72.6805C165.029 72.5771 165.07 72.4779 165.144 72.4048C165.217 72.3316 165.316 72.2905 165.419 72.2905H165.477C167.504 72.2905 168.521 74.1443 168.778 75.1323C168.805 75.2323 168.79 75.3386 168.738 75.4278C168.686 75.517 168.6 75.5819 168.5 75.6081C168.465 75.6167 168.43 75.6211 168.394 75.6211Z" fill="black"/>
<path d="M160.615 90.2096C159.361 90.2072 158.147 89.7656 157.185 88.9616C157.113 88.89 157.071 88.7927 157.069 88.6908C157.067 88.5888 157.106 88.4901 157.176 88.416C157.246 88.3418 157.342 88.2981 157.444 88.2941C157.546 88.2902 157.645 88.3263 157.721 88.3948C157.83 88.4962 160.391 90.8258 163.995 88.1868C164.078 88.1254 164.183 88.0997 164.285 88.1153C164.387 88.1309 164.479 88.1865 164.541 88.27C164.602 88.3534 164.628 88.4578 164.612 88.5602C164.597 88.6626 164.541 88.7546 164.458 88.816C163.02 89.8638 161.72 90.2096 160.615 90.2096Z" fill="black"/>
<path d="M176.324 80.8129C174.869 80.8486 173.425 80.5571 172.098 79.96C172.052 79.9377 172.011 79.9065 171.977 79.8681C171.943 79.8298 171.917 79.7852 171.9 79.7368C171.883 79.6884 171.876 79.6372 171.879 79.586C171.882 79.5349 171.895 79.4848 171.918 79.4387C171.94 79.3926 171.971 79.3514 172.01 79.3174C172.048 79.2834 172.093 79.2572 172.141 79.2404C172.189 79.2236 172.241 79.2166 172.292 79.2196C172.343 79.2226 172.393 79.2357 172.439 79.258C176.227 81.0989 181.971 79.0552 182.028 79.0344C182.123 79.0083 182.224 79.0192 182.312 79.0648C182.399 79.1103 182.466 79.1873 182.499 79.2802C182.532 79.373 182.528 79.4749 182.489 79.5653C182.45 79.6558 182.378 79.728 182.288 79.7676C180.366 80.4234 178.354 80.776 176.324 80.8129Z" fill="black"/>
<path d="M176.586 78.7203C176.551 78.7202 176.516 78.7149 176.482 78.7047C167.252 76.1047 168.773 65.9361 168.788 65.8321C168.805 65.7286 168.862 65.636 168.947 65.5746C169.032 65.5131 169.137 65.4879 169.241 65.5045C169.344 65.521 169.437 65.578 169.498 65.6628C169.56 65.7477 169.585 65.8534 169.568 65.9569C169.506 66.3469 168.149 75.5457 176.703 77.9533C176.795 77.9776 176.875 78.0349 176.928 78.1143C176.981 78.1936 177.003 78.2896 176.99 78.384C176.976 78.4785 176.929 78.5648 176.857 78.6268C176.784 78.6887 176.692 78.722 176.596 78.7203H176.586Z" fill="white"/>
<path d="M199.398 55.9233H199.32C199.27 55.9134 199.222 55.8936 199.18 55.865C199.137 55.8364 199.1 55.7997 199.072 55.7568C199.044 55.714 199.024 55.666 199.015 55.6156C199.005 55.5652 199.006 55.5133 199.016 55.4631C199.466 53.2453 199.167 51.3343 198.13 49.7769C196.273 46.9949 192.633 46.2513 192.597 46.2435C192.545 46.2358 192.495 46.2175 192.45 46.1898C192.405 46.1622 192.366 46.1257 192.335 46.0825C192.305 46.0394 192.284 45.9906 192.273 45.939C192.262 45.8874 192.261 45.8341 192.272 45.7823C192.282 45.7305 192.302 45.6814 192.332 45.6378C192.362 45.5942 192.4 45.5572 192.445 45.5288C192.489 45.5005 192.539 45.4815 192.591 45.4729C192.643 45.4644 192.696 45.4665 192.748 45.4791C192.909 45.5103 196.733 46.2851 198.774 49.3401C199.934 51.0743 200.272 53.1881 199.778 55.6191C199.759 55.7056 199.711 55.7829 199.642 55.8382C199.573 55.8936 199.487 55.9236 199.398 55.9233Z" fill="black"/>
<path d="M154.479 82.3315C154.383 82.3304 154.29 82.2943 154.219 82.2301C154.181 82.1954 154.15 82.1536 154.129 82.107C154.107 82.0605 154.095 82.0101 154.093 81.9588C154.091 81.9075 154.099 81.8564 154.117 81.8083C154.135 81.7603 154.163 81.7162 154.198 81.6789L159.941 75.4649C159.973 75.4191 160.014 75.3806 160.062 75.352C160.109 75.3234 160.163 75.3053 160.218 75.2989C160.273 75.2926 160.329 75.2981 160.382 75.3152C160.435 75.3322 160.483 75.3604 160.525 75.3978C160.566 75.4352 160.598 75.481 160.62 75.5321C160.642 75.5831 160.653 75.6383 160.652 75.6939C160.651 75.7495 160.638 75.8042 160.614 75.8544C160.59 75.9046 160.556 75.9491 160.513 75.9849L154.77 82.1989C154.734 82.2403 154.689 82.2735 154.639 82.2964C154.588 82.3193 154.534 82.3312 154.479 82.3315Z" fill="black"/>
<path d="M193.039 60.0964H193.021C192.919 60.089 192.824 60.0422 192.757 59.9659C192.689 59.8896 192.654 59.7899 192.659 59.6882C192.774 57.2936 192.178 55.4372 190.894 54.171C188.796 52.104 185.507 52.2834 185.473 52.286C185.422 52.2892 185.37 52.2823 185.322 52.2657C185.273 52.2491 185.228 52.2231 185.19 52.1892C185.112 52.1207 185.065 52.0241 185.058 51.9207C185.052 51.8172 185.086 51.7154 185.155 51.6377C185.223 51.5599 185.32 51.5125 185.423 51.506C185.572 51.506 189.084 51.2954 191.437 53.6094C192.891 55.0368 193.564 57.0934 193.439 59.722C193.435 59.8243 193.39 59.9207 193.315 59.9906C193.24 60.0606 193.141 60.0985 193.039 60.0964Z" fill="white"/>
<path d="M153.927 75.114C154.527 75.114 155.014 74.6275 155.014 74.0272C155.014 73.427 154.527 72.9404 153.927 72.9404C153.327 72.9404 152.84 73.427 152.84 74.0272C152.84 74.6275 153.327 75.114 153.927 75.114Z" fill="black"/>
<path d="M164.587 81.094C165.188 81.094 165.674 80.6074 165.674 80.0072C165.674 79.407 165.188 78.9204 164.587 78.9204C163.987 78.9204 163.5 79.407 163.5 80.0072C163.5 80.6074 163.987 81.094 164.587 81.094Z" fill="black"/>
<path d="M128.497 125.757C128.497 125.757 129.506 97.2505 99.2546 88.4053C99.2546 88.4053 94.2132 94.3021 103.287 103.15C103.287 103.15 97.237 106.098 99.2546 111.012C99.2546 111.012 95.2194 115.929 99.2546 118.877C103.29 121.826 104.26 125.551 110.827 128.12C117.395 130.689 128.497 125.757 128.497 125.757Z" fill="#FFCDB2"/>
<path d="M115.375 129.246C113.78 129.275 112.194 129.011 110.695 128.466C106.41 126.797 104.455 124.631 102.554 122.538C101.475 121.347 100.459 120.224 99.0311 119.181C97.9157 118.365 97.2709 117.33 97.1149 116.105C96.8185 113.82 98.3265 111.597 98.7997 110.96C97.2397 106.738 101.226 103.914 102.635 103.072C98.1679 98.5632 97.3515 94.8192 97.4685 92.4506C97.5985 89.7674 98.8933 88.2256 98.9479 88.1606C98.9965 88.1033 99.0608 88.0614 99.1328 88.0401C99.2049 88.0189 99.2816 88.0192 99.3535 88.041C115.125 92.6534 122.314 102.666 125.569 110.255C129.092 118.474 128.879 125.71 128.877 125.783C128.873 125.856 128.85 125.926 128.809 125.987C128.768 126.048 128.712 126.096 128.645 126.126C128.294 126.274 121.498 129.246 115.375 129.246ZM99.4003 88.86C98.6411 89.9338 95.6771 95.191 103.56 102.874C103.605 102.918 103.639 102.971 103.658 103.031C103.677 103.09 103.682 103.153 103.672 103.215C103.663 103.277 103.639 103.335 103.602 103.386C103.565 103.436 103.516 103.476 103.459 103.503C103.225 103.618 97.7623 106.363 99.6161 110.869C99.6422 110.934 99.6504 111.005 99.6399 111.075C99.6294 111.144 99.6005 111.21 99.5563 111.264C99.5355 111.29 97.5855 113.706 97.8819 116.025C97.9554 116.537 98.1359 117.029 98.4119 117.467C98.6878 117.905 99.053 118.28 99.4835 118.568C100.973 119.657 102.068 120.863 103.124 122.031C104.959 124.056 106.855 126.152 110.97 127.751C116.807 130.023 126.5 126.175 128.11 125.502C128.11 124.184 127.951 117.743 124.849 110.526C121.68 103.139 114.688 93.41 99.4003 88.86Z" fill="black"/>
<path d="M42.3792 135.569H42.3584C37.0882 135.27 30.2762 129.625 29.9876 129.384C29.9483 129.351 29.9159 129.31 29.8922 129.265C29.8686 129.219 29.8541 129.17 29.8496 129.119C29.8452 129.068 29.8508 129.016 29.8662 128.967C29.8816 128.918 29.9065 128.873 29.9395 128.834C29.9724 128.794 30.0128 128.762 30.0582 128.738C30.1037 128.715 30.1534 128.7 30.2045 128.696C30.2555 128.691 30.307 128.697 30.3558 128.712C30.4047 128.728 30.4501 128.753 30.4894 128.786C30.557 128.843 37.3898 134.506 42.4 134.792C42.5034 134.794 42.6015 134.838 42.6727 134.913C42.7439 134.988 42.7823 135.089 42.7796 135.192C42.7768 135.295 42.7331 135.394 42.658 135.465C42.5829 135.536 42.4826 135.574 42.3792 135.572V135.569Z" fill="black"/>
<path d="M106.539 117.796C106.458 117.797 106.379 117.772 106.313 117.725C106.246 117.679 106.196 117.612 106.17 117.536C106.157 117.499 104.891 113.812 98.9812 111.277C98.886 111.237 98.8109 111.16 98.7724 111.064C98.7339 110.968 98.7351 110.86 98.7758 110.765C98.8165 110.67 98.8933 110.595 98.9894 110.556C99.0854 110.518 99.1928 110.519 99.288 110.56C105.559 113.235 106.859 117.122 106.911 117.286C106.927 117.335 106.932 117.387 106.928 117.439C106.923 117.49 106.908 117.54 106.884 117.586C106.86 117.632 106.827 117.672 106.787 117.705C106.747 117.738 106.701 117.763 106.651 117.777C106.615 117.789 106.577 117.795 106.539 117.796Z" fill="black"/>
<path d="M112.959 110.575C112.883 110.575 112.809 110.553 112.746 110.511C112.683 110.47 112.633 110.411 112.603 110.341C110.484 105.524 103.305 103.602 103.243 103.581C103.193 103.568 103.147 103.546 103.106 103.515C103.065 103.484 103.03 103.445 103.004 103.401C102.978 103.356 102.961 103.307 102.954 103.256C102.947 103.206 102.95 103.154 102.963 103.104C102.976 103.055 102.999 103.008 103.03 102.967C103.061 102.926 103.1 102.892 103.144 102.866C103.188 102.84 103.237 102.823 103.288 102.816C103.339 102.809 103.391 102.812 103.44 102.825C103.75 102.905 111.056 104.858 113.32 110.027C113.342 110.074 113.355 110.125 113.356 110.177C113.358 110.229 113.349 110.281 113.331 110.329C113.312 110.378 113.284 110.422 113.248 110.459C113.211 110.497 113.168 110.526 113.12 110.547C113.069 110.568 113.014 110.578 112.959 110.575Z" fill="black"/>
<path d="M134.877 117.663C152.754 107.471 174.823 99.0833 191.765 111.314C208.706 123.544 218.449 144.573 218.449 144.573V214.295L141.026 214.339C141.026 214.339 135.909 187.093 138.166 157.737C138.166 157.737 128.673 161.852 117.379 165.537C106.084 169.221 73.8887 177.611 68.2389 155.594L59.2039 153.148C59.2039 153.148 64.8511 139.693 65.9795 129.909L75.0145 132.353C75.0145 132.353 76.1429 121.345 88.5657 126.238C100.988 131.131 113.419 129.896 134.877 117.663Z" fill="#FFAD00"/>
<path d="M141.026 214.729C140.935 214.728 140.847 214.697 140.777 214.639C140.707 214.581 140.659 214.501 140.641 214.411C140.592 214.151 135.616 187.179 137.732 158.345C135.478 159.299 127.093 162.765 117.501 165.885C112.156 167.624 101.641 170.565 91.6001 170.565C86.2077 170.565 80.9557 169.72 76.7125 167.388C72.2613 164.938 69.3051 161.075 67.9245 155.901L59.1079 153.514C59.0548 153.5 59.0052 153.475 58.9625 153.44C58.9199 153.405 58.8851 153.362 58.8605 153.313C58.8359 153.264 58.822 153.21 58.8199 153.155C58.8177 153.1 58.8273 153.045 58.8479 152.994C58.9025 152.861 64.4847 139.474 65.5949 129.854C65.6012 129.798 65.6194 129.745 65.6485 129.697C65.6775 129.649 65.7166 129.607 65.7631 129.576C65.8096 129.545 65.8623 129.524 65.9177 129.515C65.973 129.506 66.0297 129.509 66.0837 129.524L74.6975 131.864C74.9133 130.67 75.7375 127.444 78.5975 125.702C81.1195 124.168 84.5229 124.225 88.7089 125.876C92.9423 127.585 97.4636 128.467 102.029 128.476C111.241 128.476 121.396 124.893 134.677 117.325C145.613 111.085 155.071 107.289 163.594 105.697C174.694 103.617 184.246 105.409 191.986 110.999C208.816 123.149 218.699 144.198 218.797 144.409C218.821 144.46 218.833 144.516 218.834 144.573V214.294C218.834 214.398 218.793 214.497 218.719 214.57C218.646 214.643 218.547 214.684 218.444 214.684L141.026 214.729ZM138.166 157.346C138.247 157.346 138.327 157.371 138.392 157.419C138.447 157.458 138.491 157.51 138.519 157.571C138.547 157.631 138.559 157.698 138.554 157.765C136.455 185.042 140.792 210.805 141.349 213.949L218.049 213.904V144.661C217.38 143.257 207.675 123.292 191.529 111.641C178.1 101.922 159.621 104.007 135.07 118.001L134.875 117.663L135.07 118.001C124.41 124.079 115.931 127.496 108.401 128.749C101.459 129.906 95.1127 129.22 88.4307 126.588C84.4813 125.028 81.3093 124.953 79.0083 126.354C75.8649 128.268 75.4125 132.334 75.4073 132.381C75.4018 132.437 75.384 132.492 75.3553 132.54C75.3266 132.589 75.2875 132.631 75.241 132.663C75.1944 132.695 75.1414 132.716 75.0857 132.725C75.03 132.735 74.973 132.732 74.9185 132.717L66.3177 130.39C65.2023 139.107 60.6731 150.573 59.7371 152.874L68.3457 155.214C68.4122 155.233 68.4726 155.269 68.521 155.318C68.5693 155.367 68.6039 155.428 68.6213 155.495C69.9213 160.563 72.7813 164.335 77.0895 166.712C88.9559 173.238 109.137 167.801 117.262 165.152C128.406 161.53 137.919 157.419 138.013 157.378C138.062 157.357 138.115 157.347 138.169 157.346H138.166Z" fill="black"/>
<path d="M75.0278 132.696L66.2996 130.333C65.2024 139.836 59.719 152.906 59.719 152.906L68.299 155.225C68.3406 155.165 68.3848 155.108 68.4264 155.046C73.2598 147.766 75.1396 132.946 75.1396 132.946L75.0278 132.696Z" fill="#E89D00"/>
<path d="M113.372 107.081C113.372 107.081 99.2541 109.047 102.278 118.877C102.278 118.877 105.304 120.843 113.372 115.929" fill="#FFCDB2"/>
<path d="M104.244 119.655C102.793 119.655 102.125 119.241 102.068 119.205C101.99 119.156 101.933 119.08 101.907 118.992C101.142 116.514 101.369 114.293 102.578 112.398C105.482 107.835 112.998 106.74 113.318 106.694C113.422 106.679 113.526 106.707 113.609 106.77C113.693 106.833 113.747 106.927 113.761 107.03C113.776 107.134 113.748 107.239 113.685 107.322C113.622 107.405 113.528 107.459 113.425 107.474C113.352 107.474 105.945 108.563 103.233 112.824C102.18 114.478 101.969 116.423 102.604 118.609C103.209 118.869 106.311 119.777 113.17 115.601C113.214 115.572 113.263 115.552 113.314 115.543C113.366 115.533 113.419 115.534 113.47 115.546C113.521 115.557 113.57 115.579 113.612 115.609C113.655 115.64 113.691 115.679 113.718 115.723C113.746 115.768 113.764 115.818 113.771 115.87C113.779 115.922 113.776 115.975 113.762 116.025C113.749 116.076 113.726 116.124 113.694 116.165C113.661 116.207 113.621 116.241 113.576 116.267C109.044 119.02 106.043 119.652 104.244 119.655Z" fill="black"/>
<path d="M134.407 127.502C135.664 127.502 136.684 126.482 136.684 125.224C136.684 123.966 135.664 122.946 134.407 122.946C133.149 122.946 132.129 123.966 132.129 125.224C132.129 126.482 133.149 127.502 134.407 127.502Z" fill="#FFC140"/>
<path d="M118.18 142.477C119.34 142.477 120.28 141.457 120.28 140.199C120.28 138.942 119.34 137.922 118.18 137.922C117.019 137.922 116.079 138.942 116.079 140.199C116.079 141.457 117.019 142.477 118.18 142.477Z" fill="#FFC140"/>
<path d="M138 151.161C139.257 151.161 140.277 150.141 140.277 148.884C140.277 147.626 139.257 146.606 138 146.606C136.742 146.606 135.722 147.626 135.722 148.884C135.722 150.141 136.742 151.161 138 151.161Z" fill="#FFC140"/>
<path d="M97.4426 161.645C98.6028 161.645 99.5434 160.625 99.5434 159.367C99.5434 158.109 98.6028 157.089 97.4426 157.089C96.2824 157.089 95.3418 158.109 95.3418 159.367C95.3418 160.625 96.2824 161.645 97.4426 161.645Z" fill="#FFC140"/>
<path d="M87.487 140.379C88.6473 140.379 89.5878 139.359 89.5878 138.101C89.5878 136.843 88.6473 135.824 87.487 135.824C86.3268 135.824 85.3862 136.843 85.3862 138.101C85.3862 139.359 86.3268 140.379 87.487 140.379Z" fill="#FFC140"/>
<path d="M170.944 126.003C172.202 126.003 173.222 124.984 173.222 123.726C173.222 122.468 172.202 121.448 170.944 121.448C169.686 121.448 168.667 122.468 168.667 123.726C168.667 124.984 169.686 126.003 170.944 126.003Z" fill="#FFC140"/>
<path d="M202.69 142.776C203.948 142.776 204.968 141.757 204.968 140.499C204.968 139.241 203.948 138.221 202.69 138.221C201.433 138.221 200.413 139.241 200.413 140.499C200.413 141.757 201.433 142.776 202.69 142.776Z" fill="#FFC140"/>
<path d="M177.533 181.111C178.791 181.111 179.81 180.091 179.81 178.833C179.81 177.575 178.791 176.556 177.533 176.556C176.275 176.556 175.255 177.575 175.255 178.833C175.255 180.091 176.275 181.111 177.533 181.111Z" fill="#FFC140"/>
<path d="M202.69 196.084C203.948 196.084 204.968 195.064 204.968 193.806C204.968 192.549 203.948 191.529 202.69 191.529C201.433 191.529 200.413 192.549 200.413 193.806C200.413 195.064 201.433 196.084 202.69 196.084Z" fill="#FFC140"/>
<path d="M154.772 205.668C156.03 205.668 157.05 204.648 157.05 203.39C157.05 202.132 156.03 201.112 154.772 201.112C153.514 201.112 152.495 202.132 152.495 203.39C152.495 204.648 153.514 205.668 154.772 205.668Z" fill="#FFC140"/>
<path d="M172.442 153.257C173.7 153.257 174.72 152.237 174.72 150.979C174.72 149.721 173.7 148.702 172.442 148.702C171.184 148.702 170.164 149.721 170.164 150.979C170.164 152.237 171.184 153.257 172.442 153.257Z" fill="#FFC140"/>
<path d="M36.961 153.062C26.5948 153.062 20.1182 147.919 16.4652 143.497C13.9569 140.48 12.0433 137.014 10.8258 133.284C10.8081 133.234 10.801 133.181 10.8047 133.127C10.8084 133.074 10.8229 133.023 10.8474 132.975C10.8718 132.928 10.9057 132.886 10.9469 132.853C10.9881 132.819 11.0357 132.794 11.0869 132.78C11.1381 132.765 11.1917 132.761 11.2445 132.768C11.2972 132.775 11.348 132.793 11.3937 132.82C11.4394 132.847 11.479 132.883 11.5101 132.927C11.5412 132.97 11.5632 133.019 11.5746 133.071C12.781 136.699 14.6489 140.073 17.084 143.021C22.4582 149.521 29.5978 152.625 38.2818 152.256C38.333 152.254 38.3842 152.262 38.4323 152.279C38.4805 152.297 38.5247 152.324 38.5625 152.359C38.6003 152.393 38.6309 152.435 38.6525 152.481C38.6742 152.528 38.6865 152.578 38.6887 152.629C38.6909 152.681 38.683 152.732 38.6655 152.78C38.6479 152.828 38.6211 152.872 38.5864 152.91C38.5518 152.948 38.51 152.978 38.4636 153C38.4171 153.022 38.3668 153.034 38.3156 153.036C37.858 153.054 37.4056 153.062 36.961 153.062Z" fill="black"/>
<path d="M138.034 158.127C137.94 158.126 137.85 158.092 137.779 158.03C137.709 157.968 137.663 157.883 137.65 157.791C137.637 157.698 137.658 157.603 137.709 157.525C137.76 157.446 137.837 157.389 137.927 157.362C138.018 157.334 147.287 154.64 154.991 152.272C155.04 152.257 155.091 152.251 155.142 152.256C155.193 152.261 155.243 152.276 155.288 152.3C155.333 152.324 155.374 152.357 155.406 152.396C155.439 152.436 155.463 152.481 155.478 152.53C155.493 152.579 155.499 152.631 155.494 152.682C155.489 152.733 155.474 152.782 155.45 152.828C155.426 152.873 155.393 152.913 155.354 152.946C155.314 152.978 155.269 153.003 155.22 153.018C147.521 155.386 138.236 158.082 138.143 158.111C138.107 158.121 138.071 158.127 138.034 158.127Z" fill="black"/>
<path d="M122.358 113.503C122.26 113.503 122.165 113.465 122.094 113.398C122.022 113.331 121.978 113.239 121.971 113.142C121.167 103.002 105.193 94.3747 105.032 94.2889C104.986 94.2649 104.946 94.2321 104.914 94.1926C104.881 94.153 104.857 94.1074 104.842 94.0584C104.827 94.0094 104.822 93.9579 104.827 93.9069C104.831 93.8559 104.846 93.8064 104.87 93.7611C104.895 93.7159 104.927 93.6758 104.967 93.6432C105.006 93.6107 105.052 93.5862 105.101 93.5712C105.15 93.5562 105.201 93.5511 105.252 93.556C105.303 93.5609 105.353 93.5759 105.398 93.5999C106.072 93.9587 121.911 102.508 122.748 113.082C122.756 113.185 122.723 113.287 122.655 113.365C122.588 113.444 122.492 113.492 122.389 113.5L122.358 113.503Z" fill="white"/>
<path d="M42.4469 146.445C29.4078 146.146 23.3966 137.979 23.3368 137.899C23.2762 137.815 23.2514 137.71 23.268 137.607C23.2845 137.505 23.3411 137.413 23.4253 137.353C23.5094 137.292 23.6142 137.267 23.7166 137.284C23.819 137.3 23.9106 137.357 23.9712 137.441C24.0284 137.522 29.8317 145.374 42.4651 145.665C42.5685 145.665 42.6677 145.706 42.7408 145.779C42.814 145.852 42.8551 145.951 42.8551 146.055C42.8551 146.158 42.814 146.258 42.7408 146.331C42.6677 146.404 42.5685 146.445 42.4651 146.445H42.4469Z" fill="white"/>
<path d="M195.537 119.192C195.479 119.192 195.422 119.179 195.369 119.154C195.317 119.129 195.27 119.093 195.233 119.049C187.173 109.135 174.693 108.298 165.627 109.343C159.441 110.103 153.386 111.696 147.627 114.08C147.533 114.12 147.427 114.121 147.333 114.083C147.238 114.046 147.161 113.972 147.12 113.879C147.078 113.786 147.075 113.68 147.111 113.585C147.146 113.489 147.218 113.411 147.31 113.368C153.133 110.959 159.255 109.349 165.51 108.581C171.386 107.902 176.745 108.188 181.435 109.431C187.321 110.991 192.165 114.064 195.831 118.57C195.878 118.627 195.908 118.696 195.917 118.769C195.926 118.843 195.914 118.917 195.883 118.984C195.851 119.05 195.801 119.106 195.738 119.146C195.676 119.185 195.603 119.205 195.53 119.205L195.537 119.192Z" fill="white"/>
<path d="M127.399 100.95C127.312 100.95 127.227 100.921 127.158 100.868C127.09 100.814 127.041 100.739 127.02 100.654C122.961 84.4168 99.1998 77.0849 98.9398 77.0147C98.8405 76.985 98.7571 76.9171 98.7078 76.8259C98.6586 76.7348 98.6476 76.6277 98.6772 76.5285C98.7069 76.4292 98.7748 76.3457 98.8659 76.2965C98.9571 76.2472 99.0641 76.2362 99.1634 76.2658C103.592 77.7211 107.85 79.6521 111.862 82.0248C117.915 85.6206 125.587 91.7385 127.771 100.467C127.796 100.567 127.779 100.674 127.726 100.762C127.672 100.851 127.586 100.915 127.485 100.94C127.457 100.947 127.428 100.95 127.399 100.95Z" fill="black"/>
<path d="M96.1996 166.509C93.4502 166.514 90.7081 166.226 88.02 165.648C81.8736 164.315 78.3142 161.954 78.166 161.852C78.0801 161.794 78.0208 161.705 78.0011 161.603C77.9813 161.501 78.0028 161.396 78.0607 161.31C78.1186 161.224 78.2083 161.165 78.3099 161.145C78.4116 161.126 78.5169 161.147 78.6028 161.205C78.6366 161.231 82.2116 163.597 88.2228 164.894C93.7634 166.09 102.575 166.597 113.074 162.211C113.121 162.187 113.173 162.174 113.227 162.171C113.28 162.168 113.333 162.176 113.383 162.195C113.433 162.213 113.479 162.242 113.517 162.279C113.556 162.316 113.586 162.36 113.607 162.409C113.628 162.458 113.638 162.511 113.637 162.565C113.637 162.618 113.625 162.67 113.604 162.719C113.582 162.768 113.55 162.812 113.511 162.848C113.472 162.884 113.426 162.911 113.375 162.929C106.909 165.633 101.064 166.509 96.1996 166.509Z" fill="white"/>
<path d="M109.956 2.47784L143.839 8.34084C148.246 9.10524 151.262 12.6802 150.799 16.5802L149.216 29.6764C148.748 33.5374 145.02 36.4676 140.576 36.4676H137.849L131.931 44.9592L125.639 36.4676H109.847C105.292 36.4676 101.511 33.397 101.181 29.4294L99.6027 10.4676C99.1867 5.47564 104.33 1.50024 109.956 2.47784Z" fill="#FFAD00"/>
<path d="M131.931 45.3514C131.87 45.3519 131.81 45.3378 131.755 45.3102C131.7 45.2827 131.653 45.2424 131.617 45.1928L125.444 36.8598H109.844C105.112 36.8598 101.137 33.6124 100.791 29.4654L99.213 10.5036C99.0206 8.21562 99.9098 6.04982 101.712 4.39882C103.864 2.42802 106.969 1.56482 110.032 2.09262L143.904 7.95562C148.551 8.76162 151.678 12.4874 151.184 16.6292L149.601 29.7254C149.099 33.7918 145.22 36.8598 140.566 36.8598H138.06L132.259 45.1798C132.223 45.2304 132.176 45.2718 132.122 45.3007C132.067 45.3296 132.006 45.3452 131.944 45.3462L131.931 45.3514ZM108.251 2.71143C106.036 2.68903 103.893 3.49273 102.239 4.96562C100.62 6.44762 99.8214 8.38723 99.993 10.4256L101.571 29.3874C101.883 33.1314 105.518 36.0668 109.847 36.0668H125.639C125.701 36.0669 125.761 36.0813 125.816 36.1088C125.87 36.1364 125.918 36.1763 125.954 36.2254L131.921 44.2854L137.529 36.2254C137.565 36.174 137.613 36.132 137.669 36.1031C137.724 36.0741 137.786 36.059 137.849 36.059H140.566C144.825 36.059 148.366 33.2874 148.818 29.611L150.402 16.5148C150.852 12.7942 148.002 9.43502 143.772 8.71482L109.889 2.86222C109.348 2.76787 108.8 2.72089 108.251 2.72182V2.71143Z" fill="black"/>
<path d="M136.169 20.701H136.143L110.466 19.83C110.259 19.8228 110.063 19.7336 109.922 19.5822C109.781 19.4308 109.706 19.2296 109.713 19.0227C109.72 18.8158 109.809 18.6203 109.961 18.4792C110.112 18.338 110.314 18.2628 110.52 18.27L136.195 19.1384C136.402 19.1419 136.599 19.2273 136.743 19.3761C136.887 19.5248 136.966 19.7245 136.962 19.9314C136.959 20.1383 136.873 20.3353 136.725 20.4791C136.576 20.623 136.376 20.7018 136.169 20.6984V20.701Z" fill="white"/>
<path d="M135.171 27.24H135.134L116.934 26.369C116.727 26.3593 116.533 26.2679 116.393 26.1148C116.254 25.9617 116.181 25.7594 116.191 25.5526C116.2 25.3457 116.292 25.1511 116.445 25.0117C116.598 24.8722 116.8 24.7993 117.007 24.809L135.199 25.68C135.406 25.6848 135.603 25.7716 135.745 25.9213C135.888 26.071 135.966 26.2713 135.961 26.4782C135.956 26.685 135.869 26.8815 135.72 27.0244C135.57 27.1672 135.37 27.2448 135.163 27.24H135.171Z" fill="white"/>
<path d="M138.281 11.7857C135.96 11.7899 133.644 11.5802 131.362 11.1591C131.312 11.1498 131.264 11.1308 131.221 11.1031C131.178 11.0754 131.141 11.0395 131.112 10.9975C131.083 10.9555 131.063 10.9082 131.052 10.8583C131.042 10.8084 131.041 10.7569 131.05 10.7067C131.059 10.6565 131.078 10.6086 131.106 10.5657C131.134 10.5229 131.17 10.4859 131.212 10.457C131.254 10.428 131.301 10.4076 131.351 10.3969C131.401 10.3862 131.452 10.3854 131.503 10.3947C151.06 14.0191 168.906 0.374263 169.083 0.233863C169.165 0.171474 169.269 0.143883 169.372 0.157006C169.474 0.17013 169.567 0.222924 169.631 0.304064C169.694 0.385849 169.722 0.489228 169.709 0.591563C169.696 0.693898 169.643 0.78685 169.561 0.850064C169.517 0.886464 164.957 4.39906 158.009 7.40466C153.041 9.56007 146.023 11.7857 138.281 11.7857Z" fill="black"/>
<path d="M147.271 25.1238C144.977 25.1223 142.699 24.7401 140.529 23.9928C140.432 23.9584 140.351 23.8864 140.306 23.7928C140.262 23.6992 140.256 23.5916 140.29 23.4936C140.325 23.3957 140.397 23.3155 140.49 23.2707C140.584 23.2258 140.692 23.22 140.789 23.2544C151.904 27.053 160.763 19.7002 160.851 19.6144C160.89 19.5813 160.935 19.5562 160.984 19.5406C161.033 19.5249 161.084 19.5191 161.135 19.5233C161.187 19.5275 161.236 19.5418 161.282 19.5652C161.327 19.5887 161.368 19.6208 161.401 19.6599C161.434 19.699 161.459 19.7443 161.475 19.7931C161.49 19.8419 161.496 19.8933 161.492 19.9443C161.488 19.9954 161.474 20.0451 161.45 20.0907C161.427 20.1362 161.395 20.1767 161.355 20.2098C161.275 20.28 155.456 25.1238 147.271 25.1238Z" fill="black"/>
<path d="M102.83 13.7203C102.732 13.7207 102.639 13.6845 102.567 13.6191C102.495 13.5536 102.451 13.4635 102.442 13.3667C102.203 10.9123 102.759 8.99092 104.093 7.64672C106.42 5.30672 110.245 5.63952 110.406 5.65512C110.509 5.66477 110.605 5.71512 110.671 5.79508C110.737 5.87505 110.769 5.97808 110.76 6.08152C110.75 6.18495 110.7 6.28032 110.62 6.34663C110.54 6.41294 110.437 6.44477 110.333 6.43512C110.297 6.43512 106.709 6.12832 104.642 8.20572C103.482 9.36792 103.004 11.0657 103.217 13.2913C103.222 13.3422 103.217 13.3936 103.202 13.4426C103.187 13.4915 103.162 13.537 103.13 13.5764C103.097 13.6158 103.057 13.6483 103.012 13.6721C102.966 13.6959 102.917 13.7106 102.866 13.7151L102.83 13.7203Z" fill="white"/>
<path d="M173.711 92.8981C174.485 92.8981 175.112 92.2113 175.112 91.3641C175.112 90.5169 174.485 89.8301 173.711 89.8301C172.937 89.8301 172.309 90.5169 172.309 91.3641C172.309 92.2113 172.937 92.8981 173.711 92.8981Z" fill="#FFAD00"/>
<path d="M173.711 89.8299C173.981 89.8302 174.245 89.9147 174.465 90.0717C174.784 90.3104 175.003 90.6581 175.082 91.0485C175.161 91.4389 175.093 91.8446 174.891 92.1881C174.774 92.4003 174.603 92.5777 174.395 92.7024C174.188 92.8271 173.951 92.8945 173.708 92.8979C173.439 92.8971 173.176 92.8126 172.957 92.6561C172.638 92.4178 172.417 92.07 172.339 91.6795C172.26 91.2889 172.328 90.8831 172.53 90.5397C172.647 90.3274 172.817 90.1497 173.025 90.025C173.232 89.9003 173.469 89.833 173.711 89.8299ZM173.711 89.1201C173.356 89.1251 173.01 89.224 172.706 89.4067C172.402 89.5894 172.152 89.8494 171.982 90.1601C171.688 90.6629 171.589 91.2563 171.704 91.8273C171.819 92.3983 172.14 92.907 172.606 93.2567C172.928 93.4854 173.313 93.6089 173.708 93.6103C174.063 93.6056 174.41 93.5068 174.713 93.3241C175.017 93.1413 175.267 92.8812 175.437 92.5703C175.731 92.0675 175.83 91.4741 175.715 90.9032C175.6 90.3322 175.279 89.8234 174.813 89.4737C174.491 89.245 174.106 89.1215 173.711 89.1201Z" fill="black"/>
</svg>
