<svg width="216" height="213" viewBox="0 0 216 213" fill="none" xmlns="http://www.w3.org/2000/svg">
<path d="M183.58 207.34H0.54002C0.402107 207.34 0.269843 207.285 0.172324 207.187C0.0748047 207.09 0.0200195 206.958 0.0200195 206.82C0.0200195 206.682 0.0748047 206.55 0.172324 206.452C0.269843 206.355 0.402107 206.3 0.54002 206.3H183.58C183.718 206.3 183.85 206.355 183.948 206.452C184.045 206.55 184.1 206.682 184.1 206.82C184.1 206.958 184.045 207.09 183.948 207.187C183.85 207.285 183.718 207.34 183.58 207.34Z" fill="#1D1D1B"/>
<path d="M161.693 106.419C156.368 106.419 153.033 105.771 152.981 105.761C152.911 105.75 152.845 105.725 152.786 105.688C152.726 105.651 152.675 105.602 152.635 105.544C152.595 105.487 152.567 105.422 152.553 105.354C152.538 105.285 152.538 105.214 152.552 105.146C152.565 105.077 152.593 105.012 152.632 104.954C152.672 104.896 152.723 104.847 152.782 104.809C152.841 104.771 152.907 104.746 152.976 104.734C153.045 104.723 153.115 104.725 153.183 104.742C153.269 104.76 162.01 106.444 173.84 104.263C184.742 102.253 200.581 96.4501 214.125 80.2209C214.215 80.1207 214.34 80.0594 214.474 80.0497C214.609 80.04 214.741 80.0828 214.845 80.169C214.948 80.2552 215.014 80.3781 215.029 80.5119C215.043 80.6458 215.005 80.78 214.923 80.8865C208.852 88.1665 201.816 94.0009 194.019 98.2363C187.755 101.632 180.993 104.014 173.983 105.295C169.929 106.039 165.815 106.415 161.693 106.419Z" fill="#1D1D1B"/>
<path d="M44.7399 75.2598C44.7399 75.2598 47.3399 77.3398 47.0799 80.7198C46.8199 84.0997 35.3799 82.2797 35.3799 82.2797L44.7399 75.2598Z" fill="#FFCDB2"/>
<path d="M44.7397 75.2598C44.7397 75.2598 47.3397 77.3398 47.0797 80.7198C46.9549 82.3474 44.2379 82.7686 41.4533 82.7686C39.42 82.7445 37.3907 82.5811 35.3797 82.2798L44.7397 75.2598ZM44.7553 74.2744L44.2717 74.6358L34.9117 81.6558L33.4375 82.7608L35.2575 83.0494C37.3087 83.3593 39.379 83.5261 41.4533 83.5486C42.9847 83.5486 47.6439 83.5486 47.8571 80.7796C48.1457 77.0304 45.3455 74.745 45.2259 74.6514L44.7553 74.2744Z" fill="#1D1D1B"/>
<path d="M29.4676 206.82C29.4676 206.82 25.1906 197.852 67.62 186.28L141.85 205.13L141.673 206.82H29.4676Z" fill="#6C32AD"/>
<path d="M142.024 207.21H29.2208L29.1142 206.989C29.0934 206.945 28.6306 205.949 29.4054 204.243C30.9654 200.85 37.9854 193.96 67.5189 185.903L67.6177 185.877L67.7165 185.903L142.274 204.836L142.024 207.21ZM29.7616 206.43H141.322L141.426 205.424L67.6203 186.683C38.4769 194.644 31.6102 201.305 30.1126 204.568C29.694 205.486 29.7096 206.118 29.7616 206.43Z" fill="#1D1F1C"/>
<path d="M31.0483 81.1307L30.6791 85.6443C30.6791 85.6443 22.3591 89.2375 25.1281 101.221C27.8971 113.204 33.8693 138.011 74.2317 137.845C74.2317 137.845 58.5043 167.344 67.6199 186.28C90.8067 197.158 115.637 203.528 142.11 205.39C142.11 205.39 148.558 183.565 148.61 173.15C148.662 162.734 159.954 171.07 160.851 163.382C161.748 155.694 155.37 125.31 118.97 111.79C118.97 111.79 110.723 117.858 103.63 106.59C103.63 106.59 94.5299 105.29 64.4453 113.795C55.7171 116.262 55.3453 110.646 56.5127 102.992C57.6801 95.3371 55.5871 88.2183 47.3529 84.3391L47.1059 80.8447C47.1059 80.8447 43.1279 83.7255 31.0483 81.1307Z" fill="#FFAD00"/>
<path d="M47.106 80.8447L47.353 84.3391C55.5872 88.2183 57.675 95.3371 56.5128 102.991C55.5404 109.403 55.6366 114.385 60.8236 114.385C62.0522 114.354 63.2707 114.155 64.4454 113.794C87.4892 107.294 98.2194 106.514 101.982 106.514C102.532 106.504 103.082 106.528 103.63 106.585C107.044 112.011 110.725 113.417 113.627 113.417C115.529 113.403 117.385 112.836 118.97 111.785C155.37 125.305 161.748 155.701 160.851 163.376C159.954 171.052 148.662 162.729 148.61 173.145C148.558 183.56 142.11 205.385 142.11 205.385C115.619 203.568 90.7895 197.2 67.62 186.28C58.5044 167.344 74.2318 137.844 74.2318 137.844H73.8288C33.833 137.844 27.8764 113.163 25.1282 101.221C22.3696 89.2375 30.6792 85.6443 30.6792 85.6443L31.0484 81.1307C34.8002 81.9367 37.7668 82.2149 40.0782 82.2149C45.2132 82.2149 47.0982 80.8447 47.0982 80.8447H47.106ZM47.7768 79.3887L46.6536 80.1999C46.5886 80.2441 44.7556 81.4271 40.0782 81.4271C37.0939 81.3808 34.1225 81.0236 31.2122 80.3611L30.3438 80.1739L30.271 81.0605L29.9382 85.1399C28.4776 85.9712 27.2144 87.1093 26.2358 88.4757C24.5614 90.7923 22.8766 94.9159 24.3664 101.39C25.6664 107.081 27.8712 116.61 34.9302 124.53C38.76 128.838 43.6506 132.2 49.4434 134.54C56.0058 137.176 63.9176 138.552 72.9656 138.635C70.4439 143.823 68.3669 149.216 66.7568 154.755C65.1188 160.475 64.201 165.839 64.0268 170.703C63.811 176.834 64.7834 182.193 66.918 186.626L67.0376 186.886L67.2976 187.005C78.9139 192.453 91.0129 196.805 103.438 200.005C116.096 203.233 129.024 205.296 142.058 206.167L142.682 206.211L142.859 205.611C143.119 204.716 149.338 183.563 149.39 173.152C149.413 168.277 151.941 168.145 155.141 167.978C157.811 167.838 161.137 167.666 161.626 163.473C162.099 159.414 160.612 149.648 154.569 139.381C151.105 133.524 146.688 128.285 141.502 123.88C135.241 118.532 127.75 114.216 119.24 111.057L118.848 110.908L118.507 111.168C117.055 112.119 115.362 112.633 113.627 112.65C110.133 112.65 106.992 110.474 104.29 106.182L104.098 105.877L103.739 105.825C103.156 105.763 102.569 105.737 101.982 105.747C98.4014 105.747 87.5594 106.457 64.2322 113.053C63.1261 113.391 61.9797 113.579 60.8236 113.612C59.495 113.612 58.5434 113.254 57.9116 112.52C56.3724 110.732 56.7312 106.761 57.285 103.116C58.6448 94.1541 55.465 87.4981 48.0992 83.8399L47.8834 80.7953L47.7846 79.3965L47.7768 79.3887Z" fill="#1D1D1B"/>
<path d="M47.9325 84.6198C47.7427 84.5236 47.5503 84.4248 47.3527 84.3338L47.1057 80.8394C47.1057 80.8394 43.1277 83.7202 31.0481 81.1254L30.6789 85.639C30.6789 85.639 30.5489 85.6936 30.3279 85.8158C35.2133 87.277 42.6857 88.4834 47.9325 84.6198Z" fill="#E89D00"/>
<path d="M142.991 125.918C156.667 137.839 183.14 168.007 183.143 176.301C183.146 184.595 177.41 186.093 177.41 186.093L178.661 192.26L158.62 201.1L156.886 197.226C156.886 197.226 148.345 197.658 146.067 190.32C143.789 182.983 138.699 154.396 132.737 149.136" fill="#FFAD00"/>
<path d="M158.62 201.493C158.545 201.492 158.471 201.471 158.408 201.43C158.345 201.39 158.295 201.332 158.263 201.264L156.636 197.624C155.13 197.624 147.796 197.226 145.692 190.437C145.107 188.55 144.327 185.237 143.423 181.374C140.794 170.194 136.824 153.265 132.479 149.43C132.441 149.396 132.41 149.355 132.387 149.308C132.365 149.262 132.352 149.212 132.349 149.161C132.346 149.109 132.353 149.058 132.37 149.009C132.386 148.961 132.413 148.916 132.447 148.878C132.481 148.839 132.522 148.808 132.569 148.785C132.615 148.763 132.665 148.75 132.716 148.747C132.768 148.744 132.819 148.751 132.868 148.768C132.916 148.785 132.961 148.811 132.999 148.845C137.531 152.844 141.538 169.905 144.179 181.197C145.079 185.032 145.859 188.347 146.436 190.206C148.597 197.164 156.529 196.857 156.865 196.841C156.943 196.837 157.021 196.857 157.087 196.897C157.154 196.938 157.207 196.998 157.239 197.07L158.812 200.58L178.216 192.016L177.028 186.16C177.008 186.063 177.026 185.961 177.079 185.876C177.132 185.792 177.215 185.731 177.311 185.705C177.532 185.646 182.771 184.161 182.753 176.291C182.753 168.122 155.91 137.686 142.734 126.202C142.656 126.133 142.608 126.036 142.602 125.932C142.596 125.828 142.631 125.726 142.7 125.648C142.769 125.57 142.866 125.523 142.97 125.516C143.074 125.51 143.176 125.545 143.254 125.614C156.865 137.478 183.538 167.773 183.554 176.291C183.554 183.571 179.17 185.833 177.88 186.337L179.063 192.169C179.081 192.256 179.069 192.346 179.028 192.425C178.987 192.504 178.921 192.567 178.84 192.603L158.794 201.443C158.74 201.472 158.681 201.489 158.62 201.493Z" fill="#1D1D1B"/>
<path d="M177.08 186.072C177.399 185.975 177.709 185.847 178.003 185.69C173.003 185.043 161.55 184.988 156.92 196.839C157.122 196.839 157.239 196.839 157.239 196.839L158.914 200.583L178.289 192.032L177.08 186.072Z" fill="#E89D00"/>
<path d="M152.827 205.827C152.827 205.827 150.926 197.554 159.16 193.95C167.395 190.346 176.146 189.574 181.549 193.95C186.952 198.326 187.48 203.729 185.92 207.34C184.36 210.951 180.514 211.716 176.398 208.884C176.398 208.884 172.537 214.545 165.59 209.144C165.59 209.144 156.581 215.319 156.324 205.541L152.827 205.827Z" fill="#FFCDB2"/>
<path d="M171.976 190.96C175.647 190.96 178.978 191.875 181.549 193.957C186.96 198.325 187.48 203.728 185.92 207.34C185.01 209.461 183.297 210.603 181.201 210.603C179.74 210.603 178.081 210.046 176.399 208.884C176.399 208.884 174.628 211.484 171.331 211.484C169.756 211.484 167.834 210.891 165.591 209.144C165.591 209.144 162.783 211.068 160.261 211.068C158.261 211.068 156.439 209.862 156.324 205.54L152.822 205.837C152.822 205.837 150.921 197.564 159.156 193.96C163.472 192.072 167.928 190.962 171.971 190.962L171.976 190.96ZM171.971 190.265C167.977 190.265 163.448 191.324 158.877 193.323C154.356 195.302 152.762 198.645 152.221 201.1C151.866 202.709 151.839 204.373 152.143 205.993C152.179 206.146 152.265 206.283 152.388 206.381C152.512 206.479 152.665 206.532 152.822 206.531H152.879L155.666 206.297C156.01 210.792 158.324 211.757 160.261 211.757C162.39 211.757 164.636 210.543 165.557 209.984C167.538 211.435 169.48 212.17 171.331 212.17C172.315 212.159 173.285 211.942 174.18 211.535C175.076 211.127 175.876 210.538 176.531 209.804C178.11 210.782 179.711 211.294 181.191 211.294C183.593 211.294 185.546 209.953 186.549 207.61C187.451 205.44 187.61 203.032 187.002 200.762C186.294 198.045 184.555 195.507 181.973 193.414C179.391 191.321 176.019 190.26 171.961 190.26L171.971 190.265Z" fill="black"/>
<path d="M126.26 90.4829C126.26 90.4829 128.712 97.3808 133.296 94.5442C137.88 91.7076 147.63 85.5429 152.559 92.1522C157.489 98.7614 157.12 100.472 162.681 98.7952C168.243 97.1182 182.66 111.904 168.939 120.659C146.455 135.011 114.68 100.927 114.68 100.927L118.06 95.8442L126.26 90.4829Z" fill="#6C32AD"/>
<path d="M169.02 101.078C174.329 105.381 178.582 114.507 168.942 120.658C154.067 130.154 135.126 118.451 124.008 109.439C120.723 106.801 117.607 103.958 114.68 100.927L118.06 95.8441L126.26 90.4828C126.26 90.4828 127.144 92.9659 128.839 94.3387C129.97 95.2565 131.463 95.6803 133.296 94.5441C137.495 91.9441 146.036 86.5491 151.236 90.7559C151.735 91.1636 152.182 91.6327 152.564 92.1521C155.089 95.5321 156.225 97.6381 157.478 98.6521C158.672 99.6193 159.974 99.6063 162.678 98.7925C164.332 98.2959 166.768 99.2553 169.014 101.075L169.02 101.078ZM169.329 100.688C166.841 98.6702 164.303 97.7837 162.535 98.3141C159.914 99.0941 158.804 99.0941 157.785 98.2621C157.044 97.6615 156.293 96.5747 155.25 95.0693C154.61 94.1437 153.882 93.0959 152.957 91.8531C152.549 91.3007 152.074 90.8012 151.542 90.3659C149.202 88.4601 145.934 88.1949 141.863 89.5859C138.542 90.7117 135.329 92.7058 133.205 94.0188L133.03 94.1281C131.629 94.9939 130.36 94.9393 129.151 93.9591C127.591 92.6877 126.738 90.3451 126.728 90.3191C126.696 90.2329 126.643 90.1567 126.572 90.0981C126.527 90.0608 126.475 90.0325 126.419 90.0149C126.347 89.9908 126.27 89.9832 126.195 89.9926C126.12 90.0021 126.048 90.0283 125.984 90.0694L117.8 95.4281C117.743 95.4645 117.694 95.5123 117.657 95.5684L114.277 100.651C114.215 100.745 114.186 100.856 114.195 100.968C114.204 101.08 114.25 101.185 114.326 101.268C117.268 104.316 120.395 107.179 123.691 109.84C128.764 113.95 136.561 119.478 144.897 122.468C154.306 125.848 162.486 125.383 169.207 121.09C171.149 119.852 172.644 118.425 173.645 116.849C174.552 115.448 175.079 113.836 175.174 112.169C175.291 110.089 174.729 107.853 173.551 105.714C172.473 103.79 171.042 102.088 169.332 100.696L169.329 100.688Z" fill="black"/>
<path d="M153.665 124.028C139.885 104.617 119.108 99.5884 119.108 99.5884C117.97 100.382 117.03 101.427 116.362 102.643C121.516 107.693 137.698 122.359 153.665 124.028Z" fill="#59298F"/>
<path d="M127.438 78.7804C131.937 78.7804 135.584 75.1334 135.584 70.6346C135.584 66.1358 131.937 62.4888 127.438 62.4888C122.939 62.4888 119.292 66.1358 119.292 70.6346C119.292 75.1334 122.939 78.7804 127.438 78.7804Z" fill="#6C32AD"/>
<path d="M131.078 63.3469C132.833 64.2228 134.212 65.7023 134.964 67.5136C135.715 69.3249 135.788 71.3465 135.169 73.2071C134.549 75.0678 133.28 76.6426 131.593 77.6424C129.906 78.6422 127.915 78.9998 125.985 78.6497C124.056 78.2996 122.317 77.2653 121.089 75.7365C119.861 74.2078 119.226 72.2873 119.3 70.3277C119.374 68.3681 120.152 66.501 121.492 65.0691C122.832 63.6373 124.643 62.7368 126.593 62.5331C128.135 62.3714 129.691 62.6538 131.078 63.3469ZM131.357 62.7931C129.616 61.9227 127.636 61.6561 125.728 62.0353C123.819 62.4145 122.091 63.418 120.816 64.8876C119.541 66.3572 118.791 68.2093 118.684 70.1522C118.578 72.095 119.121 74.018 120.228 75.6182C121.335 77.2183 122.943 78.4047 124.798 78.9902C126.654 79.5757 128.651 79.5271 130.476 78.8521C132.301 78.177 133.85 76.914 134.878 75.2619C135.905 73.6098 136.354 71.6626 136.154 69.7273C136.001 68.2614 135.482 66.8576 134.643 65.6456C133.805 64.4336 132.674 63.4526 131.357 62.7931Z" fill="black"/>
<path d="M97.1768 86.2217C97.1768 86.2217 93.6278 79.6151 97.6968 75.7177C101.766 71.8203 102.842 72.6991 104.847 70.5047C106.851 68.3103 112.467 67.4783 116.24 70.3201C116.24 70.3201 122.987 68.3753 127.274 71.4043C131.562 74.4333 132.357 77.3271 132.3 81.5443C132.243 85.7615 132.966 87.9273 133.026 90.9043C133.085 93.8813 131.895 101.705 119.779 103.208C107.663 104.71 97.1768 86.2217 97.1768 86.2217Z" fill="#6C32AD"/>
<path d="M126.248 70.7855C126.603 70.9637 126.944 71.1679 127.269 71.3965C131.554 74.4229 132.352 77.3193 132.295 81.5365C132.238 85.7537 132.961 87.9195 133.021 90.8965C133.08 93.8735 131.89 101.697 119.774 103.2C117.08 103.535 114.464 102.88 112.028 101.661C103.513 97.3939 97.177 86.2191 97.177 86.2191C97.177 86.2191 93.628 79.6125 97.697 75.7151C101.766 71.8177 102.842 72.6965 104.847 70.5021C106.633 68.5495 111.287 67.6733 114.948 69.5063C115.405 69.7336 115.84 70.0025 116.248 70.3097C116.248 70.3097 122.004 68.6509 126.261 70.7829L126.248 70.7855ZM126.536 70.2317C122.636 68.2713 117.642 69.3191 116.375 69.6363C116.01 69.3818 115.627 69.1541 115.229 68.9551C111.266 66.9713 106.342 67.9593 104.397 70.0861C103.578 70.9805 102.957 71.3029 102.096 71.7501C100.981 72.3273 99.5925 73.0501 97.2759 75.2679C95.4558 77.0125 94.7824 79.5241 95.3154 82.5349C95.5651 83.9173 96.0135 85.2564 96.6467 86.5103V86.5233C97.9249 88.6901 99.3568 90.7624 100.931 92.7243C103.386 95.8079 107.257 99.9575 111.755 102.212C114.524 103.598 117.249 104.138 119.854 103.813C125.257 103.143 129.165 101.172 131.471 97.9581C132.935 95.8937 133.697 93.4137 133.645 90.8835C133.604 89.6728 133.495 88.4653 133.317 87.2669C133.036 85.3735 132.903 83.461 132.919 81.5469C132.976 77.2023 132.139 74.0641 127.631 70.8869C127.281 70.64 126.912 70.4201 126.528 70.2291L126.536 70.2317Z" fill="black"/>
<path d="M117.901 88.2235L117.927 88.2365C121.307 89.5677 125.867 87.5371 126.06 87.4565C126.135 87.422 126.193 87.3592 126.221 87.2819C126.25 87.2046 126.246 87.1192 126.212 87.0444C126.177 86.9696 126.115 86.9115 126.037 86.883C125.96 86.8545 125.875 86.8578 125.8 86.8923C125.756 86.9131 121.289 88.9021 118.148 87.6723C118.073 87.6378 117.988 87.6343 117.911 87.6626C117.834 87.6909 117.772 87.7486 117.737 87.8231C117.703 87.8976 117.699 87.9827 117.727 88.0597C117.756 88.1368 117.813 88.1994 117.888 88.2339L117.901 88.2235Z" fill="black"/>
<path d="M103.063 106.694C103.063 106.694 97.65 108.41 101.03 113.09C104.41 117.77 109.09 115.43 109.09 115.43C109.09 115.43 116.89 122.97 120.01 112.57L103.063 106.694Z" fill="white"/>
<path d="M114.693 118.462C112.111 118.462 109.701 116.501 109.012 115.888C107.954 116.306 103.789 117.578 100.713 113.319C99.6312 111.819 99.2879 110.43 99.6935 109.198C100.367 107.159 102.84 106.356 102.944 106.322L103.068 106.283L120.488 112.323L120.382 112.682C119.42 115.89 117.907 117.783 115.886 118.311C115.497 118.412 115.096 118.462 114.693 118.462ZM109.163 114.959L109.36 115.149C109.394 115.18 112.709 118.339 115.694 117.557C117.361 117.12 118.648 115.526 119.526 112.814L103.063 107.107C102.603 107.282 100.905 108.01 100.435 109.447C100.112 110.43 100.419 111.579 101.347 112.864C104.485 117.211 108.736 115.173 108.916 115.084L109.163 114.959Z" fill="#1D1D1B"/>
<path d="M119.016 86.1798C119.758 86.5434 120.545 86.8058 121.356 86.9598C121.396 86.9681 121.437 86.9684 121.477 86.9607C121.516 86.953 121.554 86.9374 121.588 86.9149C121.622 86.8924 121.65 86.8633 121.673 86.8295C121.695 86.7957 121.71 86.7578 121.718 86.718C121.734 86.6377 121.717 86.5542 121.672 86.486C121.627 86.4178 121.556 86.3703 121.476 86.354C114.487 84.9578 115.005 77.514 115.028 77.2046C115.035 77.1232 115.009 77.0426 114.956 76.9804C114.903 76.9182 114.827 76.8796 114.746 76.8731C114.665 76.8665 114.584 76.8926 114.522 76.9455C114.46 76.9984 114.421 77.0738 114.414 77.1552C114.401 77.2176 113.946 83.6266 119.016 86.1798Z" fill="white"/>
<path d="M138.08 67.304C138.112 67.3198 138.146 67.3304 138.182 67.3352C138.262 67.3456 138.342 67.3242 138.407 67.2756C138.471 67.2269 138.513 67.155 138.525 67.0752C138.769 65.1018 138.369 63.4352 137.334 62.1196C135.514 59.8082 132.412 59.4261 132.28 59.4105C132.2 59.4008 132.12 59.4226 132.056 59.4711C131.993 59.5197 131.951 59.5912 131.939 59.6704C131.929 59.7502 131.951 59.8306 132 59.8947C132.048 59.9587 132.12 60.0014 132.199 60.0136C132.228 60.0136 135.184 60.3854 136.843 62.4966C137.768 63.6744 138.124 65.1876 137.901 66.9868C137.893 67.0519 137.907 67.1177 137.939 67.1747C137.971 67.2317 138.021 67.277 138.08 67.304Z" fill="black"/>
<path d="M133.267 71.0326C133.315 71.0573 133.369 71.069 133.422 71.0665C133.476 71.064 133.528 71.0474 133.573 71.0185C133.619 70.9895 133.656 70.9492 133.68 70.9015C133.705 70.8537 133.717 70.8004 133.715 70.7467C133.652 68.6407 132.987 67.039 131.739 65.9886C129.716 64.2882 126.923 64.6652 126.799 64.6886C126.718 64.7015 126.646 64.7454 126.597 64.8111C126.548 64.8767 126.527 64.9587 126.539 65.0396C126.544 65.0796 126.558 65.1181 126.579 65.1528C126.599 65.1875 126.626 65.2178 126.659 65.242C126.691 65.2662 126.728 65.2837 126.767 65.2936C126.806 65.3035 126.847 65.3055 126.887 65.2996C126.913 65.2996 129.531 64.9486 131.338 66.4722C132.446 67.4056 133.033 68.8512 133.093 70.7753C133.096 70.8299 133.114 70.8828 133.145 70.9281C133.175 70.9735 133.218 71.0096 133.267 71.0326Z" fill="white"/>
<path d="M106.742 103.452L103.5 106.72C103.5 106.72 104.8 118.16 119.1 112.44C119.1 112.44 117.953 105.87 119.461 96.528C119.461 96.528 123.517 97.347 124.401 93.7824C125.285 90.2178 122.857 88.4836 120.891 88.689C120.891 88.689 112.868 90.2698 112.238 74.6984C112.238 74.6984 104.527 74.5112 100.203 80.6784C95.8791 86.8456 93.7783 95.2384 97.9721 99.7702C102.166 104.302 106.742 103.452 106.742 103.452Z" fill="#FFCDB2"/>
<path d="M112.15 74.6984H112.225C112.745 87.6412 118.382 88.7384 120.267 88.7384C120.472 88.7413 120.676 88.7265 120.878 88.6942C120.982 88.6942 121.089 88.6786 121.193 88.6786C123.088 88.6786 125.212 90.4128 124.388 93.7876C123.793 96.2316 121.7 96.6164 120.441 96.6164C120.113 96.6188 119.785 96.591 119.461 96.5332C117.953 105.87 119.1 112.44 119.1 112.44C116.24 113.584 113.9 114.042 111.986 114.042C104.332 114.042 103.5 106.72 103.5 106.72L106.742 103.452C106.442 103.496 106.14 103.516 105.837 103.512C104.293 103.512 101.022 103.064 97.9591 99.7624C93.7653 95.2332 95.8791 86.8248 100.19 80.668C104.262 74.8674 111.344 74.688 112.15 74.688V74.6984ZM112.15 73.908C111.313 73.908 103.851 74.0848 99.5529 80.2104C97.2337 83.5124 95.6529 87.2304 95.1121 90.6936C94.4829 94.6794 95.2707 97.9944 97.3871 100.28C100.094 103.202 102.962 104.037 104.86 104.232L102.946 106.161L102.686 106.421L102.728 106.793C102.943 108.212 103.45 109.571 104.217 110.784C105.385 112.619 107.681 114.806 111.989 114.806C114.152 114.806 116.643 114.25 119.391 113.15L119.979 112.913L119.872 112.289C119.859 112.227 118.832 106.067 120.132 97.3678C120.233 97.3678 120.34 97.3678 120.454 97.3678C122.914 97.3678 124.627 96.1198 125.158 93.9436C125.706 91.6946 125.064 90.2542 124.425 89.443C124.041 88.9556 123.552 88.561 122.995 88.2887C122.438 88.0163 121.826 87.8732 121.206 87.87C121.076 87.87 120.946 87.87 120.811 87.8882H120.777H120.74C120.588 87.9109 120.434 87.9213 120.28 87.9194C119.448 87.9194 117.826 87.6724 116.328 86.0136C114.347 83.8244 113.234 79.9946 113.018 74.6334L112.987 73.9054L112.257 73.8872L112.15 73.908Z" fill="#1D1D1B"/>
<path d="M106.36 103.967C106.389 103.983 106.421 103.993 106.454 103.998C109.894 104.492 113.583 102.461 113.734 102.373C113.772 102.355 113.807 102.329 113.835 102.297C113.864 102.265 113.885 102.228 113.898 102.187C113.911 102.147 113.916 102.104 113.912 102.062C113.908 102.019 113.895 101.978 113.874 101.941C113.853 101.904 113.825 101.871 113.791 101.845C113.757 101.82 113.718 101.801 113.676 101.791C113.635 101.781 113.592 101.78 113.55 101.788C113.508 101.795 113.468 101.811 113.432 101.835C113.396 101.856 109.769 103.85 106.537 103.395C106.464 103.383 106.389 103.397 106.326 103.436C106.263 103.475 106.216 103.535 106.194 103.605C106.172 103.676 106.176 103.752 106.205 103.82C106.235 103.888 106.288 103.943 106.355 103.975L106.36 103.967Z" fill="black"/>
<path d="M120.14 94.9838C120.19 95.009 120.246 95.0201 120.302 95.016C120.358 95.0119 120.411 94.9927 120.457 94.9604C121.736 94.0556 122.358 93.1145 122.303 92.1629C122.225 90.7927 120.767 89.9763 120.704 89.9425C120.669 89.9224 120.629 89.9096 120.589 89.9049C120.548 89.9002 120.507 89.9036 120.468 89.915C120.429 89.9264 120.392 89.9455 120.36 89.9712C120.329 89.9969 120.302 90.0287 120.283 90.0647C120.245 90.1366 120.236 90.2206 120.259 90.2988C120.282 90.3771 120.334 90.4433 120.405 90.4833C120.426 90.4963 121.63 91.1749 121.687 92.1992C121.726 92.9246 121.193 93.6838 120.101 94.456C120.059 94.4868 120.025 94.5278 120.003 94.5752C119.981 94.6226 119.972 94.6748 119.976 94.7269C119.98 94.779 119.997 94.8292 120.025 94.8728C120.054 94.9164 120.094 94.9519 120.14 94.976V94.9838Z" fill="black"/>
<path d="M107.579 84.6642C111.18 86.8196 116.997 86.908 117.42 88.6006C117.844 90.2932 116.526 91.9208 114.264 91.6608C112.002 91.4008 109.938 90.6208 105.78 88.8216C101.623 87.0224 97.6839 84.9502 98.9527 82.8416C100.221 80.733 102.286 81.5 107.579 84.6642Z" fill="#FFB49F"/>
<path d="M103.944 80.6029C103.985 80.6227 104.029 80.6329 104.074 80.6329C104.119 80.6329 104.164 80.6227 104.204 80.6029C104.222 80.6029 105.912 79.8957 107.205 80.6731C107.275 80.7144 107.359 80.7263 107.438 80.7064C107.518 80.6865 107.586 80.6362 107.628 80.5665C107.67 80.4961 107.683 80.412 107.663 80.3326C107.643 80.2531 107.592 80.1849 107.522 80.1427C105.962 79.2093 104.046 79.9997 103.965 80.0335C103.927 80.0491 103.893 80.0721 103.865 80.101C103.836 80.1299 103.813 80.1642 103.798 80.202C103.783 80.2397 103.775 80.2801 103.776 80.3209C103.776 80.3616 103.785 80.4018 103.801 80.4391C103.826 80.5101 103.877 80.5688 103.944 80.6029Z" fill="black"/>
<path d="M103.83 91.1928C103.894 91.2237 103.966 91.232 104.035 91.2164C104.104 91.2008 104.166 91.1623 104.21 91.1071L108.417 85.7848C108.468 85.719 108.49 85.6356 108.48 85.5529C108.469 85.4703 108.427 85.3952 108.361 85.3441C108.295 85.2931 108.211 85.2703 108.129 85.2808C108.046 85.2913 107.971 85.3342 107.92 85.4L103.716 90.7222C103.665 90.7864 103.641 90.8682 103.651 90.9496C103.66 91.031 103.701 91.1054 103.765 91.1565L103.83 91.1928Z" fill="black"/>
<path d="M121.029 98.4054C121.766 98.4054 122.363 97.8082 122.363 97.0716C122.363 96.335 121.766 95.7378 121.029 95.7378C120.292 95.7378 119.695 96.335 119.695 97.0716C119.695 97.8082 120.292 98.4054 121.029 98.4054Z" fill="#FFAD00"/>
<path d="M121.627 95.8783C121.913 96.0223 122.138 96.2648 122.26 96.561C122.381 96.8573 122.392 97.1875 122.29 97.4912C122.188 97.7948 121.98 98.0515 121.704 98.2141C121.428 98.3767 121.103 98.4344 120.788 98.3765C120.473 98.3186 120.189 98.1491 119.989 97.899C119.789 97.6489 119.686 97.335 119.698 97.0149C119.711 96.6948 119.838 96.39 120.058 96.1564C120.277 95.9228 120.573 95.776 120.891 95.7431C121.145 95.717 121.4 95.7639 121.627 95.8783ZM121.903 95.3245C121.515 95.1305 121.074 95.0711 120.649 95.1556C120.224 95.2401 119.839 95.4637 119.554 95.7911C119.27 96.1185 119.103 96.5312 119.08 96.964C119.056 97.3969 119.177 97.8253 119.424 98.1818C119.67 98.5383 120.028 98.8026 120.442 98.933C120.855 99.0633 121.3 99.0525 121.707 98.902C122.113 98.7516 122.458 98.4701 122.687 98.102C122.916 97.7339 123.016 97.3 122.971 96.8689C122.938 96.5421 122.823 96.229 122.636 95.9589C122.449 95.6888 122.197 95.4705 121.903 95.3245Z" fill="black"/>
<path d="M111.745 82.4645C111.782 82.4834 111.823 82.4943 111.864 82.4966C111.906 82.4988 111.948 82.4923 111.987 82.4775C112.26 82.3813 113.11 82.1759 113.435 82.5165C113.463 82.5457 113.497 82.569 113.534 82.5851C113.572 82.6012 113.612 82.6099 113.653 82.6105C113.693 82.6111 113.734 82.6036 113.771 82.5886C113.809 82.5736 113.844 82.5513 113.873 82.523C113.902 82.4946 113.925 82.4608 113.942 82.4235C113.958 82.3861 113.966 82.346 113.967 82.3053C113.968 82.2646 113.96 82.2242 113.945 82.1864C113.93 82.1486 113.908 82.1141 113.879 82.0849C113.219 81.4037 111.922 81.8431 111.776 81.8977C111.719 81.9186 111.67 81.9556 111.634 82.0042C111.599 82.0527 111.578 82.1106 111.574 82.1708C111.571 82.2311 111.585 82.2909 111.616 82.3431C111.646 82.3953 111.691 82.4375 111.745 82.4645Z" fill="black"/>
<path d="M108.18 98.2701C108.077 98.2767 107.975 98.2419 107.897 98.1734C107.82 98.1049 107.772 98.0083 107.766 97.9048C107.759 97.8014 107.794 97.6996 107.862 97.6218C107.931 97.5441 108.027 97.4967 108.131 97.4901C108.682 97.4216 109.202 97.1939 109.626 96.8349C107.317 97.5551 104.751 96.2135 104.616 96.1407C104.529 96.0895 104.465 96.0067 104.438 95.9097C104.411 95.8126 104.423 95.7088 104.47 95.6201C104.518 95.5313 104.598 95.4645 104.694 95.4336C104.79 95.4027 104.894 95.4101 104.985 95.4543C105.021 95.4725 108.659 97.3679 110.765 95.2619C110.828 95.1995 110.91 95.1606 110.999 95.1515C111.087 95.1424 111.176 95.1637 111.25 95.2119C111.325 95.2601 111.381 95.3323 111.409 95.4165C111.437 95.5008 111.435 95.5921 111.404 95.6753C111.37 95.7689 110.515 97.9789 108.23 98.2753L108.18 98.2701Z" fill="#1D1D1B"/>
<path d="M104.8 86.5698C104.703 86.5702 104.609 86.534 104.538 86.4685C104.466 86.403 104.421 86.313 104.413 86.2162C104.407 85.9439 104.34 85.6764 104.218 85.4331C104.096 85.1898 103.921 84.9768 103.706 84.8096C102.785 84.1414 101.262 84.4768 101.246 84.4794C101.148 84.4966 101.046 84.4754 100.963 84.4201C100.88 84.3649 100.821 84.2798 100.799 84.1824C100.776 84.0851 100.792 83.9829 100.843 83.8968C100.894 83.8108 100.976 83.7476 101.072 83.7202C101.15 83.702 102.949 83.299 104.161 84.1778C104.47 84.4071 104.723 84.7026 104.903 85.0428C105.083 85.3829 105.185 85.7589 105.201 86.1434C105.206 86.1943 105.2 86.2457 105.186 86.2946C105.171 86.3436 105.146 86.389 105.113 86.4284C105.081 86.4678 105.041 86.5004 104.995 86.5242C104.95 86.548 104.901 86.5626 104.85 86.5672L104.8 86.5698Z" fill="#1D1D1B"/>
<path d="M114.16 90.7299C114.063 90.7303 113.969 90.6942 113.898 90.6287C113.826 90.5632 113.781 90.4731 113.773 90.3763C113.767 90.1041 113.7 89.8366 113.578 89.5933C113.456 89.3499 113.281 89.1369 113.066 88.9698C112.145 88.3016 110.622 88.6369 110.606 88.6395C110.508 88.6568 110.406 88.6356 110.323 88.5803C110.24 88.525 110.181 88.44 110.159 88.3426C110.136 88.2452 110.152 88.143 110.203 88.057C110.254 87.971 110.336 87.9078 110.432 87.8804C110.51 87.8622 112.309 87.4592 113.521 88.3379C113.83 88.5673 114.083 88.8628 114.263 89.2029C114.443 89.543 114.545 89.9191 114.561 90.3035C114.566 90.3545 114.561 90.4059 114.546 90.4548C114.531 90.5037 114.506 90.5492 114.474 90.5886C114.441 90.628 114.401 90.6605 114.355 90.6844C114.31 90.7082 114.261 90.7228 114.21 90.7273L114.16 90.7299Z" fill="#1D1D1B"/>
<path d="M176.43 209.16C176.387 209.16 176.344 209.153 176.303 209.139C176.205 209.105 176.125 209.034 176.08 208.941C176.035 208.848 176.028 208.741 176.061 208.643C178.549 201.43 173.62 196.885 173.57 196.841C173.493 196.772 173.446 196.675 173.441 196.572C173.435 196.469 173.47 196.367 173.539 196.29C173.608 196.213 173.705 196.166 173.808 196.16C173.912 196.154 174.013 196.19 174.09 196.259C174.145 196.308 179.452 201.199 176.8 208.897C176.773 208.974 176.723 209.04 176.657 209.087C176.591 209.134 176.511 209.16 176.43 209.16Z" fill="#1D1D1B"/>
<path d="M165.51 209.42C165.46 209.421 165.411 209.411 165.364 209.392C165.269 209.353 165.192 209.278 165.152 209.183C165.111 209.088 165.11 208.98 165.149 208.885C166.636 205.169 164.629 199.337 164.629 199.265C164.594 199.167 164.6 199.059 164.645 198.965C164.69 198.872 164.77 198.8 164.868 198.765C164.966 198.731 165.073 198.737 165.167 198.782C165.261 198.826 165.333 198.907 165.367 199.005C165.453 199.265 167.476 205.167 165.887 209.145C165.862 209.225 165.812 209.295 165.744 209.345C165.676 209.395 165.594 209.421 165.51 209.42Z" fill="#1D1D1B"/>
<path d="M156.348 206.339C156.267 206.34 156.187 206.315 156.121 206.269C156.055 206.222 156.005 206.156 155.978 206.079C155.937 205.954 154.957 202.99 156.072 201.043C156.095 200.995 156.128 200.951 156.168 200.916C156.209 200.881 156.256 200.854 156.307 200.838C156.358 200.822 156.412 200.817 156.466 200.823C156.519 200.828 156.571 200.845 156.617 200.871C156.664 200.898 156.704 200.934 156.737 200.977C156.769 201.02 156.792 201.069 156.804 201.121C156.816 201.173 156.818 201.228 156.808 201.28C156.798 201.333 156.778 201.383 156.748 201.428C155.807 203.079 156.709 205.804 156.717 205.83C156.75 205.928 156.743 206.035 156.697 206.128C156.651 206.221 156.57 206.293 156.472 206.326C156.432 206.337 156.39 206.341 156.348 206.339Z" fill="#1D1D1B"/>
<path d="M50.4936 97.9813C51.2733 97.9813 51.9054 97.3492 51.9054 96.5695C51.9054 95.7898 51.2733 95.1577 50.4936 95.1577C49.7139 95.1577 49.0818 95.7898 49.0818 96.5695C49.0818 97.3492 49.7139 97.9813 50.4936 97.9813Z" fill="#FFC140"/>
<path d="M36.1935 109.422C36.9733 109.422 37.6053 108.79 37.6053 108.01C37.6053 107.23 36.9733 106.598 36.1935 106.598C35.4138 106.598 34.7817 107.23 34.7817 108.01C34.7817 108.79 35.4138 109.422 36.1935 109.422Z" fill="#FFC140"/>
<path d="M47.8937 128.661C48.6735 128.661 49.3055 128.029 49.3055 127.25C49.3055 126.47 48.6735 125.838 47.8937 125.838C47.114 125.838 46.4819 126.47 46.4819 127.25C46.4819 128.029 47.114 128.661 47.8937 128.661Z" fill="#FFC140"/>
<path d="M75.1935 117.742C75.9732 117.742 76.6053 117.109 76.6053 116.33C76.6053 115.55 75.9732 114.918 75.1935 114.918C74.4138 114.918 73.7817 115.55 73.7817 116.33C73.7817 117.109 74.4138 117.742 75.1935 117.742Z" fill="#FFC140"/>
<path d="M71.5536 133.081C72.3334 133.081 72.9654 132.449 72.9654 131.67C72.9654 130.89 72.3334 130.258 71.5536 130.258C70.7739 130.258 70.1418 130.89 70.1418 131.67C70.1418 132.449 70.7739 133.081 71.5536 133.081Z" fill="#FFC140"/>
<path d="M102.234 125.541C103.013 125.541 103.645 124.909 103.645 124.13C103.645 123.35 103.013 122.718 102.234 122.718C101.454 122.718 100.822 123.35 100.822 124.13C100.822 124.909 101.454 125.541 102.234 125.541Z" fill="#FFC140"/>
<path d="M87.6735 144.001C88.4532 144.001 89.0853 143.369 89.0853 142.59C89.0853 141.81 88.4532 141.178 87.6735 141.178C86.8938 141.178 86.2617 141.81 86.2617 142.59C86.2617 143.369 86.8938 144.001 87.6735 144.001Z" fill="#FFC140"/>
<path d="M113.414 150.501C114.193 150.501 114.826 149.869 114.826 149.09C114.826 148.31 114.193 147.678 113.414 147.678C112.634 147.678 112.002 148.31 112.002 149.09C112.002 149.869 112.634 150.501 113.414 150.501Z" fill="#FFC140"/>
<path d="M78.3137 172.862C79.0934 172.862 79.7254 172.23 79.7254 171.45C79.7254 170.67 79.0934 170.038 78.3137 170.038C77.5339 170.038 76.9019 170.67 76.9019 171.45C76.9019 172.23 77.5339 172.862 78.3137 172.862Z" fill="#FFC140"/>
<path d="M100.674 167.922C101.453 167.922 102.085 167.29 102.085 166.51C102.085 165.73 101.453 165.098 100.674 165.098C99.8938 165.098 99.2617 165.73 99.2617 166.51C99.2617 167.29 99.8938 167.922 100.674 167.922Z" fill="#FFC140"/>
<path d="M122.254 191.581C123.033 191.581 123.665 190.949 123.665 190.17C123.665 189.39 123.033 188.758 122.254 188.758C121.474 188.758 120.842 189.39 120.842 190.17C120.842 190.949 121.474 191.581 122.254 191.581Z" fill="#FFC140"/>
<path d="M99.3737 188.981C100.153 188.981 100.786 188.349 100.786 187.57C100.786 186.79 100.153 186.158 99.3737 186.158C98.594 186.158 97.9619 186.79 97.9619 187.57C97.9619 188.349 98.594 188.981 99.3737 188.981Z" fill="#FFC140"/>
<path d="M128.234 167.922C129.013 167.922 129.645 167.29 129.645 166.51C129.645 165.73 129.013 165.098 128.234 165.098C127.454 165.098 126.822 165.73 126.822 166.51C126.822 167.29 127.454 167.922 128.234 167.922Z" fill="#FFC140"/>
<path d="M130.574 132.041C131.353 132.041 131.985 131.409 131.985 130.63C131.985 129.85 131.353 129.218 130.574 129.218C129.794 129.218 129.162 129.85 129.162 130.63C129.162 131.409 129.794 132.041 130.574 132.041Z" fill="#FFC140"/>
<path d="M164.894 155.442C165.673 155.442 166.306 154.81 166.306 154.03C166.306 153.25 165.673 152.618 164.894 152.618C164.114 152.618 163.482 153.25 163.482 154.03C163.482 154.81 164.114 155.442 164.894 155.442Z" fill="#FFC140"/>
<path d="M147.214 147.121C147.993 147.121 148.625 146.489 148.625 145.71C148.625 144.93 147.993 144.298 147.214 144.298C146.434 144.298 145.802 144.93 145.802 145.71C145.802 146.489 146.434 147.121 147.214 147.121Z" fill="#FFC140"/>
<path d="M150.594 177.541C151.373 177.541 152.005 176.909 152.005 176.13C152.005 175.35 151.373 174.718 150.594 174.718C149.814 174.718 149.182 175.35 149.182 176.13C149.182 176.909 149.814 177.541 150.594 177.541Z" fill="#FFC140"/>
<path d="M173.734 177.021C174.513 177.021 175.145 176.389 175.145 175.61C175.145 174.83 174.513 174.198 173.734 174.198C172.954 174.198 172.322 174.83 172.322 175.61C172.322 176.389 172.954 177.021 173.734 177.021Z" fill="#FFC140"/>
<path d="M183.97 208.51C183.882 208.511 183.794 208.498 183.71 208.471C183.612 208.439 183.522 208.388 183.445 208.32C183.367 208.253 183.304 208.171 183.258 208.08C183.212 207.988 183.184 207.888 183.177 207.786C183.17 207.683 183.183 207.58 183.216 207.483C184.256 204.363 184.188 201.62 183.021 199.304C181.133 195.565 176.996 194.187 176.955 194.171C176.854 194.142 176.76 194.094 176.678 194.028C176.597 193.962 176.529 193.88 176.48 193.787C176.431 193.695 176.401 193.593 176.392 193.489C176.383 193.384 176.395 193.279 176.427 193.179C176.46 193.079 176.512 192.987 176.581 192.908C176.65 192.829 176.734 192.765 176.829 192.719C176.923 192.673 177.026 192.647 177.131 192.642C177.235 192.637 177.34 192.653 177.438 192.689C177.633 192.752 182.235 194.288 184.412 198.602C185.774 201.3 185.87 204.454 184.698 207.977C184.647 208.131 184.549 208.264 184.419 208.36C184.288 208.455 184.131 208.508 183.97 208.51Z" fill="white"/>
<path d="M72.321 141.646C72.2703 141.645 72.2201 141.636 72.1728 141.617C72.1242 141.598 72.0801 141.569 72.0429 141.532C72.0058 141.495 71.9765 141.451 71.9566 141.402C71.9367 141.354 71.9268 141.302 71.9273 141.25C71.9278 141.197 71.9388 141.145 71.9596 141.097C74.2996 135.377 80.7528 125.828 80.8178 125.731C80.845 125.686 80.8813 125.646 80.9243 125.615C80.9674 125.585 81.0163 125.563 81.068 125.551C81.1198 125.54 81.1734 125.539 81.2254 125.549C81.2775 125.559 81.327 125.579 81.3709 125.609C81.4148 125.639 81.4522 125.677 81.4807 125.722C81.5093 125.767 81.5285 125.817 81.537 125.869C81.5456 125.921 81.5434 125.975 81.5306 126.026C81.5178 126.078 81.4947 126.126 81.4625 126.168C81.3975 126.264 74.999 135.734 72.6824 141.394C72.6546 141.467 72.6052 141.531 72.5407 141.576C72.4762 141.621 72.3996 141.645 72.321 141.646Z" fill="#1D1D1B"/>
<path d="M173.83 167.17C173.694 167.17 173.561 167.135 173.444 167.067C173.326 167 173.228 166.904 173.159 166.788C166.521 155.553 150.279 138.237 150.12 138.063C150.049 137.988 149.993 137.9 149.956 137.804C149.918 137.708 149.901 137.605 149.903 137.502C149.906 137.399 149.929 137.297 149.972 137.203C150.014 137.109 150.075 137.024 150.15 136.953C150.225 136.883 150.314 136.828 150.411 136.792C150.508 136.756 150.61 136.739 150.714 136.743C150.817 136.747 150.918 136.772 151.012 136.815C151.105 136.859 151.19 136.921 151.259 136.997C151.423 137.171 167.774 154.609 174.501 165.992C174.606 166.17 174.637 166.382 174.585 166.583C174.534 166.783 174.405 166.955 174.228 167.061C174.107 167.133 173.97 167.171 173.83 167.17Z" fill="white"/>
<path d="M177.08 117.518H176.388C168.097 117.411 162.658 115.544 162.431 115.464C162.301 115.418 162.194 115.323 162.134 115.199C162.074 115.074 162.066 114.931 162.112 114.801C162.157 114.671 162.253 114.564 162.377 114.504C162.501 114.444 162.644 114.436 162.775 114.481C162.829 114.502 168.31 116.382 176.443 116.478C187.198 116.602 197.751 113.55 206.78 107.705C206.895 107.632 207.036 107.608 207.169 107.637C207.303 107.667 207.42 107.748 207.494 107.863C207.569 107.978 207.595 108.118 207.566 108.252C207.538 108.386 207.458 108.504 207.344 108.579C198.329 114.415 187.819 117.519 177.08 117.518Z" fill="#1D1D1B"/>
<path d="M35.38 140.52C35.3141 140.521 35.2487 140.509 35.1876 140.484C26.5608 137.06 22.406 130.895 20.4404 126.329C18.311 121.389 18.2226 117.3 18.22 117.128C18.22 116.99 18.2748 116.858 18.3723 116.76C18.4698 116.663 18.6021 116.608 18.74 116.608C18.8779 116.608 19.0101 116.663 19.1077 116.76C19.2052 116.858 19.26 116.99 19.26 117.128C19.4524 120.178 20.1812 123.171 21.4128 125.968C23.303 130.341 27.294 136.246 35.5724 139.53C35.6775 139.579 35.7633 139.661 35.816 139.765C35.8687 139.868 35.8853 139.986 35.8632 140.1C35.841 140.214 35.7815 140.317 35.6939 140.393C35.6063 140.469 35.4958 140.514 35.38 140.52Z" fill="#1D1D1B"/>
<path d="M187.48 182.9C187.392 182.9 187.305 182.877 187.227 182.834C187.15 182.791 187.085 182.729 187.038 182.654C186.992 182.579 186.965 182.493 186.961 182.404C186.957 182.316 186.975 182.228 187.015 182.149C192.215 171.749 180.775 162.862 180.665 162.774C180.562 162.688 180.497 162.566 180.482 162.433C180.467 162.299 180.503 162.166 180.584 162.059C180.666 161.953 180.785 161.881 180.917 161.86C181.049 161.839 181.185 161.87 181.295 161.947C183.416 163.658 185.247 165.701 186.716 167.997C189.836 172.921 190.265 177.976 187.945 182.612C187.902 182.698 187.836 182.771 187.754 182.822C187.672 182.873 187.577 182.9 187.48 182.9Z" fill="#1D1D1B"/>
<path d="M20.0396 196.94C19.9235 196.939 19.8109 196.9 19.7198 196.828C19.6115 196.744 19.5411 196.619 19.524 196.483C19.507 196.347 19.5447 196.209 19.6288 196.1C19.7276 195.975 22.0754 193.006 26.6488 190.037C32.7255 186.099 39.8399 184.067 47.0796 184.2C47.2175 184.2 47.3498 184.255 47.4473 184.352C47.5448 184.45 47.5996 184.582 47.5996 184.72C47.5996 184.858 47.5448 184.99 47.4473 185.088C47.3498 185.185 47.2175 185.24 47.0796 185.24C29.8702 184.996 20.5596 196.623 20.4556 196.74C20.4064 196.803 20.3432 196.854 20.271 196.889C20.1989 196.923 20.1197 196.941 20.0396 196.94Z" fill="#1D1D1B"/>
<path d="M113.193 43.4053L112.054 42.1573C111.855 41.9357 111.591 41.7828 111.3 41.7205L109.644 41.3747C109.426 41.3289 109.222 41.2323 109.049 41.0929C108.876 40.9535 108.738 40.7752 108.647 40.5725C108.556 40.3698 108.514 40.1484 108.524 39.9263C108.535 39.7043 108.598 39.4879 108.708 39.2947L109.545 37.8257C109.69 37.5682 109.751 37.2718 109.719 36.9781L109.537 35.2985C109.513 35.0778 109.542 34.8547 109.621 34.6473C109.699 34.4398 109.826 34.2539 109.99 34.1046C110.154 33.9553 110.352 33.847 110.566 33.7883C110.78 33.7297 111.004 33.7224 111.222 33.7671L112.878 34.1051C113.168 34.1656 113.469 34.1329 113.739 34.0115L115.28 33.3199C115.483 33.2288 115.704 33.1868 115.926 33.1974C116.148 33.208 116.364 33.2709 116.557 33.3809C116.75 33.4909 116.914 33.6449 117.036 33.8304C117.158 34.0159 117.234 34.2276 117.259 34.4483L117.446 36.1279C117.483 36.4181 117.607 36.6903 117.802 36.9079L118.939 38.1611C119.087 38.3256 119.195 38.5228 119.253 38.7368C119.311 38.9509 119.318 39.1756 119.273 39.3927C119.228 39.6098 119.132 39.8132 118.994 39.9864C118.855 40.1596 118.678 40.2976 118.476 40.3893L116.937 41.0887C116.667 41.2105 116.442 41.4143 116.294 41.6711L115.46 43.1583C115.349 43.3514 115.195 43.5156 115.009 43.6375C114.823 43.7594 114.61 43.8355 114.389 43.8596C114.168 43.8837 113.944 43.8551 113.736 43.7761C113.528 43.6971 113.342 43.5701 113.193 43.4053Z" fill="#D9CFFF"/>
<path d="M114.228 44.2552C113.979 44.2555 113.733 44.2036 113.505 44.1029C113.278 44.0021 113.074 43.8547 112.907 43.6702L111.765 42.4196C111.621 42.2618 111.431 42.1535 111.222 42.1102L109.568 41.7618C109.291 41.7038 109.031 41.5811 108.81 41.4037C108.59 41.2263 108.414 40.9993 108.297 40.7411C108.18 40.4828 108.127 40.2007 108.14 39.9177C108.153 39.6347 108.232 39.3588 108.372 39.1124L109.207 37.6434C109.313 37.4575 109.358 37.2427 109.334 37.0298L109.152 35.3502C109.123 35.0693 109.16 34.7854 109.261 34.5216C109.362 34.2577 109.523 34.0213 109.732 33.8314C109.941 33.6415 110.192 33.5035 110.465 33.4286C110.737 33.3537 111.023 33.344 111.3 33.4002L112.956 33.7382C113.166 33.7826 113.385 33.7589 113.58 33.6706L115.122 32.979C115.38 32.863 115.663 32.8097 115.945 32.8234C116.228 32.8371 116.504 32.9174 116.75 33.0578C116.996 33.1981 117.206 33.3946 117.361 33.6312C117.517 33.8679 117.615 34.1379 117.646 34.4194L117.834 36.1016C117.86 36.3136 117.951 36.5124 118.094 36.671L119.23 37.9242C119.422 38.1345 119.562 38.3874 119.638 38.6622C119.714 38.937 119.723 39.2258 119.666 39.505C119.608 39.7842 119.485 40.0457 119.307 40.2681C119.128 40.4904 118.9 40.6673 118.64 40.7842L117.1 41.4602C116.905 41.548 116.742 41.6954 116.635 41.8814L115.795 43.3478C115.655 43.5946 115.458 43.8045 115.221 43.96C114.984 44.1156 114.713 44.2123 114.43 44.2422C114.363 44.2505 114.295 44.2548 114.228 44.2552ZM113.481 43.1424C113.59 43.2607 113.725 43.3518 113.875 43.4083C114.025 43.4648 114.186 43.4851 114.346 43.4677C114.505 43.4502 114.658 43.3954 114.793 43.3077C114.927 43.2201 115.039 43.102 115.119 42.963L115.959 41.4966C116.147 41.1685 116.433 40.9081 116.778 40.753L118.317 40.0536C118.464 39.9876 118.592 39.8878 118.693 39.7625C118.793 39.6371 118.862 39.4898 118.895 39.3325C118.927 39.1752 118.922 39.0125 118.88 38.8577C118.837 38.7028 118.758 38.5602 118.65 38.4416L117.516 37.1884C117.263 36.909 117.104 36.557 117.061 36.1822L116.874 34.5026C116.856 34.3431 116.801 34.1901 116.713 34.056C116.625 33.922 116.506 33.8106 116.367 33.731C116.227 33.6515 116.071 33.6059 115.911 33.5981C115.751 33.5904 115.591 33.6205 115.444 33.6862L113.9 34.3778C113.555 34.5324 113.17 34.5742 112.8 34.4974L111.144 34.1594C110.987 34.1269 110.825 34.132 110.67 34.1742C110.515 34.2164 110.373 34.2946 110.254 34.4023C110.136 34.5101 110.044 34.6443 109.987 34.7941C109.93 34.944 109.91 35.1051 109.927 35.2644L110.106 36.9466C110.148 37.3217 110.07 37.7004 109.883 38.0282L109.048 39.4998C108.969 39.6393 108.924 39.7954 108.917 39.9555C108.909 40.1157 108.94 40.2753 109.006 40.4215C109.071 40.5677 109.171 40.6962 109.296 40.7968C109.421 40.8973 109.567 40.9669 109.724 41L111.381 41.3458C111.75 41.423 112.086 41.615 112.34 41.8944L113.481 43.1424Z" fill="#1D1E1B"/>
<path d="M193.272 142.465L192.134 141.217C191.935 140.996 191.671 140.843 191.38 140.781L189.723 140.435C189.506 140.389 189.302 140.292 189.129 140.153C188.956 140.014 188.818 139.835 188.727 139.633C188.636 139.43 188.594 139.208 188.604 138.986C188.615 138.764 188.677 138.548 188.787 138.355L189.625 136.886C189.77 136.628 189.831 136.332 189.799 136.038L189.617 134.359C189.593 134.138 189.622 133.915 189.7 133.707C189.779 133.5 189.906 133.314 190.07 133.165C190.234 133.015 190.431 132.907 190.645 132.848C190.859 132.79 191.084 132.782 191.302 132.827L192.958 133.165C193.247 133.226 193.549 133.193 193.818 133.072L195.36 132.38C195.563 132.289 195.784 132.247 196.006 132.257C196.227 132.268 196.444 132.331 196.637 132.441C196.829 132.551 196.994 132.705 197.116 132.89C197.238 133.076 197.314 133.288 197.339 133.508L197.526 135.188C197.562 135.478 197.687 135.75 197.882 135.968L199.018 137.221C199.167 137.386 199.275 137.583 199.333 137.797C199.391 138.011 199.398 138.236 199.353 138.453C199.308 138.67 199.212 138.873 199.074 139.046C198.935 139.22 198.758 139.358 198.556 139.449L197.016 140.149C196.747 140.271 196.522 140.474 196.374 140.731L195.54 142.218C195.429 142.411 195.275 142.576 195.089 142.698C194.902 142.819 194.69 142.896 194.469 142.92C194.248 142.944 194.024 142.915 193.816 142.836C193.608 142.757 193.422 142.63 193.272 142.465Z" fill="#D9CFFF"/>
<path d="M194.308 143.315C194.059 143.316 193.813 143.264 193.585 143.163C193.358 143.062 193.154 142.915 192.987 142.73L191.845 141.48C191.701 141.322 191.511 141.214 191.302 141.17L189.648 140.822C189.371 140.764 189.111 140.641 188.89 140.464C188.67 140.286 188.494 140.059 188.377 139.801C188.261 139.543 188.207 139.261 188.22 138.978C188.233 138.695 188.312 138.419 188.452 138.172L189.287 136.703C189.393 136.518 189.438 136.303 189.414 136.09L189.232 134.41C189.203 134.129 189.24 133.845 189.341 133.582C189.442 133.318 189.603 133.081 189.812 132.891C190.021 132.702 190.272 132.564 190.545 132.489C190.817 132.414 191.103 132.404 191.38 132.46L193.036 132.798C193.246 132.843 193.465 132.819 193.66 132.731L195.202 132.039C195.46 131.923 195.743 131.87 196.026 131.883C196.309 131.897 196.584 131.977 196.83 132.118C197.076 132.258 197.286 132.455 197.442 132.691C197.597 132.928 197.695 133.198 197.727 133.479L197.914 135.162C197.94 135.374 198.031 135.572 198.174 135.731L199.31 136.984C199.503 137.195 199.642 137.447 199.718 137.722C199.794 137.997 199.803 138.286 199.746 138.565C199.688 138.844 199.565 139.106 199.387 139.328C199.208 139.551 198.98 139.727 198.72 139.844L197.181 140.52C196.985 140.608 196.822 140.756 196.715 140.941L195.875 142.408C195.735 142.655 195.538 142.865 195.301 143.02C195.064 143.176 194.793 143.272 194.51 143.302C194.443 143.311 194.375 143.315 194.308 143.315ZM193.561 142.202C193.668 142.322 193.803 142.415 193.953 142.471C194.103 142.528 194.265 142.547 194.425 142.527C194.586 142.512 194.741 142.459 194.876 142.371C195.012 142.283 195.125 142.164 195.205 142.023L196.044 140.557C196.232 140.229 196.519 139.968 196.863 139.813L198.403 139.114C198.549 139.048 198.678 138.948 198.778 138.823C198.878 138.697 198.948 138.55 198.98 138.393C199.013 138.235 199.007 138.073 198.965 137.918C198.922 137.763 198.844 137.62 198.735 137.502L197.602 136.248C197.348 135.969 197.189 135.617 197.147 135.242L196.96 133.563C196.942 133.403 196.886 133.25 196.798 133.116C196.71 132.982 196.591 132.871 196.452 132.791C196.313 132.712 196.157 132.666 195.996 132.658C195.836 132.65 195.676 132.681 195.53 132.746L193.98 133.438C193.635 133.592 193.25 133.634 192.88 133.557L191.224 133.219C191.067 133.187 190.905 133.192 190.75 133.234C190.595 133.276 190.453 133.355 190.334 133.462C190.216 133.57 190.124 133.704 190.067 133.854C190.011 134.004 189.99 134.165 190.007 134.324L190.187 136.007C190.228 136.382 190.15 136.76 189.963 137.088L189.128 138.56C189.049 138.699 189.004 138.855 188.997 139.016C188.989 139.176 189.02 139.335 189.086 139.482C189.151 139.628 189.251 139.756 189.376 139.857C189.501 139.957 189.648 140.027 189.804 140.06L191.461 140.406C191.83 140.483 192.166 140.675 192.42 140.954L193.561 142.202Z" fill="#1D1E1B"/>
<path d="M196.268 31.6971L193.359 31.5047C192.851 31.4714 192.345 31.5978 191.913 31.8661L189.44 33.4001C189.116 33.6026 188.748 33.7256 188.367 33.7591C187.987 33.7927 187.603 33.7358 187.248 33.5931C186.894 33.4505 186.578 33.2261 186.326 32.9381C186.074 32.6502 185.894 32.307 185.8 31.9363L185.085 29.1101C184.964 28.6178 184.691 28.1759 184.305 27.8465L182.075 25.9719C181.782 25.7265 181.551 25.4154 181.401 25.064C181.251 24.7126 181.186 24.3307 181.211 23.9494C181.236 23.5681 181.351 23.1981 181.546 22.8696C181.742 22.5412 182.012 22.2634 182.335 22.0589L184.802 20.4989C185.233 20.2276 185.568 19.8273 185.759 19.3549L186.851 16.6535C186.997 16.3019 187.223 15.9895 187.512 15.7416C187.801 15.4937 188.144 15.3172 188.514 15.2264C188.884 15.1356 189.27 15.1329 189.641 15.2187C190.011 15.3044 190.357 15.4762 190.649 15.7201L192.888 17.5843C193.28 17.9093 193.763 18.1038 194.271 18.1407L197.181 18.3461C197.562 18.3731 197.931 18.4898 198.259 18.6866C198.586 18.8834 198.863 19.1548 199.065 19.4787C199.268 19.8026 199.391 20.1698 199.425 20.5504C199.459 20.931 199.403 21.3142 199.261 21.6689L198.179 24.3755C197.991 24.8486 197.956 25.3685 198.078 25.8627L198.782 28.6915C198.874 29.062 198.877 29.449 198.791 29.8208C198.705 30.1927 198.532 30.5391 198.287 30.8319C198.042 31.1246 197.732 31.3555 197.381 31.5059C197.03 31.6562 196.649 31.7217 196.268 31.6971Z" fill="#D9CFFF"/>
<path d="M188.161 34.1803C187.533 34.1784 186.923 33.9684 186.427 33.5831C185.931 33.1978 185.577 32.6589 185.42 32.0509L184.705 29.2247C184.601 28.8096 184.368 28.4382 184.04 28.1639L181.809 26.2893C181.469 26.004 181.202 25.6424 181.028 25.2341C180.854 24.8258 180.78 24.3823 180.81 23.9396C180.84 23.4969 180.974 23.0677 181.202 22.6867C181.429 22.3057 181.743 21.9838 182.118 21.7471L184.586 20.1871C184.948 19.96 185.229 19.6242 185.389 19.2277L186.481 16.5263C186.648 16.1146 186.909 15.748 187.244 15.4564C187.579 15.1648 187.978 14.9564 188.409 14.8482C188.84 14.74 189.29 14.735 189.723 14.8337C190.156 14.9324 190.56 15.1319 190.901 15.4161L193.14 17.2829C193.469 17.5566 193.875 17.7195 194.302 17.7483L197.209 17.9537C197.651 17.9852 198.08 18.1206 198.461 18.3491C198.841 18.5775 199.163 18.8925 199.399 19.2684C199.634 19.6444 199.778 20.0707 199.818 20.5127C199.858 20.9546 199.794 21.3999 199.629 21.8121L198.548 24.5187C198.387 24.915 198.357 25.3522 198.462 25.7667L199.167 28.5955C199.274 29.0262 199.277 29.4761 199.178 29.9085C199.078 30.3409 198.878 30.7437 198.593 31.084C198.308 31.4243 197.947 31.6926 197.539 31.8669C197.13 32.0413 196.687 32.1168 196.244 32.0873L193.335 31.8949C192.908 31.8678 192.483 31.9751 192.121 32.2017L189.651 33.7435C189.205 34.0264 188.689 34.1778 188.161 34.1803ZM189.102 15.5487C188.932 15.5491 188.763 15.5701 188.598 15.6111C188.285 15.687 187.996 15.8366 187.753 16.0474C187.511 16.2582 187.323 16.5241 187.204 16.8227L186.112 19.5241C185.891 20.073 185.503 20.538 185.002 20.8527L182.534 22.4127C182.263 22.5838 182.035 22.8167 181.871 23.0924C181.706 23.3681 181.609 23.6787 181.587 23.9991C181.565 24.3194 181.62 24.6404 181.745 24.9358C181.871 25.2312 182.065 25.4928 182.311 25.6991L184.542 27.5711C184.995 27.9507 185.317 28.4639 185.462 29.0375L186.18 31.8403C186.259 32.1516 186.41 32.4398 186.621 32.6815C186.833 32.9232 187.098 33.1116 187.396 33.2315C187.694 33.3513 188.016 33.3991 188.336 33.3711C188.656 33.3431 188.965 33.2399 189.237 33.0701L191.71 31.5257C192.21 31.2121 192.797 31.0647 193.387 31.1045L196.296 31.2969C196.617 31.3185 196.938 31.264 197.233 31.1378C197.528 31.0116 197.789 30.8173 197.995 30.5709C198.201 30.3244 198.346 30.0328 198.417 29.7197C198.489 29.4067 198.486 29.0812 198.407 28.7697L197.705 25.9435C197.56 25.3694 197.601 24.7639 197.822 24.2145L198.904 21.5079C199.022 21.2098 199.069 20.888 199.04 20.5686C199.011 20.2492 198.907 19.9411 198.736 19.6694C198.566 19.3976 198.334 19.1699 198.059 19.0046C197.784 18.8393 197.474 18.7412 197.154 18.7181L194.24 18.5257C193.649 18.4854 193.086 18.2587 192.633 17.8783L190.394 16.0141C190.032 15.7096 189.575 15.5421 189.102 15.5409V15.5487Z" fill="#1D1E1B"/>
<path d="M182.28 14.9402C182.217 14.9403 182.156 14.9289 182.098 14.9064C181.969 14.8579 181.864 14.7604 181.807 14.6352C181.75 14.5099 181.745 14.3672 181.793 14.2382C181.853 14.077 183.314 10.2706 186.473 9.44639C188.345 8.96019 190.373 9.62319 192.495 11.4224C192.547 11.4664 192.59 11.5203 192.622 11.581C192.653 11.6417 192.672 11.708 192.678 11.7761C192.684 11.8442 192.676 11.9127 192.656 11.9778C192.635 12.0429 192.602 12.1034 192.557 12.1556C192.513 12.2078 192.46 12.2509 192.399 12.2823C192.338 12.3137 192.272 12.3328 192.204 12.3386C192.136 12.3444 192.067 12.3368 192.002 12.3161C191.937 12.2954 191.877 12.262 191.824 12.218C189.973 10.658 188.262 10.0574 186.739 10.4526C184.102 11.1364 182.779 14.5684 182.766 14.6126C182.727 14.7098 182.66 14.793 182.573 14.8514C182.487 14.9099 182.384 14.9408 182.28 14.9402Z" fill="#1D1D1B"/>
<path d="M199.44 36.5204C199.302 36.5304 199.166 36.4852 199.061 36.3947C198.957 36.3043 198.892 36.176 198.882 36.0381C198.872 35.9002 198.918 35.7639 199.008 35.6594C199.099 35.5548 199.227 35.4904 199.365 35.4804C201.172 35.2204 202.339 34.547 202.833 33.5044C203.767 31.5336 202.131 28.749 202.113 28.723C202.042 28.6047 202.021 28.4631 202.054 28.3293C202.088 28.1954 202.173 28.0803 202.291 28.0093C202.409 27.9383 202.551 27.9171 202.685 27.9505C202.819 27.9839 202.934 28.0691 203.005 28.1874C203.085 28.32 204.944 31.4712 203.785 33.9464C203.132 35.3244 201.705 36.1876 199.526 36.51L199.44 36.5204Z" fill="#1D1D1B"/>
<path d="M43.8276 44.7881C43.551 44.7876 43.2836 44.6891 43.0728 44.5101C42.8619 44.3312 42.7213 44.0833 42.6758 43.8105C41.2042 34.9393 42.8318 26.6869 46.6356 23.7463C48.0786 22.6283 49.7556 22.3995 51.3156 23.1015C56.7756 25.5299 55.3508 33.2883 55.2884 33.6159C55.2298 33.9207 55.0525 34.1897 54.7956 34.3638C54.5386 34.5378 54.223 34.6027 53.9182 34.5441C53.6134 34.4855 53.3444 34.3082 53.1703 34.0512C52.9963 33.7943 52.9314 33.4787 52.99 33.1739C53.003 33.1037 54.1288 26.9131 50.364 25.2387C49.584 24.8877 48.8196 25.0047 48.0552 25.5949C45.4552 27.6047 43.4974 34.5363 44.9742 43.4257C44.9995 43.5773 44.9947 43.7324 44.9601 43.8821C44.9254 44.0319 44.8616 44.1733 44.7722 44.2984C44.6829 44.4235 44.5698 44.5297 44.4394 44.6111C44.309 44.6924 44.1638 44.7473 44.0122 44.7725C43.9512 44.7823 43.8894 44.7875 43.8276 44.7881Z" fill="#D9CFFF"/>
<path d="M43.8274 45.1781C43.459 45.1777 43.1027 45.047 42.8214 44.809C42.5402 44.5711 42.3522 44.2413 42.2908 43.8781C40.7958 34.8717 42.4832 26.458 46.3962 23.442C47.9562 22.233 49.7762 21.986 51.4844 22.7504C57.2356 25.3062 55.7484 33.3559 55.6808 33.6965C55.6021 34.101 55.3665 34.4579 55.0255 34.6893C54.6845 34.9207 54.2658 35.0077 53.8608 34.9315C53.4563 34.8527 53.0994 34.6171 52.868 34.2761C52.6366 33.9351 52.5495 33.5164 52.6258 33.1115C52.6258 33.0543 53.697 27.1497 50.2234 25.6053C49.5682 25.3141 48.9624 25.4129 48.3124 25.9147C45.806 27.8543 43.9262 34.6325 45.377 43.3737C45.4105 43.5758 45.4038 43.7825 45.3574 43.9821C45.311 44.1817 45.2257 44.3701 45.1064 44.5367C44.9871 44.7033 44.8362 44.8448 44.6623 44.953C44.4883 45.0613 44.2948 45.1342 44.0926 45.1677C44.0046 45.178 43.9159 45.1814 43.8274 45.1781ZM49.5058 23.0936C48.5451 23.1091 47.6176 23.447 46.872 24.0531C43.1774 26.9131 41.6096 35.0095 43.0604 43.7455C43.0771 43.8465 43.1136 43.9433 43.1677 44.0303C43.2219 44.1173 43.2926 44.1927 43.3759 44.2524C43.4592 44.312 43.5534 44.3546 43.6532 44.3778C43.753 44.4011 43.8563 44.4044 43.9574 44.3877C44.0585 44.3709 44.1553 44.3345 44.2422 44.2803C44.3292 44.2262 44.4047 44.1555 44.4643 44.0722C44.5239 43.9889 44.5666 43.8947 44.5898 43.7949C44.613 43.6951 44.6164 43.5917 44.5996 43.4907C43.0994 34.4505 45.143 27.3706 47.8262 25.2906C48.7024 24.612 49.615 24.4768 50.5328 24.885C54.581 26.6843 53.3928 33.1842 53.3928 33.2519C53.3641 33.403 53.3808 33.5593 53.4406 33.701C53.5005 33.8427 53.601 33.9635 53.7294 34.0483C53.8578 34.133 54.0084 34.1779 54.1622 34.1773C54.3161 34.1767 54.4663 34.1306 54.594 34.0449C54.6792 33.9875 54.7522 33.9139 54.8089 33.8282C54.8656 33.7425 54.9047 33.6465 54.9242 33.5457C54.984 33.2285 56.3646 25.7665 51.175 23.4603C50.6509 23.2211 50.0819 23.0962 49.5058 23.0936Z" fill="#1D1E1B"/>
<path d="M69.773 71.4303C69.759 71.707 69.8436 71.9798 70.0116 72.2001C70.1796 72.4205 70.4202 72.5742 70.6908 72.6341C79.471 74.5737 87.7962 73.3855 90.9344 69.7429C92.1278 68.3597 92.445 66.7061 91.8262 65.0915C89.689 59.5041 81.8682 60.5207 81.5354 60.5675C81.2278 60.6099 80.9497 60.7727 80.7622 61.0202C80.5748 61.2676 80.4933 61.5794 80.5357 61.887C80.5781 62.1945 80.7409 62.4726 80.9884 62.6601C81.2358 62.8476 81.5476 62.9291 81.8552 62.8867C81.928 62.8867 88.1706 62.0807 89.6422 65.9287C89.9516 66.7347 89.793 67.4887 89.1638 68.2141C87.0214 70.6997 79.9962 72.2935 71.1952 70.3487C70.8921 70.282 70.5751 70.3382 70.3134 70.5048C70.0517 70.6715 69.8667 70.9351 69.799 71.2379C69.7866 71.3015 69.778 71.3657 69.773 71.4303Z" fill="#D9CFFF"/>
<path d="M78.818 73.9417C76.0547 73.9291 73.3009 73.6179 70.6046 73.0135C70.2445 72.9335 69.9244 72.7284 69.7011 72.4347C69.4779 72.141 69.3659 71.7777 69.3852 71.4093C69.3883 71.3218 69.3996 71.2347 69.419 71.1493C69.463 70.9492 69.546 70.7598 69.6633 70.5918C69.7805 70.4238 69.9298 70.2805 70.1024 70.1702C70.275 70.0598 70.4677 69.9846 70.6694 69.9487C70.8711 69.9128 71.0779 69.917 71.278 69.9611C79.9308 71.8721 86.7974 70.3511 88.867 67.9513C89.4026 67.3299 89.5326 66.7293 89.2778 66.0585C87.918 62.5199 81.9666 63.2635 81.9198 63.2713C81.5106 63.3269 81.0962 63.2179 80.7672 62.9684C80.4382 62.7189 80.2216 62.3491 80.1648 61.9401C80.135 61.7375 80.1462 61.5309 80.1975 61.3327C80.2489 61.1344 80.3394 60.9484 80.4638 60.7857C80.5886 60.6214 80.7448 60.4834 80.9233 60.3799C81.1019 60.2764 81.2991 60.2093 81.5038 60.1825C81.847 60.1331 89.9642 59.0749 92.2106 64.9535C92.884 66.7085 92.5408 68.4999 91.2512 69.9975C89.0282 72.5507 84.3794 73.9417 78.818 73.9417ZM70.94 70.7099C70.7913 70.7099 70.6458 70.7533 70.5214 70.8347C70.3476 70.9462 70.2252 71.1219 70.1808 71.3235C70.1707 71.3653 70.1646 71.408 70.1626 71.4509C70.1533 71.6351 70.2096 71.8166 70.3215 71.9632C70.4333 72.1097 70.5935 72.212 70.7736 72.2517C79.4212 74.1627 87.5904 73.0317 90.6402 69.4879C91.7348 68.2191 92.026 66.7059 91.4618 65.2317C89.4338 59.9199 81.9198 60.9105 81.5896 60.9599C81.4854 60.9706 81.3844 61.0022 81.2927 61.0527C81.201 61.1032 81.1204 61.1717 81.0557 61.2541C80.991 61.3365 80.9436 61.431 80.9163 61.5321C80.8889 61.6332 80.8822 61.7388 80.8965 61.8425C80.9108 61.9462 80.9459 62.046 80.9996 62.1359C81.0533 62.2258 81.1246 62.304 81.2092 62.3658C81.2937 62.4275 81.3899 62.4716 81.4919 62.4954C81.5939 62.5192 81.6996 62.5223 81.8028 62.5043C81.8678 62.5043 88.4224 61.6541 90.0058 65.7933C90.3646 66.7345 90.18 67.6367 89.4572 68.4739C87.242 71.0453 80.0582 72.7119 71.109 70.7359C71.0539 70.7207 70.9971 70.7119 70.94 70.7099Z" fill="#1D1E1B"/>
<path d="M34.1971 97.5497L28.9971 92.3081C26.7651 89.4001 24.1749 86.7855 21.2881 84.5263L16.0881 79.2847L13.8963 81.4557C13.8493 81.4885 13.805 81.5251 13.7637 81.5649C12.3519 82.9637 15.2561 88.1871 20.2637 93.2311C25.2713 98.2751 30.4531 101.229 31.8649 99.8299C31.9136 99.7905 31.9589 99.747 32.0001 99.6999V99.7129L34.1971 97.5497Z" fill="#FFAD00"/>
<path d="M30.8717 100.579C29.9591 100.579 28.7319 100.147 27.2317 99.297C25.0087 98.0334 22.4425 95.9794 20.0011 93.5146C17.5597 91.0498 15.5317 88.4654 14.2811 86.2346C13.0305 84.0038 12.7211 82.3346 13.3633 81.4688C13.4035 81.4127 13.4487 81.3605 13.4985 81.3128L13.5661 81.2504L13.6207 81.1906L16.0907 78.7466L21.5507 84.2456C24.4464 86.5207 27.0482 89.1469 29.2961 92.0638L34.7431 97.5654L32.0001 100.269H31.9871C31.6579 100.489 31.267 100.598 30.8717 100.579ZM14.4657 81.4558L14.5151 81.5052L14.1485 81.7834C14.1205 81.8045 14.0936 81.8271 14.0679 81.851C13.5479 82.371 13.8911 83.905 14.9727 85.8524C16.1843 88.026 18.1655 90.5532 20.5575 92.966C22.9495 95.3788 25.4585 97.386 27.6191 98.6184C29.5561 99.7208 31.0875 100.082 31.6101 99.5622C31.6355 99.5371 31.659 99.5102 31.6803 99.4816L31.9403 99.1098L32.0001 99.1696L33.6381 97.5472L28.6981 92.5422C27.596 91.1016 26.4009 89.7346 25.1205 88.4498C23.8472 87.1578 22.4915 85.9497 21.0619 84.8332L21.0229 84.7994L16.1037 79.836L14.4657 81.4558Z" fill="#1D1D1B"/>
<path d="M34.3201 97.4252C35.7319 96.0266 32.8262 90.8042 27.83 85.7607C22.8337 80.7171 17.6389 77.7623 16.2271 79.1609C14.8152 80.5595 17.7209 85.782 22.7172 90.8255C27.7134 95.8691 32.9082 98.8239 34.3201 97.4252Z" fill="#D9CFFF"/>
<path d="M33.3001 98.1661C32.3875 98.1661 31.1603 97.7345 29.6601 96.8843C27.4397 95.6207 24.8709 93.5667 22.4321 91.1045C19.9933 88.6423 17.9627 86.0527 16.7121 83.8245C15.3757 81.4195 15.1053 79.7139 15.9321 78.8845C16.7589 78.0551 18.4645 78.3463 20.8565 79.7061C23.0769 80.9697 25.6457 83.0211 28.0871 85.4859C30.5285 87.9507 32.5565 90.5377 33.8071 92.7659C35.1435 95.1682 35.4113 96.8738 34.5871 97.7058C34.4141 97.8645 34.2111 97.9869 33.9901 98.066C33.7691 98.145 33.5345 98.179 33.3001 98.1661ZM17.2269 79.2069C16.9613 79.1858 16.698 79.2698 16.4937 79.4409C15.9737 79.9609 16.3169 81.4923 17.4011 83.4397C18.6101 85.6133 20.5939 88.1405 22.9859 90.5533C25.3779 92.9661 27.8843 94.9733 30.0475 96.2057C31.9845 97.3081 33.5133 97.6695 34.0385 97.1521C34.5585 96.6321 34.2127 95.1007 33.1285 93.1507C31.9195 90.9797 29.9383 88.4525 27.5463 86.0371C25.1543 83.6217 22.6453 81.6171 20.4847 80.3873C19.1379 79.6177 17.9861 79.2069 17.2347 79.2069H17.2269Z" fill="#1D1E1B"/>
<path d="M30.7575 94.882C26.2049 92.0428 21.9695 88.6862 18.9691 83.3354C18.8644 83.1478 18.8131 82.935 18.8208 82.7203C18.8286 82.5056 18.895 82.2971 19.013 82.1175C19.1309 81.938 19.2958 81.7941 19.4898 81.7017C19.6837 81.6093 19.8993 81.5718 20.1131 81.5934C26.1711 82.0978 35.7885 76.0346 39.9329 63.8848L50.7905 74.3576C37.6371 78.2368 31.9743 86.8948 32.4033 93.8992C32.4163 94.097 32.3744 94.2946 32.2823 94.4702C32.1901 94.6458 32.0513 94.7925 31.8811 94.8941C31.7108 94.9958 31.5158 95.0484 31.3176 95.0463C31.1193 95.0442 30.9255 94.9873 30.7575 94.882Z" fill="#D9CFFF"/>
<path d="M31.3297 95.4385C31.0539 95.4381 30.7838 95.3607 30.5497 95.2149C26.4677 92.6799 21.8605 89.2999 18.6287 83.5279C18.4885 83.282 18.4187 83.0022 18.4269 82.7193C18.4352 82.4363 18.5212 82.1611 18.6755 81.9237C18.8326 81.6817 19.0525 81.4869 19.3117 81.3601C19.5709 81.2332 19.8596 81.1791 20.1471 81.2035C26.4391 81.7235 35.6587 75.2079 39.5639 63.7575L39.7615 63.1777L51.5447 74.5423L50.8999 74.7321C37.8193 78.5905 32.3801 87.1263 32.7935 93.8759C32.8055 94.0758 32.7766 94.2761 32.7086 94.4644C32.6405 94.6528 32.5347 94.8253 32.3977 94.9713C32.2607 95.1173 32.0953 95.2339 31.9116 95.3138C31.728 95.3937 31.53 95.4352 31.3297 95.4359V95.4385ZM30.9605 94.5519C31.0678 94.6188 31.1916 94.6542 31.318 94.6542C31.4444 94.6542 31.5682 94.6188 31.6755 94.5519C31.7855 94.4873 31.8753 94.3931 31.9345 94.28C31.9938 94.167 32.0203 94.0396 32.0109 93.9123C31.5845 86.9677 37.0029 78.2343 50.0367 74.1679L40.0995 64.5999C36.1215 75.6031 27.2789 82.0199 20.8439 82.0199C20.5839 82.0199 20.3239 82.0199 20.0821 81.9887C19.9359 81.9749 19.7887 82.0016 19.6567 82.0658C19.5246 82.13 19.4128 82.2292 19.3333 82.3527C19.2557 82.471 19.2124 82.6084 19.2083 82.7498C19.2042 82.8912 19.2393 83.031 19.3099 83.1535C22.4533 88.7591 26.9643 92.0637 30.9657 94.5597L30.9605 94.5519Z" fill="#1D1E1B"/>
<path d="M60.2256 27.3789L87.7274 55.1411L70.6803 72.0283C67.0001 75.674 62.0227 77.709 56.8425 77.686C51.6623 77.663 46.7033 75.5838 43.0556 71.9055C39.4086 68.224 37.3735 63.2445 37.3979 58.0625C37.4224 52.8805 39.5043 47.9204 43.1858 44.2735L60.2329 27.3863L60.2256 27.3789Z" fill="#FFAD00"/>
<path d="M56.9266 78.0652C54.2939 78.0701 51.6866 77.5516 49.2562 76.5397C46.8258 75.5278 44.6208 74.0428 42.7696 72.171C40.9274 70.3121 39.4695 68.1085 38.4792 65.6861C37.4889 63.2636 36.9855 60.6698 36.9978 58.0528C37.0101 55.4358 37.5379 52.8468 38.551 50.4338C39.5641 48.0208 41.0426 45.831 42.9022 43.9896L60.226 26.8296L88.2748 55.1436L70.951 72.3036C67.2218 76.0028 62.1793 78.0745 56.9266 78.0652ZM43.3234 71.6198C45.0892 73.4133 47.1936 74.8383 49.5144 75.8122C51.8353 76.7861 54.3265 77.2894 56.8434 77.293H56.937C59.4355 77.2987 61.9107 76.812 64.2211 75.8609C66.5315 74.9098 68.6319 73.5128 70.4024 71.7498L87.1724 55.1384L60.2208 27.9398L43.4404 44.5434C39.8401 48.1215 37.8059 52.9815 37.784 58.0574C37.762 63.1333 39.7541 68.0107 43.3234 71.6198Z" fill="#1D1D1B"/>
<path d="M92.0144 57.644C95.1411 54.5467 89.9529 44.2398 80.4263 34.6229C70.8997 25.0061 60.6422 19.7211 57.5154 22.8184C54.3887 25.9158 59.5769 36.2227 69.1035 45.8396C78.6301 55.4564 88.8876 60.7414 92.0144 57.644Z" fill="#FFAD00"/>
<path d="M89.46 58.9194C87.7102 58.9194 85.4456 58.2278 82.791 56.8602C78.4282 54.6112 73.4726 50.797 68.8368 46.117C64.201 41.437 60.4336 36.4476 58.2288 32.077C55.9564 27.566 55.6106 24.186 57.2538 22.5584C58.897 20.9308 62.2718 21.3104 66.762 23.6218C71.1248 25.8708 76.0804 29.685 80.7162 34.365C85.352 39.045 89.1194 44.0344 91.3242 48.418C93.594 52.929 93.9424 56.309 92.2992 57.9366C91.618 58.5892 90.656 58.9194 89.46 58.9194ZM60.08 22.3296C59.0868 22.3296 58.3068 22.5896 57.7868 23.1096C56.4244 24.459 56.8326 27.5998 58.91 31.7234C61.0784 36.0368 64.7964 40.956 69.375 45.5788C73.9536 50.2016 78.839 53.9664 83.1316 56.1764C87.237 58.2902 90.37 58.7296 91.735 57.3802C93.0974 56.0308 92.6892 52.89 90.6118 48.7664C88.4408 44.453 84.7254 39.5338 80.1468 34.911C75.5682 30.2882 70.6854 26.513 66.3954 24.3004C63.8578 23.0004 61.692 22.3296 60.08 22.3296Z" fill="#1D1D1B"/>
<path d="M88.5895 53.0924C89.8004 51.8929 84.8377 44.9199 77.5051 37.5178C70.1724 30.1157 63.2465 25.0875 62.0355 26.287C60.8246 27.4866 65.7873 34.4596 73.12 41.8617C80.4527 49.2638 87.3786 54.292 88.5895 53.0924Z" fill="#835D07"/>
<path d="M88.0979 53.641C85.2899 53.641 77.7343 47.0708 72.8463 42.136C69.2843 38.5429 66.1643 34.9341 64.0583 31.9753C60.6211 27.1445 61.4791 26.2917 61.7625 26.0109C62.0459 25.7301 62.9065 24.8799 67.7061 28.3509C70.6441 30.4829 74.2217 33.6393 77.7837 37.2325C83.2437 42.7314 90.6771 51.5636 88.8649 53.3524C88.7632 53.45 88.6428 53.5259 88.511 53.5755C88.3791 53.6251 88.2386 53.6474 88.0979 53.641ZM62.5685 26.4945C62.4761 26.4848 62.3834 26.5098 62.3085 26.5647C62.0771 26.7961 62.2747 28.1247 64.6927 31.5229C66.7727 34.4478 69.8641 38.0229 73.3975 41.5874C76.9309 45.152 80.4747 48.2798 83.3789 50.3884C86.7589 52.8376 88.0797 53.0482 88.3189 52.8168C88.5581 52.5854 88.3527 51.2568 85.9373 47.8586C83.8573 44.9336 80.7633 41.3586 77.2325 37.794C73.7017 34.2294 70.1553 31.1042 67.2485 28.9957C64.5003 27.0093 63.1197 26.4945 62.5685 26.4945Z" fill="#1D1D1B"/>
<path d="M59.8458 74.6958C58.8551 74.7 57.8719 74.5238 56.9442 74.1758C56.8483 74.1396 56.7604 74.0849 56.6856 74.0147C56.6108 73.9446 56.5506 73.8604 56.5083 73.7669C56.423 73.5782 56.4161 73.3634 56.4892 73.1696C56.5623 72.9758 56.7094 72.819 56.8981 72.7337C57.0868 72.6484 57.3017 72.6415 57.4954 72.7146C66.4108 76.0946 77.5154 58.3938 77.6168 58.2144C77.7269 58.041 77.901 57.9181 78.1011 57.8722C78.3013 57.8264 78.5115 57.8613 78.6861 57.9695C78.8607 58.0777 78.9856 58.2503 79.0336 58.45C79.0817 58.6497 79.0491 58.8603 78.9428 59.036C78.5086 59.7328 69.1174 74.6958 59.8458 74.6958Z" fill="white"/>
<path d="M43.7004 47.18C43.581 47.1798 43.4653 47.1385 43.3728 47.063C36.9794 41.863 33.3966 32.152 33.0092 18.983C32.8493 12.807 33.2952 6.63025 34.3404 0.541245C34.3498 0.470986 34.3734 0.40338 34.4098 0.34258C34.4462 0.28178 34.4947 0.22907 34.5522 0.187685C34.6098 0.146301 34.6752 0.117117 34.7444 0.101927C34.8137 0.0867359 34.8853 0.0858593 34.9548 0.0993498C35.0244 0.11284 35.0905 0.140413 35.1491 0.180376C35.2076 0.220338 35.2573 0.271846 35.2952 0.331736C35.3332 0.391625 35.3584 0.458632 35.3695 0.528641C35.3805 0.59865 35.3772 0.670182 35.3596 0.738844C34.3256 6.75914 33.8833 12.8662 34.0388 18.9726C34.2988 27.9322 36.2514 39.9364 44.0176 46.257C44.1001 46.3242 44.16 46.4151 44.1892 46.5174C44.2184 46.6198 44.2155 46.7286 44.1809 46.8292C44.1463 46.9298 44.0817 47.0174 43.9958 47.0801C43.9099 47.1429 43.8068 47.1777 43.7004 47.18Z" fill="#1D1D1B"/>
<path d="M42.1398 52.3802H42.0488C36.4666 51.3948 31.4746 47.1334 27.611 40.0588C25.8262 36.7541 24.4252 33.256 23.4354 29.6328C23.4184 29.5666 23.4145 29.4976 23.4241 29.4299C23.4337 29.3622 23.4565 29.297 23.4912 29.2381C23.526 29.1792 23.572 29.1277 23.6267 29.0866C23.6814 29.0454 23.7436 29.0155 23.8098 28.9984C23.8761 28.9813 23.945 28.9775 24.0128 28.9871C24.0805 28.9966 24.1457 29.0195 24.2046 29.0542C24.2635 29.089 24.315 29.135 24.3561 29.1897C24.3972 29.2443 24.4272 29.3066 24.4442 29.3728C24.4936 29.5704 29.4596 49.0912 42.2308 51.3454C42.3687 51.3575 42.4962 51.4238 42.5852 51.5299C42.6742 51.6359 42.7174 51.773 42.7053 51.9109C42.6933 52.0488 42.6269 52.1763 42.5209 52.2653C42.4148 52.3543 42.2777 52.3975 42.1398 52.3854V52.3802Z" fill="#1D1D1B"/>
<path d="M23.1599 80.7201C23.1599 80.7201 18.6775 79.5839 20.2739 71.6929C21.8703 63.8019 25.8041 56.9873 31.7919 55.2765C37.7797 53.5657 42.0073 55.9655 43.8533 58.9529C45.6993 61.9403 44.2823 65.1643 40.0885 66.7295C40.0885 66.7295 42.2543 72.4703 34.7169 74.7895C34.7169 74.7895 34.6103 84.5707 27.3095 79.7295L23.1599 80.7201Z" fill="#FFCDB2"/>
<path d="M35.6399 54.7043C39.5945 54.7043 42.4233 56.6543 43.8429 58.9527C45.6915 61.9375 44.2719 65.1641 40.0781 66.7293C40.0781 66.7293 42.2439 72.4701 34.7065 74.7893C34.7065 74.7893 34.6389 81.0735 30.8507 81.0735C29.9121 81.0735 28.7473 80.6887 27.2991 79.7293L23.16 80.7199C23.16 80.7199 18.6776 79.5837 20.2739 71.6927C21.8703 63.8017 25.8041 56.9871 31.7919 55.2763C33.0452 54.9071 34.3439 54.7145 35.6503 54.7043H35.6399ZM35.6503 53.9243C34.271 53.9351 32.8999 54.1373 31.5761 54.5249C28.5367 55.3933 25.8978 57.4837 23.7346 60.7337C21.8158 63.6197 20.3546 67.3559 19.5096 71.5367C18.8024 75.0337 19.1326 77.7533 20.4872 79.6227C21.0835 80.5005 21.9568 81.1532 22.9675 81.4765L23.1547 81.5233L23.3419 81.4791L27.1665 80.5613C28.5289 81.4167 29.7665 81.8613 30.8611 81.8613C32.2027 81.8613 34.0019 81.2217 34.9535 78.1719C35.2296 77.2606 35.404 76.3214 35.4735 75.3717C37.9539 74.5111 39.6517 73.1773 40.5227 71.3989C41.1433 70.0913 41.3169 68.6159 41.0167 67.1999C43.1253 66.2665 44.5839 64.8599 45.1585 63.1803C45.6785 61.6671 45.4549 60.0603 44.5189 58.5497C42.7301 55.6585 39.4151 53.9321 35.6503 53.9321V53.9243Z" fill="#1D1D1B"/>
<path d="M40.0602 67.0695C39.9958 67.0697 39.9324 67.054 39.8757 67.0235C39.8189 66.9931 39.7706 66.949 39.7352 66.8953C35.7728 60.9543 28.784 62.6209 28.7138 62.6391C28.6131 62.6639 28.5067 62.6477 28.418 62.5941C28.3292 62.5405 28.2654 62.4538 28.2406 62.3531C28.2158 62.2524 28.232 62.146 28.2856 62.0573C28.3393 61.9685 28.4259 61.9047 28.5266 61.8799C28.602 61.8617 36.1212 60.0599 40.3852 66.4637C40.4136 66.5064 40.4332 66.5542 40.4431 66.6045C40.453 66.6548 40.4528 66.7065 40.4427 66.7567C40.4325 66.8069 40.4126 66.8547 40.384 66.8972C40.3554 66.9397 40.3187 66.9762 40.276 67.0045C40.2122 67.0474 40.137 67.07 40.0602 67.0695Z" fill="black"/>
<path d="M34.7296 75.2597H34.662C27.265 73.9389 25.6036 70.5043 25.536 70.3587C25.4973 70.2657 25.4961 70.1612 25.5327 70.0673C25.5692 69.9734 25.6407 69.8973 25.7322 69.855C25.8236 69.8126 25.9279 69.8073 26.0232 69.8401C26.1184 69.873 26.1973 69.9414 26.2432 70.0311C26.2666 70.0805 27.8708 73.2525 34.7972 74.4901C34.9007 74.4991 34.9963 74.5487 35.0631 74.6282C35.1299 74.7077 35.1624 74.8105 35.1534 74.9139C35.1445 75.0173 35.0948 75.113 35.0153 75.1798C34.9358 75.2466 34.8331 75.2791 34.7296 75.2701V75.2597Z" fill="black"/>
<path d="M43.8299 61.9999C43.7144 61.9998 43.6009 61.9689 43.5013 61.9104C43.4017 61.8519 43.3195 61.768 43.2631 61.6671C38.6897 53.4823 30.9495 57.5825 30.6219 57.7671C30.4717 57.8404 30.2991 57.8531 30.1399 57.8025C29.9807 57.7518 29.847 57.6419 29.7667 57.4953C29.6864 57.3488 29.6657 57.177 29.7087 57.0155C29.7517 56.8541 29.8553 56.7154 29.9979 56.6283C30.0889 56.5763 39.2045 51.7455 44.3967 61.0483C44.4382 61.1233 44.4644 61.2058 44.4738 61.291C44.4832 61.3762 44.4756 61.4624 44.4514 61.5447C44.4273 61.6269 44.387 61.7035 44.3329 61.77C44.2789 61.8366 44.2122 61.8917 44.1367 61.9323C44.0417 61.9801 43.9362 62.0033 43.8299 61.9999Z" fill="white"/>
</svg>
