<svg width="25" height="25" viewBox="0 0 25 25" fill="none" xmlns="http://www.w3.org/2000/svg">
<path opacity="0.3" fill-rule="evenodd" clip-rule="evenodd" d="M5.20825 7.29167C5.20825 9.59285 7.07373 11.4583 9.37492 11.4583C11.6761 11.4583 13.5416 9.59285 13.5416 7.29167C13.5416 4.99048 11.6761 3.125 9.37492 3.125C7.07373 3.125 5.20825 4.99048 5.20825 7.29167ZM15.6249 11.4583C15.6249 13.1842 17.024 14.5833 18.7499 14.5833C20.4758 14.5833 21.8749 13.1842 21.8749 11.4583C21.8749 9.73244 20.4758 8.33333 18.7499 8.33333C17.024 8.33333 15.6249 9.73244 15.6249 11.4583Z" fill="#00B2FF"/>
<path fill-rule="evenodd" clip-rule="evenodd" d="M9.35765 13.5415C4.43949 13.5415 0.404436 16.0691 0.000678838 21.0407C-0.0213143 21.3115 0.496575 21.8748 0.757815 21.8748H17.9653C18.7478 21.8748 18.76 21.2451 18.7478 21.0415C18.4426 15.9302 14.345 13.5415 9.35765 13.5415ZM24.4333 21.8748H20.4167C20.4167 19.5301 19.642 17.3663 18.3346 15.6255C21.883 15.6643 24.7804 17.4583 24.9984 21.2498C25.0072 21.4026 24.9984 21.8748 24.4333 21.8748Z" fill="#00B2FF"/>
</svg>
