<svg width="26" height="26" viewBox="0 0 26 26" fill="none" xmlns="http://www.w3.org/2000/svg">
<path fill-rule="evenodd" clip-rule="evenodd" d="M5.33325 3.25C4.78097 3.25 4.33325 3.69772 4.33325 4.25V21.75C4.33325 22.3023 4.78097 22.75 5.33325 22.75H6.58325C7.13554 22.75 7.58325 22.3023 7.58325 21.75V4.25C7.58325 3.69772 7.13554 3.25 6.58325 3.25H5.33325ZM10.7499 3.25C10.1976 3.25 9.74992 3.69772 9.74992 4.25V21.75C9.74992 22.3023 10.1976 22.75 10.7499 22.75H11.9999C12.5522 22.75 12.9999 22.3023 12.9999 21.75V4.25C12.9999 3.69772 12.5522 3.25 11.9999 3.25H10.7499Z" fill="#FFA800"/>
<rect opacity="0.3" x="14.6003" y="4.25098" width="3.25" height="19.5" rx="1" transform="rotate(-19 14.6003 4.25098)" fill="#FFA800"/>
</svg>
