<svg width="260" height="260" viewBox="0 0 260 260" fill="none" xmlns="http://www.w3.org/2000/svg">
<path d="M198.51 235.352L55.8481 234.494C55.5621 234.494 55.3281 234.26 55.3281 233.974C55.3281 233.688 55.5621 233.454 55.8481 233.454L198.51 234.312C198.796 234.312 199.03 234.546 199.03 234.832C199.03 235.118 198.796 235.352 198.51 235.352Z" fill="black"/>
<path d="M61.1259 227.786L40.6119 227.786C40.4039 227.786 40.2219 227.604 40.2219 227.396C40.2219 227.188 40.4039 227.006 40.6119 227.006L61.1259 227.006C61.3339 227.006 61.5159 227.188 61.5159 227.396C61.5159 227.604 61.3339 227.786 61.1259 227.786Z" fill="black"/>
<path d="M183.04 104.676C183.04 104.676 181.974 97.5522 189.15 95.0562C196.326 92.5602 203.788 92.4562 208.052 96.5122C212.316 100.568 212.42 105.144 210.886 108.108C209.352 111.072 206.05 111.462 202.748 108.784C202.748 108.784 199.134 113.308 193.596 108.29C193.596 108.29 185.588 112.918 186.004 104.65L183.04 104.676Z" fill="#FFCDB2"/>
<path d="M200.174 93.3661C203.268 93.6001 206.024 94.5881 208.078 96.5121C212.368 100.542 212.446 105.144 210.912 108.108C210.002 109.85 208.494 110.708 206.726 110.552C205.478 110.448 204.126 109.876 202.774 108.784C202.774 108.784 201.11 110.864 198.328 110.656C197.002 110.552 195.416 109.928 193.622 108.316C193.622 108.316 191.126 109.772 188.994 109.59C187.304 109.46 185.848 108.316 186.03 104.676L183.04 104.702C183.04 104.702 181.974 97.5781 189.15 95.0821C192.92 93.7561 196.768 93.1061 200.174 93.3661ZM200.226 92.7941C196.846 92.5341 192.946 93.1321 188.968 94.5361C185.016 95.9141 183.456 98.6441 182.858 100.672C182.442 101.998 182.312 103.402 182.468 104.806C182.52 105.066 182.728 105.274 183.014 105.3L183.066 105.3L185.432 105.274C185.432 109.096 187.33 110.058 188.968 110.188C190.762 110.318 192.738 109.434 193.57 109.018C195.156 110.37 196.742 111.124 198.302 111.228C199.992 111.332 201.63 110.734 202.852 109.564C204.126 110.5 205.452 111.02 206.7 111.124C208.728 111.28 210.47 110.266 211.458 108.368C212.368 106.6 212.654 104.572 212.29 102.622C211.874 100.282 210.574 98.0201 208.52 96.0961C206.466 94.1721 203.658 93.0281 200.226 92.7941Z" fill="black"/>
<path d="M202.592 109.876C202.54 109.876 202.488 109.876 202.436 109.85C202.228 109.772 202.15 109.538 202.228 109.33C205.036 102.83 200.928 98.3841 200.746 98.2021C200.59 98.0461 200.616 97.7861 200.772 97.6561C200.928 97.5261 201.162 97.5261 201.318 97.6561C201.37 97.7081 205.972 102.648 202.956 109.616C202.878 109.772 202.748 109.85 202.592 109.876Z" fill="#1D1D1B"/>
<path d="M193.752 109.226C193.7 109.226 193.622 109.226 193.57 109.2C193.388 109.096 193.31 108.862 193.388 108.68C195.104 105.17 193.596 99.3464 193.596 99.2944C193.544 99.0864 193.674 98.8784 193.882 98.8264C194.09 98.7744 194.298 98.9044 194.35 99.1124C194.428 99.3724 195.962 105.274 194.09 109.07C194.038 109.148 193.908 109.226 193.752 109.226Z" fill="#1D1D1B"/>
<path d="M185.77 105.716C185.588 105.716 185.432 105.586 185.38 105.43C185.328 105.274 184.444 101.686 185.952 99.476C186.056 99.294 186.29 99.242 186.498 99.346C186.706 99.45 186.732 99.684 186.628 99.892L186.602 99.918C185.302 101.816 186.134 105.196 186.16 105.248C186.212 105.456 186.082 105.664 185.874 105.716C185.822 105.716 185.796 105.716 185.77 105.716Z" fill="#1D1D1B"/>
<path d="M209.222 109.096C208.78 109.096 208.442 108.732 208.442 108.316C208.442 108.212 208.468 108.108 208.494 108.03C209.56 105.508 209.69 103.22 208.858 101.218C207.532 97.9941 204.152 96.5641 204.126 96.5381C203.736 96.3821 203.528 95.9141 203.71 95.5241C203.892 95.1341 204.334 94.9261 204.724 95.1081C204.88 95.1861 208.728 96.7981 210.288 100.62C211.276 103.012 211.146 105.716 209.924 108.654C209.846 108.888 209.534 109.096 209.222 109.096Z" fill="white"/>
<path d="M241.644 152.022L231.894 152.022C231.608 152.022 231.296 152.048 231.01 152.074C229.086 143.676 225.472 135.772 220.376 128.83L226.044 122.486C228.722 119.496 228.462 114.894 225.472 112.216L214.032 101.972C211.042 99.2939 206.44 99.5539 203.762 102.544L197.47 109.564C192.842 107.276 187.954 105.56 182.91 104.468L182.91 95.6799C182.91 91.6499 179.66 88.3999 175.63 88.3999L160.29 88.3999C156.26 88.3999 153.01 91.6499 153.01 95.6799L153.01 105.248C146.9 106.886 141.05 109.46 135.72 112.84L128.622 106.496C125.632 103.818 121.03 104.078 118.352 107.068L108.108 118.508C105.43 121.498 105.69 126.1 108.68 128.778L114.92 134.368C111.722 139.854 109.356 145.808 107.926 151.996L98.6699 151.996C94.6399 151.996 91.3899 155.246 91.3899 159.276L91.3899 174.616C91.3899 178.646 94.6399 181.896 98.6699 181.896L108.316 181.896C109.98 188.396 112.71 194.61 116.35 200.252L110.084 207.246C107.406 210.236 107.666 214.838 110.656 217.516L122.096 227.734C125.086 230.412 129.688 230.152 132.366 227.162L138.034 220.87C143.494 224.016 149.37 226.304 155.532 227.682C155.506 227.864 155.506 228.072 155.506 228.254L155.506 234.364L185.406 234.364L185.406 228.28C185.406 227.942 185.38 227.578 185.328 227.24C192.27 225.446 198.822 222.482 204.776 218.452C204.932 218.634 205.114 218.816 205.296 218.972L212.576 225.472C215.566 228.124 220.142 227.864 222.82 224.9L233.038 213.46C235.716 210.47 235.456 205.868 232.466 203.19L225.186 196.69C225.082 196.586 224.952 196.482 224.822 196.404C227.344 191.802 229.294 186.914 230.594 181.818C231.01 181.896 231.452 181.922 231.868 181.922L241.618 181.922C245.648 181.922 248.898 178.672 248.898 174.642L248.898 159.302C248.924 155.272 245.648 152.022 241.644 152.022ZM169.598 211.12C144.69 211.12 124.514 190.944 124.514 166.036C124.514 141.128 144.69 120.952 169.598 120.952C194.506 120.952 214.682 141.128 214.682 166.036C214.708 190.918 194.532 211.12 169.598 211.12C169.624 211.12 169.624 211.12 169.598 211.12Z" fill="#D9CFFF"/>
<path d="M185.796 234.78L155.116 234.78L155.116 228.28C155.116 228.202 155.116 228.098 155.116 227.994C149.162 226.616 143.442 224.38 138.112 221.364L132.678 227.422C129.844 230.568 125.008 230.854 121.862 228.02L110.422 217.802C107.276 214.994 106.99 210.132 109.798 206.986L115.856 200.2C112.32 194.662 109.694 188.63 108.03 182.286L98.67 182.286C94.432 182.286 91.026 178.854 91 174.616L91 159.276C91 155.038 94.432 151.606 98.67 151.606L107.64 151.606C109.044 145.574 111.332 139.802 114.426 134.446L108.42 129.116C105.274 126.308 104.988 121.446 107.822 118.3L118.066 106.86C120.9 103.714 125.736 103.428 128.882 106.262L135.746 112.398C140.972 109.122 146.64 106.6 152.594 104.988L152.594 95.6798C152.594 91.4418 156.026 88.0358 160.264 88.0098L175.604 88.0098C179.842 88.0098 183.274 91.4158 183.3 95.6538L183.3 104.156C188.162 105.248 192.894 106.886 197.392 109.096L203.476 102.284C206.31 99.1378 211.146 98.8518 214.292 101.686L225.732 111.93C228.878 114.738 229.164 119.6 226.33 122.746L220.87 128.856C225.836 135.668 229.398 143.442 231.322 151.658C231.53 151.632 231.712 151.632 231.92 151.632L241.67 151.632C245.908 151.632 249.314 155.064 249.34 159.302L249.34 174.642C249.34 178.88 245.908 182.312 241.67 182.312L231.92 182.312C231.582 182.312 231.27 182.286 230.932 182.234C229.658 187.122 227.786 191.828 225.394 196.274L225.524 196.378L232.804 202.878C235.95 205.712 236.236 210.548 233.402 213.694L223.184 225.134C220.376 228.28 215.514 228.566 212.368 225.758L205.088 219.258C204.984 219.154 204.88 219.05 204.776 218.946C198.978 222.82 192.582 225.732 185.822 227.5C185.848 227.76 185.848 227.994 185.874 228.254L185.796 234.78ZM155.896 234L185.016 234L185.016 228.28C185.016 227.942 184.99 227.63 184.938 227.292L184.886 226.954L185.224 226.876C192.114 225.082 198.64 222.144 204.542 218.166L204.828 217.984L205.062 218.244C205.218 218.426 205.4 218.582 205.556 218.738L212.836 225.238C215.67 227.76 220.012 227.526 222.56 224.692L232.778 213.252C235.3 210.418 235.066 206.076 232.232 203.528L224.952 197.028C224.848 196.924 224.744 196.846 224.614 196.742L224.354 196.534L224.51 196.248C227.006 191.672 228.93 186.81 230.23 181.74L230.308 181.402L230.672 181.454C231.062 181.532 231.478 181.558 231.868 181.558L241.618 181.558C245.414 181.558 248.482 178.464 248.508 174.668L248.508 159.328C248.508 155.532 245.414 152.464 241.618 152.438L231.868 152.438C231.582 152.438 231.296 152.464 231.01 152.49L230.672 152.542L230.594 152.204C228.696 143.858 225.108 135.98 220.012 129.09L219.83 128.83L225.706 122.252C228.228 119.418 227.994 115.076 225.16 112.528L213.72 102.284C210.886 99.7618 206.544 99.9958 203.996 102.83L197.522 110.058L197.262 109.928C192.66 107.64 187.798 105.95 182.78 104.858L182.468 104.78L182.468 95.6798C182.468 91.8838 179.374 88.7898 175.578 88.7898L160.238 88.7898C156.442 88.7898 153.348 91.8578 153.348 95.6538L153.348 105.508L153.062 105.586C146.978 107.224 141.206 109.772 135.876 113.152L135.616 113.308L128.31 106.782C125.476 104.26 121.134 104.494 118.586 107.328L108.342 118.768C105.82 121.602 106.054 125.944 108.888 128.492L115.388 134.29L115.232 134.576C112.034 140.036 109.694 145.938 108.29 152.1L108.212 152.412L98.644 152.412C94.848 152.412 91.78 155.506 91.754 159.302L91.754 174.642C91.754 178.438 94.848 181.506 98.644 181.532L108.602 181.532L108.68 181.818C110.344 188.292 113.048 194.454 116.662 200.044L116.818 200.304L110.37 207.532C107.848 210.366 108.082 214.708 110.916 217.256L122.356 227.474C125.19 229.996 129.532 229.762 132.08 226.928L137.93 220.376L138.216 220.532C143.624 223.652 149.5 225.94 155.584 227.318L155.922 227.396L155.896 227.734C155.87 227.942 155.87 228.124 155.87 228.28L155.896 234ZM169.598 211.484C144.508 211.484 124.124 191.074 124.124 166.01C124.124 140.946 144.534 120.536 169.598 120.536C194.662 120.536 215.072 140.946 215.072 166.01C215.072 191.074 194.688 211.484 169.598 211.484ZM169.598 121.316C144.95 121.316 124.904 141.362 124.904 166.01C124.904 190.658 144.95 210.704 169.598 210.704C194.246 210.704 214.292 190.658 214.292 166.01C214.292 141.362 194.272 121.316 169.598 121.316Z" fill="#1D1E1B"/>
<path d="M190.242 141.258C191.405 141.258 192.348 140.315 192.348 139.152C192.348 137.989 191.405 137.046 190.242 137.046C189.079 137.046 188.136 137.989 188.136 139.152C188.136 140.315 189.079 141.258 190.242 141.258Z" fill="#FFC140"/>
<path d="M186.81 163.826C187.973 163.826 188.916 162.883 188.916 161.72C188.916 160.557 187.973 159.614 186.81 159.614C185.646 159.614 184.704 160.557 184.704 161.72C184.704 162.883 185.646 163.826 186.81 163.826Z" fill="#FFC140"/>
<path d="M228.02 154.7C227.63 154.7 227.292 154.388 227.24 153.998C225.472 137.124 214.396 128.622 214.292 128.544C213.954 128.284 213.876 127.79 214.136 127.452C214.396 127.114 214.89 127.036 215.228 127.296C215.696 127.66 226.954 136.292 228.8 153.842C228.852 154.258 228.54 154.648 228.098 154.7C228.072 154.7 228.046 154.7 228.02 154.7Z" fill="white"/>
<path d="M221.52 222.82C221.338 222.82 221.13 222.742 221 222.612C220.688 222.326 220.662 221.832 220.948 221.52C221 221.442 226.98 214.968 230.308 211.38C230.958 210.73 231.322 209.846 231.27 208.91C231.14 206.7 228.826 204.724 228.8 204.698C228.488 204.412 228.462 203.918 228.748 203.606C229.034 203.294 229.476 203.268 229.814 203.528C229.944 203.632 232.648 205.946 232.83 208.832C232.908 210.184 232.414 211.51 231.452 212.472C228.124 216.06 222.144 222.534 222.092 222.612C221.936 222.742 221.728 222.82 221.52 222.82Z" fill="white"/>
<path d="M245.96 173.42C245.518 173.42 245.18 173.082 245.18 172.64L245.18 166.14C245.18 166.036 245.206 165.932 245.258 165.828C245.284 165.594 245.388 164.606 245.18 160.706C245.102 159.354 244.686 158.34 243.906 157.742C242.528 156.65 240.396 157.014 240.396 157.014C239.98 157.092 239.564 156.806 239.486 156.39C239.408 155.974 239.694 155.558 240.11 155.48C240.214 155.454 242.944 154.96 244.894 156.494C246.038 157.404 246.662 158.782 246.766 160.628C246.948 164.476 246.896 165.75 246.766 166.27L246.766 172.64C246.74 173.082 246.402 173.42 245.96 173.42ZM245.96 165.36C245.804 165.36 245.622 165.412 245.492 165.516C245.622 165.412 245.804 165.36 245.96 165.36Z" fill="white"/>
<path d="M143 113.1C142.558 113.1 142.22 112.762 142.22 112.32C142.22 112.06 142.35 111.8 142.584 111.67C142.948 111.436 151.762 105.82 163.332 106.34C163.774 106.366 164.086 106.73 164.086 107.146C164.06 107.562 163.696 107.9 163.28 107.9C152.23 107.38 143.546 112.918 143.468 112.97C143.286 113.048 143.156 113.1 143 113.1Z" fill="white"/>
<path d="M159.9 97.76C159.848 97.76 159.796 97.76 159.77 97.734C159.484 97.656 159.328 97.37 159.406 97.084C159.432 96.98 162.474 86.632 172.926 72.982C179.036 64.974 186.472 57.434 195 50.518C205.66 41.886 218.088 34.268 231.972 27.846C232.232 27.742 232.544 27.872 232.648 28.132C232.752 28.366 232.648 28.652 232.414 28.782C201.214 43.238 183.3 61.152 173.758 73.606C163.436 87.1 160.446 97.24 160.42 97.344C160.342 97.604 160.134 97.76 159.9 97.76Z" fill="#1D1D1B"/>
<path d="M167.96 98.5401C167.882 98.5401 167.83 98.5401 167.778 98.5141C167.518 98.4101 167.388 98.0981 167.492 97.8381C167.518 97.7601 170.326 90.7141 176.566 82.8621C182.338 75.5821 192.322 66.1181 207.09 62.1661C207.376 62.1141 207.636 62.2961 207.688 62.5821C207.74 62.8421 207.584 63.0761 207.35 63.1541C192.868 67.0021 183.066 76.3101 177.398 83.4601C171.236 91.2081 168.48 98.1501 168.454 98.2021C168.35 98.4101 168.168 98.5401 167.96 98.5401Z" fill="#1D1D1B"/>
<path d="M237.64 217.88C237.51 217.88 237.38 217.828 237.302 217.75C237.094 217.568 237.068 217.23 237.276 217.022C240.37 213.59 241.748 210.288 241.358 207.194C240.838 203.19 237.406 200.902 237.38 200.902C237.146 200.746 237.068 200.434 237.224 200.174C237.38 199.94 237.692 199.862 237.952 200.018C238.108 200.122 241.8 202.566 242.398 207.038C242.84 210.418 241.384 214.006 238.056 217.698C237.926 217.802 237.796 217.88 237.64 217.88Z" fill="#1D1D1B"/>
<path d="M207.61 141.362C196.82 125.554 181.74 121.888 174.98 121.03C173.29 122.876 172.51 125.372 172.822 127.868C173.654 135.044 173.134 144.924 175.5 148.33C175.5 148.33 162.5 138.762 133.874 135.98C132.99 135.824 132.08 135.694 131.17 135.59L112.762 134.108C112.762 134.108 92.0923 132.392 74.2823 142.428C56.4723 152.464 30.0303 174.59 36.5303 190.97C42.4063 205.79 49.5303 207.61 59.9303 206.05C66.0923 205.14 80.3143 195.468 80.3143 195.468C80.3143 195.468 74.6983 209.586 80.3143 233.688L174.33 234.39C174.33 234.39 177.45 203.97 172.25 181.09C201.11 191.23 202.592 156.208 207.61 141.362Z" fill="#FFAD00"/>
<path d="M174.668 234.78L174.304 234.78L79.976 234.078L79.898 233.766C75.192 213.59 78.39 200.2 79.56 196.404C76.258 198.588 65.286 205.634 59.956 206.414C49.348 208 42.042 205.998 36.14 191.1C33.202 183.716 36.608 174.356 45.994 164.06C53.17 156.182 63.674 147.966 74.1 142.09C91.806 132.106 112.606 133.692 112.814 133.718L131.222 135.2C132.106 135.304 133.016 135.434 133.952 135.59C157.456 137.878 170.586 144.82 174.512 147.212C173.42 144.456 173.212 139.958 172.978 135.252C172.848 132.756 172.718 130.182 172.458 127.894C172.12 125.294 172.926 122.694 174.694 120.77L174.824 120.614L175.032 120.64C180.232 121.316 185.276 122.876 189.956 125.216C197.158 128.83 203.19 134.186 207.922 141.128L208.026 141.284L207.974 141.466C207.064 144.118 206.284 147.472 205.426 151.008C202.774 162.188 199.446 176.098 190.034 181.22C185.38 183.768 179.556 183.898 172.744 181.636C177.684 204.23 174.72 234.078 174.668 234.39L174.668 234.78ZM80.626 233.298L173.992 234C174.304 230.542 176.722 202.41 171.886 181.168L171.73 180.466L172.406 180.7C179.374 183.144 185.042 183.118 189.722 180.57C198.822 175.604 202.098 161.876 204.724 150.852C205.556 147.368 206.336 144.066 207.22 141.414C196.482 125.814 181.402 122.252 175.188 121.446C173.654 123.188 172.978 125.502 173.264 127.816C173.524 130.104 173.654 132.704 173.784 135.226C174.044 140.478 174.33 145.886 175.89 148.122L177.242 150.046L175.344 148.642C175.214 148.538 162.084 139.1 133.926 136.37L133.9 136.37C132.99 136.214 132.08 136.084 131.196 135.98L112.814 134.498C112.606 134.472 92.066 132.912 74.568 142.766C56.602 152.854 30.524 174.798 36.894 190.84C42.64 205.348 49.4 207.22 59.878 205.66C65.884 204.75 79.95 195.234 80.106 195.13L81.146 194.428L80.678 195.598C80.6 195.754 75.218 209.82 80.626 233.298Z" fill="#1D1D1B"/>
<path d="M97.2404 106.964C97.2404 106.964 92.0664 116.584 85.9564 111.358C79.8464 106.132 66.8984 94.8221 58.1104 103.428C49.3224 112.034 49.5044 114.634 41.6784 110.916C33.8524 107.198 13.5984 114.244 24.1024 136.11C34.6064 157.976 106.444 123.318 106.444 123.318L108.108 116.74L97.2404 106.964Z" fill="#6C32AD"/>
<path d="M65.624 100.308C73.164 100.308 81.432 107.484 85.956 111.358C87.256 112.476 88.53 112.918 89.7 112.918C94.042 112.918 97.24 106.99 97.24 106.99L108.108 116.74L106.444 123.292C106.444 123.292 64.922 143.338 40.404 143.338C32.656 143.338 26.624 141.336 24.102 136.11C15.366 117.91 27.95 109.98 36.92 109.98C38.558 109.954 40.196 110.266 41.704 110.916C44.018 112.034 45.63 112.58 47.008 112.58C50.232 112.58 51.974 109.512 58.136 103.454C60.398 101.192 62.972 100.308 65.624 100.308ZM65.65 99.5282C62.582 99.5282 59.852 100.672 57.59 102.882C55.952 104.494 54.626 105.872 53.482 107.094C50.518 110.214 49.036 111.774 47.008 111.774C45.864 111.774 44.382 111.306 42.042 110.188C40.43 109.486 38.688 109.122 36.946 109.174C32.526 109.174 26.104 111.124 22.646 116.662C20.384 120.224 18.694 126.568 23.426 136.422C25.87 141.518 31.59 144.092 40.43 144.092C50.7 144.092 65 140.712 82.914 134.03C96.252 129.064 106.704 124.02 106.808 123.968C107.016 123.864 107.172 123.682 107.224 123.448L108.888 116.896C108.966 116.61 108.862 116.324 108.654 116.116L97.76 106.366C97.63 106.236 97.422 106.158 97.24 106.158C97.188 106.158 97.162 106.158 97.11 106.158C96.876 106.21 96.668 106.34 96.564 106.548C96.538 106.6 93.522 112.086 89.7 112.086C88.608 112.086 87.516 111.618 86.45 110.708L86.216 110.5C81.718 106.652 73.32 99.4502 65.624 99.4502L65.65 99.5282Z" fill="black"/>
<path d="M76.8301 131.43C76.8301 131.43 79.3261 136.76 74.8281 147.108C70.3301 157.456 57.8501 144.144 57.8501 144.144L76.8301 131.43Z" fill="#FFCDB2"/>
<path d="M69.6281 151.424C64.2201 151.424 57.8761 144.716 57.5901 144.404L57.2781 144.066L77.0121 130.858L77.1941 131.274C77.2981 131.508 79.7161 136.89 75.1921 147.264C74.1521 149.63 72.6441 151.008 70.6421 151.346C70.3041 151.398 69.9661 151.424 69.6281 151.424ZM58.4741 144.196C59.9301 145.652 65.9621 151.346 70.5121 150.566C72.2281 150.28 73.5541 149.058 74.4641 146.952C78.1301 138.554 77.0641 133.484 76.6221 132.028L58.4741 144.196Z" fill="#1D1E1B"/>
<path d="M74.0742 186.836C75.7902 181.532 82.4202 176.878 85.6442 165.75C88.8682 154.622 74.5682 150.722 74.5682 150.722L75.0623 147.03C75.0623 147.03 65.6242 149.76 55.5103 142.636L52.7022 147.082C52.7022 147.082 40.9503 150.54 40.8723 160.602C40.7943 170.664 31.5643 179.712 36.7903 191.464" fill="#FFAD00"/>
<path d="M36.8164 191.854C36.6604 191.854 36.5044 191.776 36.4264 191.62C33.1244 184.21 35.4644 177.866 37.7264 171.73C39.1304 167.934 40.4564 164.346 40.4824 160.602C40.5604 151.008 51.0904 147.212 52.4424 146.77L55.1984 142.428C55.2504 142.324 55.3544 142.272 55.4584 142.246C55.5624 142.22 55.6664 142.246 55.7444 142.298C65.5984 149.214 74.8803 146.666 74.9583 146.64C75.0883 146.614 75.2184 146.64 75.3224 146.718C75.4264 146.796 75.4784 146.926 75.4524 147.056L75.0103 150.436C76.5183 150.904 82.6023 153.036 85.2803 157.82C86.6323 160.238 86.8923 162.942 86.0343 165.854C84.0843 172.614 80.8603 177.008 78.2603 180.57C76.5704 182.884 75.1143 184.886 74.4383 186.966C74.3603 187.174 74.1263 187.278 73.9443 187.2C73.7623 187.122 73.6583 186.94 73.7104 186.732C74.4123 184.548 75.9203 182.494 77.6363 180.128C80.1843 176.644 83.3563 172.276 85.2803 165.672C86.0603 162.942 85.8263 160.446 84.6043 158.236C81.7703 153.166 74.5683 151.138 74.4903 151.138C74.3083 151.086 74.1783 150.904 74.2043 150.722L74.6203 147.576C72.4364 148.018 64.2464 149.11 55.6404 143.234L53.0404 147.342C52.9884 147.42 52.9104 147.472 52.8324 147.498C52.7284 147.524 41.3404 151.008 41.2884 160.628C41.2624 164.528 39.8584 168.35 38.5064 172.016C36.2964 177.996 34.0084 184.21 37.1804 191.334C37.2584 191.542 37.1804 191.776 36.9724 191.854C36.8944 191.854 36.8424 191.854 36.8164 191.854Z" fill="black"/>
<path d="M132.496 135.772C132.496 135.772 135.928 142.688 127.868 144.508C119.808 146.328 118.248 142.168 118.248 142.168C118.248 142.168 112.788 147.368 107.848 142.948C102.908 138.528 108.888 133.848 108.888 133.848L132.496 135.772Z" fill="white"/>
<path d="M124.124 145.366C120.276 145.366 118.69 143.65 118.144 142.792C116.766 143.884 111.982 147.16 107.614 143.26C106.184 141.986 105.482 140.53 105.534 138.996C105.638 135.98 108.55 133.666 108.68 133.562C108.758 133.51 108.836 133.484 108.94 133.484L132.548 135.408C132.678 135.408 132.808 135.512 132.86 135.616C132.912 135.746 134.394 138.762 133.12 141.466C132.314 143.182 130.572 144.352 127.972 144.924C126.698 145.184 125.424 145.34 124.124 145.366ZM118.274 141.778C118.3 141.778 118.326 141.778 118.352 141.778C118.482 141.804 118.586 141.908 118.638 142.012C118.69 142.168 120.224 145.834 127.816 144.118C130.156 143.598 131.716 142.558 132.418 141.076C133.354 139.1 132.548 136.786 132.262 136.11L109.044 134.238C108.524 134.68 106.392 136.656 106.314 138.996C106.262 140.296 106.886 141.544 108.134 142.662C112.736 146.796 117.78 142.09 118.014 141.882C118.066 141.804 118.17 141.778 118.274 141.778Z" fill="black"/>
<path d="M113.048 93.5481C118.476 93.5481 122.876 89.1479 122.876 83.7201C122.876 78.2922 118.476 73.8921 113.048 73.8921C107.62 73.8921 103.22 78.2922 103.22 83.7201C103.22 89.1479 107.62 93.5481 113.048 93.5481Z" fill="#6C32AD"/>
<path d="M113.048 73.9182C118.482 73.9182 122.876 78.3122 122.876 83.7202C122.876 89.1282 118.482 93.5482 113.074 93.5482C107.64 93.5482 103.246 89.1542 103.246 83.7462C103.246 80.3922 104.962 77.2722 107.77 75.4522C109.33 74.4642 111.176 73.9182 113.048 73.9182ZM113.048 73.1382C107.198 73.1382 102.466 77.8962 102.466 83.7462C102.466 89.5962 107.224 94.3282 113.074 94.3282C118.924 94.3282 123.656 89.5702 123.656 83.7202C123.656 81.6922 123.084 79.7422 121.992 78.0262C120.042 74.9842 116.662 73.1382 113.048 73.1382Z" fill="black"/>
<path d="M88.8681 116.87C88.8681 116.87 81.4841 111.67 83.7461 105.274C86.0082 98.8779 87.6721 99.2419 88.6341 95.7839C89.5961 92.3259 95.2122 88.3999 100.802 89.4139C100.802 89.4139 107.016 83.6939 113.282 84.6299C119.548 85.5659 121.966 88.2699 124.176 92.8459C126.386 97.4219 128.336 99.3719 130 102.544C131.664 105.716 134.602 114.79 122.356 122.954C110.11 131.118 88.8681 116.87 88.8681 116.87Z" fill="#6C32AD"/>
<path d="M111.852 84.5261C112.32 84.5261 112.814 84.5521 113.282 84.6301C119.522 85.5661 121.966 88.2701 124.176 92.8461C126.386 97.4221 128.336 99.3721 130 102.544C131.664 105.716 134.602 114.79 122.356 122.954C119.626 124.774 116.454 125.476 113.178 125.476C101.712 125.476 88.8422 116.844 88.8422 116.844C88.8422 116.844 81.4582 111.644 83.7202 105.248C85.9822 98.8521 87.6462 99.2161 88.6082 95.7581C89.4662 92.6901 94.0162 89.2321 98.9562 89.2321C99.5542 89.2321 100.178 89.2841 100.776 89.3881C100.802 89.4401 106.106 84.5261 111.852 84.5261ZM111.826 83.7461C106.574 83.7461 101.764 87.5421 100.542 88.5821C100.022 88.5041 99.4762 88.4781 98.9562 88.4781C93.6002 88.4781 88.8162 92.2221 87.8542 95.5761C87.4642 96.9801 86.9702 97.6561 86.2682 98.5921C85.3842 99.8141 84.2662 101.348 82.9662 104.988C81.9522 107.848 82.5762 110.942 84.7862 113.906C85.8002 115.258 87.0222 116.454 88.3742 117.468C90.9222 119.106 93.5742 120.562 96.3302 121.836C100.646 123.838 107.068 126.23 113.126 126.23C116.87 126.23 120.094 125.346 122.746 123.578C128.206 119.938 131.352 115.7 132.106 110.968C132.574 107.952 132.054 104.858 130.624 102.154C129.922 100.88 129.168 99.6321 128.31 98.4361C126.984 96.5381 125.814 94.5621 124.8 92.4821C122.512 87.7501 119.912 84.8381 113.334 83.8241C112.866 83.7981 112.346 83.7461 111.826 83.7461Z" fill="black"/>
<path d="M112.268 107.848C112.06 107.848 111.878 107.692 111.852 107.484C111.826 107.276 112.008 107.094 112.216 107.068C116.272 106.704 119.99 102.154 120.042 102.102C120.172 101.946 120.432 101.92 120.588 102.05C120.744 102.18 120.77 102.44 120.64 102.596C120.484 102.804 116.662 107.432 112.294 107.848L112.268 107.848Z" fill="black"/>
<path d="M112.346 105.04C105.508 105.04 102.518 97.8903 102.492 97.7863C102.388 97.6043 102.44 97.3703 102.622 97.2403C102.804 97.1103 103.038 97.1883 103.168 97.3703C103.194 97.3963 103.194 97.4483 103.22 97.4743C103.376 97.8383 106.808 106.106 115.076 103.844C115.284 103.766 115.492 103.896 115.57 104.104C115.648 104.312 115.518 104.52 115.31 104.598L115.284 104.598C114.348 104.884 113.36 105.04 112.346 105.04Z" fill="white"/>
<path d="M122.72 74.4122C122.564 74.4122 122.408 74.3082 122.356 74.1522C121.628 72.0982 120.432 70.6682 118.794 69.8882C115.882 68.5102 112.502 69.7062 112.476 69.7322C112.268 69.7842 112.06 69.6542 112.008 69.4722C111.956 69.2902 112.06 69.0822 112.216 69.0042C112.372 68.9522 115.934 67.6782 119.132 69.2122C120.952 70.0702 122.304 71.6562 123.11 73.9182C123.188 74.1262 123.084 74.3342 122.876 74.4122C122.824 74.4122 122.772 74.4122 122.72 74.4122Z" fill="black"/>
<path d="M119.548 81.0423C119.392 81.0423 119.262 80.9642 119.21 80.8342C118.118 78.8062 116.714 77.5582 115.024 77.1422C112.268 76.4922 109.642 78.2602 109.616 78.2862C109.434 78.3902 109.2 78.3382 109.07 78.1562C108.966 77.9742 108.992 77.7662 109.174 77.6362C109.304 77.5582 112.112 75.6342 115.206 76.3882C117.13 76.8562 118.716 78.2082 119.912 80.4442C120.016 80.6262 119.938 80.8602 119.756 80.9642C119.678 81.0162 119.6 81.0423 119.548 81.0423Z" fill="white"/>
<path d="M108.472 130.26L108.472 134.16C108.472 134.16 115.232 144.3 128.232 135.98C128.232 135.98 121.862 126.802 118.43 115.934C118.43 115.934 123.24 114.634 122.252 110.318C121.264 106.002 117.728 105.43 115.726 106.73C115.726 106.73 107.926 112.762 98.852 96.3301C98.852 96.3301 90.428 100.282 89.102 109.252C87.776 118.222 90.038 128.414 97.006 131.04C103.974 133.64 108.472 130.26 108.472 130.26Z" fill="#FFCDB2"/>
<path d="M98.8521 96.3303C104.078 105.82 108.888 107.822 112.034 107.822C113.36 107.848 114.634 107.484 115.726 106.73C116.35 106.34 117.104 106.132 117.832 106.132C119.626 106.132 121.55 107.302 122.252 110.318C123.24 114.634 118.43 115.934 118.43 115.934C121.836 126.802 128.206 135.98 128.206 135.98C124.436 138.398 121.16 139.256 118.456 139.256C111.852 139.256 108.446 134.16 108.446 134.16L108.446 130.26C108.446 130.26 106.106 132.028 102.206 132.028C100.438 132.002 98.6701 131.69 97.0061 131.04C90.0381 128.44 87.7761 118.222 89.1021 109.252C90.4281 100.282 98.8781 96.3303 98.8521 96.3303ZM98.8781 95.5503C98.7741 95.5503 98.6441 95.5763 98.5401 95.6283C96.8761 96.4863 95.3421 97.5783 93.9641 98.8523C90.8441 101.738 88.9201 105.3 88.3221 109.122C87.6201 113.906 87.9321 118.742 89.1801 122.746C90.6361 127.322 93.2361 130.442 96.7201 131.742C98.4621 132.418 100.334 132.756 102.206 132.782C104.104 132.782 105.95 132.392 107.666 131.586L107.666 134.134C107.666 134.29 107.718 134.446 107.796 134.576C107.952 134.784 111.514 140.01 118.456 140.01C121.68 140.01 125.086 138.866 128.622 136.604C128.986 136.37 129.09 135.902 128.856 135.538C128.856 135.538 128.856 135.512 128.83 135.512C128.778 135.434 122.746 126.724 119.366 116.376C120.016 116.116 120.614 115.752 121.16 115.31C122.824 113.984 123.448 112.164 122.98 110.11C122.148 106.548 119.782 105.3 117.806 105.3C116.922 105.3 116.038 105.56 115.284 106.028L115.232 106.08C114.27 106.704 113.152 107.016 112.008 106.99C109.096 106.99 104.572 105.066 99.5281 95.9143C99.3981 95.7063 99.1381 95.5503 98.8781 95.5503Z" fill="black"/>
<path d="M108.342 131.04C108.134 131.04 107.952 130.858 107.952 130.65C107.952 130.494 108.056 130.338 108.212 130.286C111.93 129.038 114.764 124.93 114.79 124.904C114.92 124.722 115.154 124.67 115.336 124.8C115.518 124.93 115.57 125.164 115.44 125.346C115.31 125.528 112.45 129.714 108.446 131.04C108.42 131.04 108.368 131.04 108.342 131.04Z" fill="black"/>
<path d="M118.326 113.932C118.274 113.932 118.196 113.906 118.144 113.88C117.962 113.776 117.884 113.542 117.988 113.36C118.742 111.93 118.898 110.838 118.482 110.084C117.858 109.018 116.194 108.94 116.194 108.94C115.986 108.94 115.804 108.758 115.83 108.524C115.83 108.316 116.012 108.134 116.22 108.16C116.298 108.16 118.326 108.264 119.158 109.694C119.73 110.708 119.574 112.06 118.69 113.724C118.586 113.854 118.456 113.932 118.326 113.932Z" fill="black"/>
<path d="M99.216 109.564C104.26 109.954 110.578 106.912 111.956 108.498C113.334 110.084 112.788 112.554 110.214 113.49C107.64 114.426 104.988 114.712 99.554 115.024C94.12 115.336 88.738 115.232 88.972 112.268C89.206 109.304 91.806 108.992 99.216 109.564Z" fill="#FFB49F"/>
<path d="M93.1063 107.172C92.8983 107.172 92.7163 106.99 92.7163 106.782C92.7163 106.678 92.7423 106.6 92.8203 106.522C92.8983 106.444 94.5363 104.546 96.7203 104.702C96.9283 104.728 97.1103 104.91 97.0843 105.118C97.0583 105.326 96.8763 105.508 96.6683 105.482C94.8743 105.352 93.4183 107.016 93.4183 107.016C93.3403 107.12 93.2363 107.172 93.1063 107.172Z" fill="black"/>
<path d="M98.6963 118.638C98.6703 118.638 98.6443 118.638 98.6183 118.638C98.4103 118.586 98.2803 118.378 98.3063 118.17L99.9703 110.162C100.022 109.954 100.23 109.824 100.438 109.85C100.646 109.876 100.776 110.11 100.75 110.318L99.0863 118.326C99.0603 118.508 98.9043 118.638 98.6963 118.638Z" fill="black"/>
<path d="M120.406 117.286C121.296 117.286 122.018 116.564 122.018 115.674C122.018 114.784 121.296 114.062 120.406 114.062C119.515 114.062 118.794 114.784 118.794 115.674C118.794 116.564 119.515 117.286 120.406 117.286Z" fill="#FFAD00"/>
<path d="M120.406 114.062C121.29 114.062 122.018 114.79 122.018 115.674C122.018 116.22 121.732 116.74 121.264 117.026C120.51 117.494 119.522 117.286 119.054 116.532C118.586 115.778 118.794 114.79 119.548 114.322C119.808 114.14 120.094 114.062 120.406 114.062ZM120.406 113.282C119.08 113.282 118.014 114.348 118.014 115.674C118.014 117 119.08 118.066 120.406 118.066C121.732 118.066 122.798 117 122.798 115.674C122.798 115.232 122.668 114.79 122.434 114.4C121.992 113.698 121.238 113.282 120.406 113.282Z" fill="black"/>
<path d="M107.536 112.138C108.039 112.138 108.446 111.731 108.446 111.228C108.446 110.726 108.039 110.318 107.536 110.318C107.034 110.318 106.626 110.726 106.626 111.228C106.626 111.731 107.034 112.138 107.536 112.138Z" fill="black"/>
<path d="M94.2237 113.048C94.7263 113.048 95.1337 112.641 95.1337 112.138C95.1337 111.635 94.7263 111.228 94.2237 111.228C93.7211 111.228 93.3137 111.635 93.3137 112.138C93.3137 112.641 93.7211 113.048 94.2237 113.048Z" fill="black"/>
<path d="M103.48 125.138C103.168 125.138 102.856 125.086 102.57 125.008C102.362 124.956 102.232 124.748 102.284 124.54C102.336 124.332 102.544 124.202 102.752 124.254C105.274 124.93 106.964 121.628 106.964 121.576C107.042 121.368 107.276 121.29 107.484 121.368C107.692 121.446 107.77 121.68 107.692 121.888C107.692 121.914 107.666 121.914 107.666 121.94C107.64 122.096 106.08 125.138 103.48 125.138Z" fill="black"/>
<path d="M102.518 104.962C102.414 104.962 102.336 104.91 102.258 104.858C102.102 104.702 102.102 104.468 102.232 104.312C102.362 104.182 103.532 102.986 104.624 103.376C104.832 103.454 104.936 103.662 104.858 103.87C104.78 104.078 104.572 104.182 104.364 104.104C103.844 103.922 103.038 104.598 102.804 104.832C102.726 104.936 102.622 104.962 102.518 104.962Z" fill="black"/>
<path d="M53.0139 147.342C52.9879 147.316 55.6919 143.13 55.6919 143.13C65.8059 150.254 74.6719 147.446 74.6719 147.446L74.2819 151.164L74.3598 151.008C74.3598 150.982 65.1299 158.574 53.0139 147.342Z" fill="#E89D00"/>
<path d="M145.184 151.034C146.347 151.034 147.29 150.091 147.29 148.928C147.29 147.765 146.347 146.822 145.184 146.822C144.021 146.822 143.078 147.765 143.078 148.928C143.078 150.091 144.021 151.034 145.184 151.034Z" fill="#FFC140"/>
<path d="M85.3322 120.718L87.0742 122.642C87.7502 123.37 87.6982 124.514 86.9442 125.19L60.0342 149.604C59.3062 150.28 58.1622 150.228 57.4862 149.474L55.7442 147.55C55.0682 146.822 55.1202 145.678 55.8742 145.002L82.7842 120.588C83.5382 119.912 84.6822 119.964 85.3322 120.718Z" fill="#D9CFFF"/>
<path d="M58.8381 150.436L58.7341 150.436C58.1621 150.41 57.6161 150.15 57.2261 149.734L55.4841 147.81C54.6781 146.926 54.7301 145.522 55.6401 144.716L82.5501 120.302C83.4341 119.496 84.8121 119.574 85.6441 120.458L87.3861 122.382C88.1921 123.266 88.1401 124.644 87.2301 125.476L60.3201 149.864C59.9301 150.228 59.3841 150.436 58.8381 150.436ZM84.0061 120.51C83.6681 120.51 83.3301 120.64 83.0701 120.874L56.1601 145.288C55.5881 145.808 55.5361 146.692 56.0561 147.264L57.7981 149.188C58.3181 149.76 59.2021 149.812 59.7741 149.292L86.6841 124.878C87.2561 124.358 87.3081 123.474 86.7881 122.902L85.0461 120.978C84.7861 120.666 84.3961 120.51 84.0061 120.51Z" fill="#1D1E1B"/>
<path d="M103.61 114.296L102.024 113.932C101.972 113.932 101.92 113.906 101.868 113.906C101.868 112.476 101.582 111.072 101.01 109.746L102.18 108.94C102.726 108.55 102.856 107.796 102.466 107.25L101.01 105.17C100.62 104.624 99.8657 104.494 99.3197 104.884L98.0457 105.794C97.3957 105.248 96.6677 104.78 95.8877 104.416L96.2257 102.986C96.3817 102.336 95.9657 101.686 95.3157 101.53L92.8457 100.958C92.1957 100.802 91.5457 101.218 91.3897 101.868L91.0257 103.428C89.9857 103.454 88.9457 103.662 87.9317 104.026L87.0217 102.726C86.6318 102.18 85.8778 102.05 85.3318 102.44L83.2518 103.896C82.7058 104.286 82.5758 105.04 82.9658 105.586L83.7718 106.73C83.0438 107.51 82.4457 108.368 81.9777 109.33L80.4698 108.992C79.8198 108.836 79.1698 109.252 79.0138 109.902L78.4418 112.372C78.2858 113.022 78.7018 113.672 79.3518 113.828L80.9118 114.192C80.9378 115.31 81.1458 116.402 81.5358 117.468L80.2618 118.378C79.7158 118.768 79.5858 119.522 79.9758 120.068L81.4318 122.148C81.8218 122.694 82.5758 122.824 83.1218 122.434L84.2658 121.628C85.0198 122.33 85.9037 122.928 86.8397 123.396C86.8397 123.422 86.8137 123.448 86.8137 123.5L86.4497 125.086C86.2937 125.736 86.7097 126.386 87.3597 126.542L89.8557 127.114C90.5057 127.27 91.1557 126.854 91.3117 126.204L91.6757 124.618C91.6757 124.566 91.7017 124.514 91.7017 124.436C92.8977 124.41 94.0677 124.176 95.1857 123.76C95.2117 123.786 95.2377 123.838 95.2637 123.864L96.1997 125.19C96.5897 125.736 97.3437 125.866 97.8897 125.476L99.9697 124.02C100.516 123.63 100.646 122.876 100.256 122.33L99.3197 121.004L99.2677 120.952C99.8397 120.302 100.334 119.574 100.75 118.794C100.802 118.82 100.88 118.846 100.958 118.872L102.544 119.236C103.194 119.392 103.844 118.976 104 118.326L104.572 115.856C104.676 115.076 104.26 114.452 103.61 114.296ZM89.7517 121.16C85.7218 120.224 83.1998 116.194 84.1358 112.164C85.0717 108.134 89.1017 105.612 93.1317 106.548C97.1617 107.484 99.6837 111.514 98.7477 115.544C97.8117 119.574 93.7817 122.096 89.7517 121.16Z" fill="#FFAD00"/>
<path d="M90.1163 127.426C89.9863 127.426 89.8823 127.4 89.7523 127.374L87.2563 126.802C86.3983 126.594 85.8523 125.736 86.0603 124.878L86.3723 123.5C85.5923 123.11 84.8643 122.616 84.2143 122.044L83.3303 122.668C82.6023 123.162 81.6143 123.006 81.0943 122.278L79.6383 120.198C79.4043 119.86 79.3003 119.418 79.3783 119.002C79.4563 118.586 79.6903 118.196 80.0283 117.962L81.0683 117.234C80.7823 116.324 80.6003 115.388 80.5483 114.426L79.3003 114.14C78.4423 113.932 77.8963 113.074 78.1043 112.216L78.6763 109.72C78.8843 108.862 79.7423 108.316 80.6003 108.524L81.7963 108.81C82.2123 108.03 82.7063 107.302 83.3043 106.626L82.6803 105.742C82.1603 105.014 82.3423 104.026 83.0703 103.506L85.1503 102.05C85.8783 101.556 86.8663 101.712 87.3863 102.44L88.1403 103.48C88.9983 103.22 89.8563 103.038 90.7663 102.986L91.0523 101.712C91.2603 100.854 92.1183 100.308 92.9763 100.516L95.4463 101.088C96.3043 101.296 96.8503 102.128 96.6423 102.986L96.3823 104.104C96.9803 104.416 97.5783 104.78 98.1243 105.196L99.1643 104.468C99.8923 103.974 100.88 104.13 101.4 104.858L102.856 106.938C103.376 107.666 103.194 108.654 102.466 109.174L101.556 109.824C102.024 110.994 102.284 112.268 102.31 113.516L103.74 113.854C104.598 114.062 105.144 114.92 104.936 115.778L104.364 118.248C104.156 119.106 103.298 119.652 102.44 119.444L100.932 119.106C100.594 119.704 100.204 120.276 99.7623 120.796L100.568 121.94C101.088 122.668 100.906 123.656 100.178 124.176L98.0983 125.632C97.3703 126.152 96.3823 125.97 95.8623 125.242L95.0303 124.072C94.0683 124.41 93.0543 124.618 92.0403 124.67L91.7023 126.126C91.5203 126.906 90.8703 127.426 90.1163 127.426ZM84.3183 121.056L84.5523 121.264C85.2803 121.94 86.1123 122.512 87.0223 122.954L87.3343 123.11L87.2303 123.422C87.2303 123.448 87.2043 123.474 87.2043 123.474L86.8403 125.034C86.7363 125.476 87.0223 125.918 87.4643 126.022L89.9343 126.594C90.3763 126.698 90.8183 126.412 90.9223 125.97L91.2863 124.384C91.2863 124.358 91.2863 124.306 91.3123 124.254L91.3383 123.916L91.6763 123.916C92.8203 123.89 93.9643 123.656 95.0303 123.24L95.3423 123.11L95.4983 123.396L95.5503 123.474L96.4863 124.8C96.7463 125.164 97.2663 125.268 97.6303 125.008L99.7103 123.552C100.074 123.292 100.178 122.772 99.9183 122.408L98.9823 121.082L98.9563 121.03L98.7483 120.77L98.9563 120.51C99.5283 119.886 99.9963 119.184 100.386 118.456L100.542 118.144L100.88 118.274C100.932 118.3 100.958 118.3 101.01 118.326L102.596 118.69C103.038 118.794 103.48 118.508 103.584 118.066L104.156 115.57C104.26 115.128 103.974 114.686 103.532 114.582L101.946 114.218L101.842 114.192L101.504 114.166L101.504 113.88C101.504 112.502 101.244 111.15 100.698 109.876L100.568 109.59L101.972 108.602C102.336 108.342 102.44 107.822 102.18 107.458L100.724 105.378C100.464 105.014 99.9443 104.91 99.5803 105.17L98.0463 106.236L97.8123 106.054C97.1883 105.534 96.4863 105.092 95.7323 104.728L95.4463 104.598L95.8363 102.856C95.8883 102.648 95.8363 102.414 95.7323 102.232C95.6283 102.05 95.4463 101.92 95.2123 101.868L92.7163 101.296C92.2743 101.192 91.8323 101.478 91.7283 101.92L91.3123 103.766L91.0263 103.766C90.0123 103.792 89.0243 104 88.0623 104.338L87.7763 104.442L86.7103 102.908C86.4503 102.544 85.9303 102.44 85.5663 102.7L83.4863 104.156C83.3043 104.286 83.2003 104.468 83.1483 104.676C83.1223 104.884 83.1483 105.118 83.2783 105.274L84.2663 106.678L84.0583 106.912C83.3563 107.64 82.7843 108.498 82.3423 109.408L82.2123 109.694L80.4183 109.278C79.9763 109.174 79.5343 109.46 79.4303 109.902L78.8583 112.372C78.7543 112.814 79.0403 113.256 79.4823 113.36L81.3283 113.776L81.3283 114.088C81.3543 115.154 81.5363 116.246 81.9003 117.26L82.0043 117.546L80.4963 118.612C80.1323 118.872 80.0283 119.392 80.2883 119.756L81.7443 121.836C82.0043 122.2 82.5243 122.278 82.8883 122.044L84.3183 121.056ZM91.4423 121.732C90.8443 121.732 90.2463 121.654 89.6483 121.524C85.4103 120.536 82.7843 116.298 83.7723 112.06C84.7603 107.822 88.9983 105.196 93.2363 106.184C97.4743 107.172 100.1 111.41 99.1123 115.648C98.2803 119.21 95.1083 121.732 91.4423 121.732ZM89.8303 120.77C93.6523 121.654 97.4743 119.288 98.3583 115.466C99.2423 111.644 96.8763 107.822 93.0543 106.938C89.2323 106.054 85.4103 108.42 84.5263 112.242C83.6163 116.038 85.9563 119.834 89.7523 120.744C89.7783 120.744 89.8043 120.77 89.8303 120.77Z" fill="#1D1D1B"/>
<path d="M57.1743 143.104C57.1743 143.104 51.3503 138.502 54.9903 131.534C58.6303 124.566 64.1943 119.236 70.2783 119.262C76.3623 119.288 79.6903 122.694 80.6003 125.996C81.5103 129.298 79.3003 131.95 74.9583 132.262C74.9583 132.262 75.4263 138.242 67.7303 138.372C67.7303 138.372 64.9743 147.524 59.4363 140.998L57.1743 143.104Z" fill="#FFCDB2"/>
<path d="M70.2262 119.262L70.2522 119.262C76.3362 119.288 79.6642 122.694 80.5742 125.996C81.4842 129.298 79.2742 131.95 74.9322 132.262C74.9322 132.262 75.4002 138.242 67.7042 138.372C67.7042 138.372 66.1962 143.338 63.2062 143.338C62.1402 143.338 60.8662 142.714 59.4102 140.998L57.1742 143.13C57.1742 143.13 51.3502 138.528 54.9902 131.56C58.6302 124.566 64.1422 119.262 70.2262 119.262ZM70.2262 118.482C67.1322 118.482 64.0902 119.73 61.1782 122.2C58.6042 124.384 56.2122 127.504 54.2882 131.17C52.2602 135.07 53.0142 138.268 54.0022 140.27C54.6522 141.596 55.5622 142.766 56.6802 143.702L57.2262 144.118L57.7202 143.65L59.3582 142.09C60.6582 143.416 61.9322 144.092 63.2062 144.092C66.1182 144.092 67.7562 140.504 68.2762 139.1C70.8502 138.97 72.8002 138.164 74.1002 136.734C75.0362 135.668 75.6082 134.342 75.7122 132.938C77.9482 132.626 79.6902 131.716 80.6782 130.286C81.5882 129.012 81.7962 127.426 81.3282 125.762C80.7302 123.76 79.5082 121.992 77.8182 120.744C75.8162 119.262 73.2162 118.456 70.2522 118.456L70.2262 118.482Z" fill="#1D1E1B"/>
<path d="M75.2701 133.302C75.1141 133.302 74.9581 133.198 74.9061 133.042C72.4361 126.152 66.1961 125.71 65.9361 125.684C65.7281 125.684 65.5461 125.476 65.5721 125.268C65.5721 125.06 65.7801 124.878 65.9881 124.904C66.0661 124.904 73.0081 125.372 75.6601 132.756C75.7381 132.964 75.6341 133.172 75.4261 133.25C75.3741 133.276 75.3221 133.302 75.2701 133.302Z" fill="#1D1D1B"/>
<path d="M68.1723 139.074C67.9903 139.074 67.8603 138.97 67.8083 138.788C66.6383 134.914 61.3603 131.586 61.3083 131.56C61.1263 131.456 61.0483 131.222 61.1523 131.04C61.2563 130.858 61.4903 130.78 61.6723 130.884C61.6723 130.884 61.6983 130.884 61.6983 130.91C61.9323 131.04 67.2623 134.42 68.5363 138.58C68.5883 138.788 68.4843 138.996 68.2763 139.074C68.2503 139.074 68.2243 139.074 68.1723 139.074Z" fill="#1D1D1B"/>
<path d="M59.67 142.064C59.592 142.064 59.514 142.038 59.462 142.012C59.332 141.934 56.108 139.854 55.692 137.15C55.666 136.942 55.796 136.734 56.03 136.708C56.264 136.682 56.446 136.812 56.472 137.046C56.836 139.412 59.878 141.362 59.904 141.388C60.086 141.492 60.138 141.752 60.034 141.934C59.93 141.986 59.826 142.064 59.67 142.064Z" fill="#1D1D1B"/>
<path d="M79.4563 128.102C79.1183 128.102 78.8323 127.894 78.7283 127.582C77.7403 124.93 76.2063 123.11 74.1783 122.174C70.9023 120.666 67.3143 121.992 67.2883 121.992C66.8983 122.148 66.4303 121.94 66.2743 121.55C66.1183 121.16 66.3263 120.692 66.7163 120.536C66.8723 120.458 70.9023 118.976 74.8023 120.744C77.2463 121.862 79.0403 123.968 80.1843 127.036C80.3403 127.452 80.1063 127.894 79.7163 128.024C79.6383 128.076 79.5603 128.102 79.4563 128.102Z" fill="white"/>
<path d="M139.464 174.694C140.627 174.694 141.57 173.751 141.57 172.588C141.57 171.425 140.627 170.482 139.464 170.482C138.301 170.482 137.358 171.425 137.358 172.588C137.358 173.751 138.301 174.694 139.464 174.694Z" fill="#FFC140"/>
<path d="M95.2642 153.114C96.4273 153.114 97.3702 152.171 97.3702 151.008C97.3702 149.845 96.4273 148.902 95.2642 148.902C94.1011 148.902 93.1582 149.845 93.1582 151.008C93.1582 152.171 94.1011 153.114 95.2642 153.114Z" fill="#FFC140"/>
<path d="M113.204 164.814C114.367 164.814 115.31 163.871 115.31 162.708C115.31 161.545 114.367 160.602 113.204 160.602C112.041 160.602 111.098 161.545 111.098 162.708C111.098 163.871 112.041 164.814 113.204 164.814Z" fill="#FFC140"/>
<path d="M91.1043 209.794C92.2674 209.794 93.2103 208.851 93.2103 207.688C93.2103 206.525 92.2674 205.582 91.1043 205.582C89.9412 205.582 88.9983 206.525 88.9983 207.688C88.9983 208.851 89.9412 209.794 91.1043 209.794Z" fill="#FFC140"/>
<path d="M139.464 206.154C140.627 206.154 141.57 205.211 141.57 204.048C141.57 202.885 140.627 201.942 139.464 201.942C138.301 201.942 137.358 202.885 137.358 204.048C137.358 205.211 138.301 206.154 139.464 206.154Z" fill="#FFC140"/>
<path d="M95.2642 181.714C96.4273 181.714 97.3702 180.771 97.3702 179.608C97.3702 178.445 96.4273 177.502 95.2642 177.502C94.1011 177.502 93.1582 178.445 93.1582 179.608C93.1582 180.771 94.1011 181.714 95.2642 181.714Z" fill="#FFC140"/>
<path d="M100.724 229.294C101.887 229.294 102.83 228.351 102.83 227.188C102.83 226.025 101.887 225.082 100.724 225.082C99.5611 225.082 98.6182 226.025 98.6182 227.188C98.6182 228.351 99.5611 229.294 100.724 229.294Z" fill="#FFC140"/>
<path d="M160.004 202.514C161.167 202.514 162.11 201.571 162.11 200.408C162.11 199.245 161.167 198.302 160.004 198.302C158.841 198.302 157.898 199.245 157.898 200.408C157.898 201.571 158.841 202.514 160.004 202.514Z" fill="#FFC140"/>
<path d="M77.5843 173.94C78.7474 173.94 79.6903 172.997 79.6903 171.834C79.6903 170.671 78.7474 169.728 77.5843 169.728C76.4212 169.728 75.4783 170.671 75.4783 171.834C75.4783 172.997 76.4212 173.94 77.5843 173.94Z" fill="#FFC140"/>
<path d="M57.9024 164.632C59.0655 164.632 60.0084 163.689 60.0084 162.526C60.0084 161.363 59.0655 160.42 57.9024 160.42C56.7393 160.42 55.7964 161.363 55.7964 162.526C55.7964 163.689 56.7393 164.632 57.9024 164.632Z" fill="#FFC140"/>
<path d="M44.7723 181.974C45.9354 181.974 46.8783 181.031 46.8783 179.868C46.8783 178.705 45.9354 177.762 44.7723 177.762C43.6091 177.762 42.6663 178.705 42.6663 179.868C42.6663 181.031 43.6091 181.974 44.7723 181.974Z" fill="#FFC140"/>
<path d="M58.3179 200.33C59.481 200.33 60.4239 199.387 60.4239 198.224C60.4239 197.061 59.481 196.118 58.3179 196.118C57.1548 196.118 56.2119 197.061 56.2119 198.224C56.2119 199.387 57.1548 200.33 58.3179 200.33Z" fill="#FFC140"/>
<path d="M125.424 227.474C126.587 227.474 127.53 226.531 127.53 225.368C127.53 224.205 126.587 223.262 125.424 223.262C124.261 223.262 123.318 224.205 123.318 225.368C123.318 226.531 124.261 227.474 125.424 227.474Z" fill="#FFC140"/>
<path d="M43.342 123.76C43.29 123.76 43.238 123.76 43.212 123.734C36.374 121.29 30.342 116.974 25.818 111.28C22.152 106.704 19.266 101.114 17.238 94.6921C13.806 83.7721 14.092 74.0481 14.092 73.9441C14.118 73.7361 14.274 73.5801 14.508 73.5801C14.716 73.5801 14.898 73.7621 14.872 73.9701C14.872 74.0741 14.586 83.6681 17.992 94.4581C21.112 104.39 28.054 117.39 43.498 122.98C43.706 123.058 43.81 123.266 43.732 123.474C43.654 123.656 43.498 123.76 43.342 123.76Z" fill="black"/>
<path d="M31.8501 126.074L31.8241 126.074C24.0241 125.372 18.3561 120.536 14.9501 116.61C12.7401 114.062 10.8941 111.228 9.43806 108.186C9.38606 107.978 9.49006 107.77 9.69806 107.692C9.85406 107.64 10.0361 107.718 10.1401 107.848C10.2181 108.004 17.4201 123.994 31.8761 125.268C32.0841 125.268 32.2661 125.45 32.2401 125.684C32.2401 125.918 32.0581 126.074 31.8501 126.074Z" fill="black"/>
<path d="M78.9621 200.902C78.9361 200.902 78.9101 200.902 78.8841 200.902C78.6761 200.85 78.5461 200.642 78.5981 200.434C78.6241 200.304 81.6141 187.746 86.5021 177.918C86.5801 177.71 86.8141 177.632 87.0221 177.71C87.2301 177.788 87.3081 178.022 87.2301 178.23C87.2301 178.23 87.2301 178.256 87.2041 178.256C82.3421 187.98 79.3781 200.46 79.3521 200.59C79.3001 200.798 79.1441 200.902 78.9621 200.902Z" fill="black"/>
<path d="M163.41 163.93C163.41 163.93 170.69 172.77 172.25 181.61L163.41 163.93Z" fill="#FFAD00"/>
<path d="M171.86 181.688C170.326 173.056 163.176 164.268 163.098 164.19L163.696 163.696C163.774 163.774 171.054 172.718 172.614 181.558L171.86 181.688Z" fill="#1D1D1B"/>
<path d="M169.52 227.76C169.468 227.76 169.416 227.76 169.364 227.76C168.948 227.682 168.662 227.266 168.74 226.85C174.85 195.26 164.008 176.618 163.904 176.436C163.67 176.072 163.8 175.578 164.164 175.37C164.528 175.162 165.022 175.266 165.23 175.63C165.334 175.838 168.116 180.518 170.118 189.254C171.964 197.262 173.498 210.366 170.248 227.162C170.222 227.5 169.884 227.76 169.52 227.76Z" fill="white"/>
<path d="M39.5204 193.18C39.2084 193.18 38.9224 192.972 38.7924 192.686C34.7884 182.572 39.9104 173.42 40.1444 173.03C40.3524 172.666 40.8464 172.536 41.2104 172.744C41.5744 172.952 41.7044 173.446 41.4964 173.81C41.4184 173.914 36.5304 182.728 40.2484 192.114C40.4044 192.504 40.1964 192.972 39.8064 193.128C39.7024 193.154 39.6244 193.18 39.5204 193.18Z" fill="white"/>
<path d="M33.0205 201.5C32.8905 201.5 32.7345 201.448 32.6565 201.344C27.5345 196.092 27.0925 190.112 27.6125 186.03C27.9505 183.352 28.7565 180.752 29.9785 178.36C30.1345 178.1 30.4465 178.022 30.6805 178.178C30.9405 178.334 31.0185 178.646 30.8625 178.88C29.6925 181.168 28.9385 183.638 28.6005 186.212C27.8985 191.802 29.5105 196.664 33.3585 200.642C33.5665 200.85 33.5405 201.188 33.3325 201.37C33.2805 201.448 33.1505 201.5 33.0205 201.5Z" fill="#1D1D1B"/>
</svg>
