<svg width="36" height="36" viewBox="0 0 36 36" fill="none" xmlns="http://www.w3.org/2000/svg">
<path d="M13.05 6.29987L6 9.45001V28.3498L13.05 25.2V28.4999L4.65 32.2499C3.9 32.5499 3 32.1 3 31.2V8.99994C3 8.09994 3.45 7.34987 4.35 7.04987L13.05 3.1499V6.29987Z" fill="white"/>
<path d="M22.95 29.6999L29.9999 26.5497V7.64976L22.95 10.7997V7.49979L31.3499 3.74979C32.0999 3.44979 32.9999 3.89972 32.9999 4.79972V26.9998C32.9999 27.8998 32.5499 28.6499 31.6499 28.9499L22.95 32.8496V29.6999Z" fill="white"/>
<path opacity="0.3" d="M22.95 10.7999L29.9999 7.6499V26.5499L22.95 29.7V10.7999Z" fill="white"/>
<path opacity="0.3" d="M13.05 6.29993V3L23.1001 7.5V10.7999L13.05 6.29993ZM13.05 25.2001V28.5L23.1001 33V29.7001L13.05 25.2001Z" fill="white"/>
<path opacity="0.3" d="M13.05 25.2L6 28.3497V9.44995L13.05 6.2998V25.2Z" fill="white"/>
</svg>
