<svg width="36" height="36" viewBox="0 0 36 36" fill="none" xmlns="http://www.w3.org/2000/svg">
<path opacity="0.3" d="M26.859 19.5H16.809C16.809 18.6 16.209 18 15.309 18C14.409 18 13.809 18.6 13.809 19.5H9.75903L13.809 12.6V6C12.909 6 12.309 5.4 12.309 4.5C12.309 3.6 12.909 3 13.809 3H22.809C23.709 3 24.309 3.6 24.309 4.5C24.309 5.4 23.709 6 22.809 6V12.6L26.859 19.5ZM19.809 13.5C18.909 13.5 18.309 14.1 18.309 15C18.309 15.9 18.909 16.5 19.809 16.5C20.709 16.5 21.309 15.9 21.309 15C21.309 14.1 20.709 13.5 19.809 13.5Z" fill="white"/>
<path d="M28.3591 33H8.10907C5.40907 33 3.60909 30 4.95909 27.6L9.60907 19.5H13.6591C13.6591 20.4 14.2591 21 15.1591 21C16.0591 21 16.6591 20.4 16.6591 19.5H26.7091L31.3591 27.6C32.8591 30 31.2091 33 28.3591 33ZM21.3091 22.5C19.6591 22.5 18.3091 23.85 18.3091 25.5C18.3091 27.15 19.6591 28.5 21.3091 28.5C22.9591 28.5 24.3091 27.15 24.3091 25.5C24.3091 23.85 22.9591 22.5 21.3091 22.5Z" fill="white"/>
</svg>
