<svg width="262" height="262" viewBox="0 0 262 262" fill="none" xmlns="http://www.w3.org/2000/svg">
<path d="M71.9265 236.797C71.6405 236.795 71.408 236.56 71.4097 236.274C71.4115 235.988 71.6469 235.755 71.9329 235.757L199.179 235.759C199.465 235.761 199.698 235.996 199.696 236.282C199.694 236.568 199.459 236.801 199.173 236.799L71.9265 236.797Z" fill="black"/>
<path d="M50.6875 227.8L65.7428 227.633L80.7201 227.465L89.1709 227.361C89.6649 227.364 89.6697 226.584 89.1757 226.581L74.1204 226.748L59.1431 226.916L50.6923 227.02C50.1983 227.017 50.1935 227.797 50.6875 227.8Z" fill="black"/>
<path d="M76.2768 218.545L84.3874 218.803L92.524 219.061L97.0991 219.219C97.5931 219.223 97.5979 218.443 97.1039 218.439L88.9933 218.182L80.8567 217.924L76.2816 217.765C75.7876 217.762 75.7828 218.542 76.2768 218.545Z" fill="black"/>
<path d="M108.409 126.259C108.772 117.863 113.112 113.964 116.249 102.855C119.385 91.7458 122.719 86.5662 126.773 82.6651C131.821 77.808 134.082 77.9779 134.082 77.9779L136.109 73.9603L147.346 77.3315L146.713 83.0477C148.048 85.76 151.122 89.1329 145.453 97.7302C141.385 103.919 141.359 112.265 135.926 124.816C130.493 137.367 124.047 141.201 124.047 141.201" fill="#FFAD00"/>
<path d="M124.071 141.566C123.941 141.565 123.811 141.486 123.734 141.382C123.631 141.199 123.684 140.965 123.867 140.836C123.945 140.785 130.287 136.898 135.589 124.632C138.174 118.642 139.505 113.658 140.701 109.297C141.979 104.521 142.99 100.757 145.142 97.4943C150.076 89.9845 148.225 86.5931 146.862 84.1147C146.682 83.8016 146.528 83.4886 146.374 83.2017C146.348 83.1235 146.323 83.0713 146.323 82.9933L146.902 77.6148L136.288 74.4295L134.419 78.1621C134.34 78.2916 134.209 78.3948 134.053 78.3678C134.001 78.3675 131.765 78.3797 127.031 82.9527C123.631 86.2339 120.014 90.9177 116.612 102.961C115.256 107.737 113.701 111.185 112.305 114.219C110.433 118.315 108.983 121.556 108.772 126.287C108.771 126.495 108.588 126.676 108.38 126.675C108.172 126.674 107.991 126.49 107.992 126.256C108.204 121.37 109.786 117.921 111.604 113.902C112.975 110.895 114.53 107.472 115.859 102.748C119.314 90.5234 123.01 85.7361 126.488 82.4034C130.673 78.373 133.069 77.7118 133.824 77.6124L135.745 73.8021C135.825 73.6206 136.033 73.5439 136.215 73.597L147.426 76.968C147.608 77.0211 147.711 77.2038 147.71 77.3858L147.103 82.9721C147.232 83.2329 147.36 83.4937 147.515 83.7547C148.98 86.4157 150.96 90.068 145.763 97.9402C143.69 101.099 142.679 104.811 141.428 109.51C140.231 113.922 138.9 118.906 136.289 124.948C130.882 137.473 124.514 141.36 124.253 141.515C124.201 141.54 124.123 141.566 124.071 141.566Z" fill="black"/>
<path d="M109.717 120.729C109.186 122.494 108.889 124.338 108.799 126.184L114.021 131.156L125.645 139.261C127.031 138.048 129.124 135.877 131.355 132.432C122.084 122.261 112.732 120.878 109.717 120.729Z" fill="#E89D00"/>
<path d="M146.904 94.2554C144.605 87.5592 141.908 82.2385 139.48 83.8616C133.736 87.7263 132.069 105.136 133.353 107.744C134.251 109.57 137.804 111.152 139.853 111.944C141.475 106.078 142.465 101.482 144.933 97.7014C145.693 96.614 146.324 95.4479 146.904 94.2554Z" fill="#E89D00"/>
<path d="M105.917 121.278C105.917 121.278 118.569 127.206 125.482 132.032C139.125 141.554 143.922 152.218 150.49 170.797C152.304 175.956 154.952 180.808 158.306 185.119L97.226 202.814C97.226 202.814 95.7388 199.425 90.3104 173.131C86.5734 155.063 87.5116 133.567 93.8726 126.586C93.8466 126.586 106.137 127.805 105.917 121.278Z" fill="#FFAD00"/>
<path d="M105.917 121.277C105.917 121.277 118.569 127.205 125.481 132.032C139.125 141.554 143.922 152.218 150.49 170.796C152.304 175.956 154.952 180.808 158.306 185.119L97.2257 202.814C97.2257 202.814 95.7386 199.424 90.3101 173.13C86.5731 155.063 87.5113 133.566 93.8724 126.585C93.8724 126.585 94.7039 126.669 95.8999 126.676C99.3578 126.697 106.096 126.115 105.917 121.277ZM105.922 120.497C105.766 120.496 105.61 120.548 105.479 120.625C105.244 120.779 105.113 121.038 105.137 121.299C105.209 122.209 104.866 123.091 104.238 123.763C102.38 125.676 98.2184 125.936 95.9045 125.922C94.7605 125.915 93.955 125.832 93.955 125.832L93.851 125.831C93.617 125.83 93.4084 125.933 93.2774 126.088C90.1624 129.501 88.1176 136.456 87.5148 145.683C86.9419 154.285 87.686 164.352 89.529 173.308C94.9069 199.367 96.4446 202.991 96.4957 203.147C96.6239 203.434 96.9088 203.618 97.1948 203.619C97.2728 203.62 97.3508 203.62 97.4289 203.595L158.483 185.848C158.9 185.72 159.137 185.306 159.009 184.889C158.984 184.785 158.932 184.681 158.855 184.602C155.579 180.344 152.982 175.596 151.193 170.515C147.769 160.848 144.927 153.654 141.272 147.599C137.308 141.049 132.581 136.054 125.901 131.385C119.015 126.584 106.363 120.63 106.234 120.577C106.13 120.525 106 120.498 105.922 120.497Z" fill="black"/>
<path d="M163.891 173.141C163.891 173.141 156.299 152.008 163.245 142.899C170.191 133.789 221.009 127.445 221.009 127.445L228.953 150.531L201.195 161.618" fill="#58298C"/>
<path d="M163.889 173.531C163.733 173.53 163.577 173.426 163.526 173.269C163.219 172.409 155.936 151.824 162.934 142.663C169.933 133.502 218.904 127.329 220.985 127.082C221.167 127.057 221.349 127.162 221.4 127.344L229.344 150.429C229.421 150.638 229.315 150.845 229.133 150.922L201.374 162.01C201.166 162.086 200.958 161.981 200.855 161.799C200.753 161.616 200.884 161.383 201.067 161.28L228.461 150.32L220.746 127.886C216.453 128.432 170.03 134.62 163.555 143.135C156.819 151.986 164.205 172.805 164.256 173.014C164.333 173.222 164.227 173.43 164.019 173.506C163.967 173.532 163.941 173.532 163.889 173.531Z" fill="black"/>
<path d="M222.363 127.09C224.421 122.162 227.258 117.604 230.792 113.595C231.499 112.794 232.722 112.723 233.523 113.43C233.782 113.666 233.962 113.953 234.064 114.291L244.066 145.19C244.066 145.19 236.938 150.086 230.077 149.602L222.363 127.09Z" fill="#6C32AD"/>
<path d="M230.959 150.049C230.647 150.047 230.361 150.046 230.049 150.018C229.893 150.017 229.763 149.912 229.712 149.756L221.999 127.218C221.973 127.14 221.974 127.036 222 126.958C224.085 121.978 226.947 117.394 230.508 113.334C231.372 112.377 232.855 112.308 233.811 113.172C234.096 113.434 234.328 113.773 234.455 114.164L244.458 145.062C244.509 145.218 244.455 145.4 244.299 145.503C244.012 145.709 237.589 150.09 230.959 150.049ZM230.365 149.266C236.24 149.562 242.346 145.881 243.6 145.057L233.7 114.419C233.419 113.612 232.537 113.164 231.73 113.445C231.469 113.522 231.26 113.676 231.077 113.857C227.621 117.814 224.811 122.269 222.78 127.092L230.365 149.266Z" fill="black"/>
<path d="M147.344 162.223L88.3923 159.339C88.4169 159.573 88.4156 159.781 88.4402 160.015L89.7203 163.247L147.855 163.579C147.676 163.109 147.497 162.666 147.344 162.223Z" fill="#E89D00"/>
<path d="M215.076 128.293C215.076 128.293 221.119 143.333 223.376 152.603L230.544 149.735L222.596 127.221L215.076 128.293Z" fill="white"/>
<path d="M223.4 152.993C223.348 152.992 223.27 152.966 223.218 152.94C223.115 152.887 223.037 152.782 223.012 152.678C220.78 143.564 214.788 128.577 214.711 128.421C214.634 128.212 214.74 128.005 214.948 127.928C214.974 127.928 215 127.903 215.026 127.903L222.547 126.857C222.729 126.832 222.91 126.937 222.961 127.119L230.909 149.633C230.986 149.841 230.88 150.049 230.698 150.125L223.53 152.993C223.504 152.993 223.452 152.993 223.4 152.993ZM215.646 128.609C216.67 131.163 221.585 143.777 223.692 152.084L230.078 149.524L222.36 127.662L215.646 128.609Z" fill="black"/>
<path d="M137.036 164.214C137.036 164.214 165.787 131.188 179.145 136.522C192.502 141.857 200.588 154.699 202.272 164.043C203.957 173.388 207.081 185.341 207.081 185.341L187.515 195.985C187.515 195.985 173.081 175.512 171.933 172.021C170.784 168.53 137.036 164.214 137.036 164.214Z" fill="#6C32AD"/>
<path d="M187.513 196.375C187.383 196.374 187.279 196.321 187.202 196.217C186.609 195.381 172.716 175.665 171.567 172.148C171.363 171.549 169.267 169.898 153.996 167.204C145.528 165.722 137.085 164.63 136.981 164.63C136.773 164.602 136.618 164.419 136.62 164.211C136.62 164.133 136.673 164.056 136.725 164.004C141.752 158.367 147.114 153.07 152.813 148.113C164.68 137.941 173.596 133.94 179.277 136.185C185.45 138.641 191.013 142.939 195.373 148.556C199.087 153.363 201.731 158.97 202.636 163.993C204.296 173.208 207.42 185.135 207.445 185.265C207.496 185.448 207.417 185.629 207.261 185.706L187.695 196.35C187.643 196.35 187.591 196.375 187.513 196.375ZM137.817 163.933C140.052 164.232 147.092 165.186 154.13 166.425C171.532 169.47 172.093 171.242 172.297 171.893C173.344 175.071 185.87 192.985 187.622 195.492L206.614 185.156C206.132 183.255 203.39 172.552 201.855 164.144C200.095 154.435 191.669 141.981 178.96 136.911C166.978 132.079 141.64 159.64 137.817 163.933Z" fill="black"/>
<path d="M138.184 163.519L178.951 163.744L139.728 161.813C139.074 162.537 138.55 163.105 138.184 163.519Z" fill="#59298F"/>
<path d="M207.52 185.838C207.52 185.838 215.55 186.537 222.959 190.951C223.865 191.502 224.17 192.7 223.618 193.607C223.435 193.892 223.199 194.15 222.886 194.304L194.449 209.99C194.449 209.99 187.829 204.151 186.987 197.308L207.52 185.838Z" fill="#6C32AD"/>
<path d="M194.473 210.406C194.369 210.405 194.291 210.379 194.213 210.3C193.929 210.064 187.464 204.279 186.623 197.357C186.598 197.201 186.677 197.046 186.833 196.969L207.34 185.472C207.418 185.447 207.496 185.421 207.574 185.422C207.652 185.422 215.786 186.2 223.169 190.588C224.283 191.271 224.612 192.703 223.955 193.791C223.745 194.127 223.457 194.412 223.092 194.617L194.655 210.303C194.603 210.381 194.551 210.38 194.473 210.406ZM187.454 197.518C188.276 203.374 193.444 208.501 194.53 209.522L222.732 193.965C223.489 193.528 223.755 192.593 223.317 191.837C223.189 191.602 223.008 191.419 222.775 191.287C216.013 187.268 208.635 186.338 207.621 186.228L187.454 197.518Z" fill="black"/>
<path d="M204.989 178.906C204.989 178.906 191.864 186.417 183.207 190.42L187.246 197.439L207.466 186.123L204.989 178.906Z" fill="white"/>
<path d="M187.218 197.829C187.088 197.828 186.958 197.749 186.881 197.619L182.842 190.6C182.739 190.417 182.793 190.184 182.975 190.081C182.975 190.081 183.001 190.081 183.001 190.055C191.554 186.129 204.626 178.644 204.757 178.567C204.939 178.464 205.173 178.517 205.302 178.7C205.302 178.726 205.327 178.752 205.327 178.778L207.805 185.969C207.856 186.152 207.777 186.333 207.62 186.436L187.4 197.752C187.348 197.804 187.296 197.804 187.218 197.829ZM183.726 190.579L187.354 196.894L206.947 185.912L204.751 179.477C202.507 180.763 191.444 187.013 183.726 190.579Z" fill="black"/>
<path d="M82.9486 110.216C82.9486 110.216 76.8273 116.263 73.2398 107.713C71.3434 103.229 62.5908 93.2168 55.9915 96.6603C49.3922 100.104 45.2126 94.8259 40.2044 93.2091C34.4437 91.3537 24.6214 98.8594 34.638 110.491C58.4148 138.094 89.8569 119.957 89.8569 119.957L87.4229 109.854L82.9486 110.216Z" fill="#6C32AD"/>
<path d="M38.3857 92.9643C39.0096 92.9681 39.6072 93.0498 40.204 93.2355C43.9926 94.4548 47.3261 97.8033 51.59 97.8296C53.1241 97.813 54.6345 97.4323 55.9911 96.6866C56.9041 96.1982 57.9195 95.9705 58.9595 95.9768C64.9914 96.0139 71.6252 103.881 73.2395 107.739C74.7259 111.258 76.6176 112.284 78.3596 112.294C80.8295 112.31 82.9484 110.217 82.9484 110.217L87.4484 109.906L89.8823 120.009C89.8823 120.009 79.6016 125.952 66.3419 125.871C56.41 125.81 44.8349 122.385 34.6373 110.57C25.6278 100.062 32.6918 92.9293 38.3857 92.9643ZM38.3904 92.1843C35.0625 92.1638 31.7475 94.2755 30.3506 97.335C29.2966 99.6165 28.3829 104.447 34.0625 111.034C38.8385 116.576 44.2991 120.717 50.2893 123.302C55.372 125.491 60.8252 126.617 66.3372 126.625C79.649 126.707 89.8507 120.919 90.2943 120.662C90.5815 120.482 90.7395 120.145 90.6636 119.806L88.2297 109.703C88.1538 109.365 87.8434 109.103 87.4794 109.1L87.4274 109.1L82.9272 109.436C82.7451 109.461 82.5626 109.538 82.4318 109.667C82.4056 109.693 80.4963 111.528 78.3904 111.515C76.5964 111.504 75.1229 110.117 73.9954 107.432C72.2528 103.287 65.3862 95.2363 58.9903 95.197C57.8203 95.1898 56.6746 95.4688 55.6574 95.9825C54.4311 96.677 53.0509 97.0325 51.6208 97.0497C49.1768 97.0347 47.0781 95.8518 44.8238 94.5899C43.4246 93.8013 41.9736 92.9864 40.4685 92.5091C39.7939 92.2709 39.0926 92.1626 38.3904 92.1843Z" fill="black"/>
<path d="M95.0217 125.734C95.0217 125.734 95.2807 125.892 95.7469 126.181C98.3893 127.757 104.687 131.15 108.364 129.353C112.641 127.247 107.616 124.148 107.616 124.148C113.499 127.174 110.583 123.568 110.583 123.568L106.594 121.152L95.0217 125.734Z" fill="white"/>
<path d="M105.81 130.247C102.326 130.226 98.0756 128.042 95.5369 126.518C95.0705 126.255 94.8116 126.072 94.8116 126.072C94.6302 125.966 94.5798 125.706 94.685 125.525C94.7374 125.447 94.7898 125.395 94.8679 125.37L106.414 120.761C106.519 120.709 106.649 120.736 106.752 120.789L110.742 123.205C110.767 123.232 110.819 123.258 110.845 123.284C111.206 123.728 111.98 124.825 111.508 125.446C111.272 125.731 110.881 125.884 109.713 125.513C110.178 126.036 110.434 126.714 110.43 127.416C110.398 128.325 109.743 129.101 108.491 129.718C107.683 130.077 106.746 130.279 105.81 130.247ZM95.9052 125.818L95.957 125.845C98.4697 127.368 104.715 130.709 108.184 128.988C109.149 128.5 109.646 127.957 109.676 127.359C109.735 126.189 108.053 124.879 107.38 124.459C107.199 124.328 107.148 124.093 107.279 123.912C107.384 123.757 107.592 123.706 107.774 123.785C110.081 124.969 110.731 124.973 110.887 124.948C110.759 124.532 110.554 124.166 110.296 123.827L106.54 121.542L95.9052 125.818Z" fill="black"/>
<path d="M81.5943 106.386C84.8825 106.406 87.5646 103.757 87.5848 100.469C87.605 97.1808 84.9557 94.4987 81.6675 94.4785C78.3793 94.4583 75.6972 97.1075 75.677 100.396C75.6568 103.684 78.306 106.366 81.5943 106.386Z" fill="#6C32AD"/>
<path d="M81.6678 94.4522C84.9697 94.4726 87.6314 97.141 87.6371 100.443C87.6168 103.745 84.9484 106.407 81.6463 106.412C78.3443 106.392 75.6827 103.724 75.677 100.422C75.6933 97.7696 77.4498 95.4143 80.0282 94.7022C80.5492 94.5494 81.1216 94.4749 81.6678 94.4522ZM81.6726 93.6723C77.9547 93.6494 74.9202 96.6468 74.8973 100.365C74.8745 104.083 77.8719 107.117 81.5898 107.14C85.3337 107.163 88.3684 104.14 88.3654 100.396C88.3692 99.7716 88.2951 99.1471 88.1167 98.548C87.3022 95.7089 84.6884 93.7168 81.6726 93.6723Z" fill="black"/>
<path d="M103.035 133.221C97.9643 124.921 85.3637 123.362 75.0886 115.706C64.8134 108.051 58.4852 105.464 52.512 104.335C45.0327 102.911 42.8509 106.772 42.8509 106.772L38.7189 106.435L34.3481 115.326L38.7329 116.835C39.5467 119.804 39.9209 122.38 50.9065 124.424C59.6587 126.038 61.3355 136.656 74.4706 144.329C87.6056 152.002 95.5109 151.817 95.5109 151.817" fill="#FFAD00"/>
<path d="M95.4309 152.206C94.3909 152.199 86.7227 151.892 74.2869 144.666C67.81 140.882 63.9902 136.282 60.9446 132.623C57.7187 128.704 55.1636 125.62 50.8263 124.839C39.9185 122.822 39.2325 120.218 38.4188 117.249L38.3932 117.17L34.2161 115.715C34.0086 115.636 33.9059 115.427 33.9851 115.219C33.9851 115.219 33.9853 115.193 34.0113 115.194L38.3822 106.276C38.4612 106.121 38.6176 106.044 38.7735 106.071L42.6717 106.381C43.2748 105.552 45.8925 102.682 52.5927 103.972C57.7346 104.965 64.0401 107.032 75.3247 115.422C79.5434 118.568 84.0809 120.623 88.4625 122.652C94.5554 125.446 100.337 128.082 103.375 133.066C103.478 133.249 103.424 133.483 103.241 133.612C103.059 133.714 102.825 133.661 102.696 133.478C99.7875 128.702 94.3686 126.225 88.12 123.378C83.6864 121.349 79.0971 119.267 74.8267 116.068C63.6456 107.758 57.444 105.717 52.4059 104.75C45.342 103.407 43.2408 106.852 43.162 106.982C43.0832 107.111 42.9527 107.188 42.7967 107.187L38.9505 106.878L34.8954 115.173L38.8651 116.549C38.9949 116.576 39.0983 116.681 39.1235 116.811L39.1999 117.071C39.9371 119.806 40.5725 122.176 51.0128 124.112C55.6096 124.972 58.242 128.161 61.5714 132.185C64.7458 136.027 68.3333 140.339 74.7065 144.07C87.5827 151.56 95.4612 151.504 95.5392 151.505C95.7472 151.506 95.9281 151.689 95.9268 151.897C95.9255 152.105 95.7424 152.286 95.5344 152.285L95.4309 152.206Z" fill="black"/>
<path d="M39.3073 116.448C39.962 115.698 44.1218 111.511 42.8483 107.187C42.7959 107.265 42.5108 107.107 42.5108 107.107L38.8979 106.929L35.1281 115.33L39.3073 116.448Z" fill="#E89D00"/>
<path d="M30.9116 103.344C35.6486 102.541 35.8375 101.424 39.056 102.328C41.1066 102.887 41.4988 106.763 40.0713 110.577C38.6438 114.39 35.8982 116.921 33.9007 116.181C31.9032 115.44 30.4533 114.444 28.1707 113.572" fill="#FFCDB2"/>
<path d="M34.6254 116.705C34.3395 116.704 34.0538 116.65 33.7684 116.544C32.8605 116.2 31.9531 115.779 31.0718 115.331C30.087 114.805 29.0758 114.357 28.0382 113.961C27.8305 113.908 27.7018 113.699 27.7811 113.491C27.8344 113.284 28.0432 113.155 28.2507 113.234C28.2767 113.234 28.2767 113.234 28.3025 113.26C29.3661 113.657 30.4032 114.131 31.414 114.658C32.2692 115.105 33.1248 115.5 34.0327 115.844C34.837 116.135 35.8792 115.777 36.9251 114.821C38.0493 113.814 39.0209 112.26 39.6819 110.47C40.6337 107.902 40.7543 105.199 40.0094 103.712C39.8043 103.243 39.4166 102.877 38.9235 102.718C36.9768 102.186 36.2215 102.389 34.7107 102.848C33.4863 103.23 32.2104 103.534 30.9351 103.734C30.727 103.759 30.5198 103.628 30.4691 103.42C30.4443 103.211 30.5756 103.004 30.7839 102.953C32.0332 102.753 33.2571 102.449 34.4555 102.066C36.0445 101.582 36.93 101.327 39.0843 101.938C39.785 102.151 40.3538 102.674 40.6618 103.326C41.5354 105.022 41.4137 107.907 40.3824 110.709C39.6686 112.628 38.6186 114.26 37.4157 115.37C36.5001 116.275 35.5354 116.711 34.6254 116.705Z" fill="black"/>
<path d="M106.421 102.82C106.421 102.82 107.052 97.3641 103.214 95.8065C99.3754 94.2488 98.9018 95.1559 96.9316 94.2078C94.9614 93.2597 90.9254 94.2229 89.1392 97.1759C89.1392 97.1759 84.04 97.6906 81.9402 100.902C79.8404 104.113 80.087 106.298 81.2653 109.166C82.4437 112.033 82.5377 113.672 83.3052 115.704C84.0727 117.737 87.0059 122.747 95.6522 120.46C104.298 118.174 106.421 102.82 106.421 102.82Z" fill="#6C32AD"/>
<path d="M95.217 93.8592C95.8151 93.8369 96.4123 93.9706 96.9568 94.2079C98.9011 95.1559 99.4265 94.2751 103.239 95.8066C107.052 97.338 106.446 102.82 106.446 102.82C106.446 102.82 104.349 118.226 95.7032 120.487C94.3489 120.868 92.9438 121.042 91.5396 121.059C86.0798 121.026 83.9962 117.373 83.3824 115.705C82.6149 113.672 82.5211 112.007 81.3426 109.166C80.164 106.325 79.9176 104.113 82.0174 100.902C84.1172 97.691 89.2165 97.1764 89.2165 97.1764C90.5303 94.9224 93.163 93.8466 95.217 93.8592ZM95.2478 93.0794C93.1158 93.0663 90.3273 94.1151 88.7269 96.4454C87.4257 96.6454 83.2605 97.4778 81.318 100.482C79.0344 103.978 79.3314 106.424 80.5867 109.474C81.1248 110.751 81.5327 112.079 81.8624 113.433C82.0649 114.319 82.3196 115.178 82.6265 116.012C83.1382 117.367 85.2948 121.827 91.5087 121.865C92.9908 121.848 94.4481 121.649 95.8804 121.268C99.6566 120.277 102.824 116.76 105.017 111.106C106.021 108.46 106.766 105.734 107.199 102.955L107.199 102.929C107.227 102.669 107.835 96.8748 103.529 95.1063C101.299 94.2086 100.156 94.0976 99.2202 93.9878C98.5704 93.9578 97.9214 93.7978 97.3252 93.5082C96.6509 93.218 95.9499 93.0577 95.2478 93.0794Z" fill="black"/>
<path d="M49.4634 118.123C50.167 118.127 50.7409 117.56 50.7452 116.857C50.7495 116.153 50.1827 115.579 49.4791 115.575C48.7755 115.57 48.2016 116.137 48.1972 116.841C48.1929 117.544 48.7598 118.118 49.4634 118.123Z" fill="#FFC140"/>
<path d="M102.689 117.748L107.282 123.392C107.282 123.392 108.27 127.584 96.3276 124.729C96.3276 124.729 96.6307 121.948 94.068 115.874C94.068 115.874 91.5358 117.523 89.9631 115.355C88.3904 113.187 89.5719 111.323 90.9782 110.941C90.9782 110.941 96.8611 109.834 93.0531 99.0979C93.0531 99.0979 98.2409 96.8677 102.85 99.8861C107.46 102.905 111.172 108.049 109.535 112.251C107.897 116.453 102.689 117.748 102.689 117.748Z" fill="#FFCDB2"/>
<path d="M97.4525 98.2671C99.3766 98.2529 101.245 98.8104 102.877 99.8605C107.486 102.879 111.199 108.024 109.561 112.226C107.923 116.428 102.689 117.748 102.689 117.748L107.282 123.392C107.282 123.392 107.84 125.761 103.056 125.732C101.47 125.722 99.2874 125.449 96.3278 124.729C96.3278 124.729 96.6309 121.948 94.0682 115.875C93.468 116.235 92.7645 116.465 92.0624 116.486C91.2304 116.481 90.453 116.06 89.9893 115.356C88.4428 113.162 89.5981 111.323 91.0045 110.942C91.0045 110.942 96.8874 109.834 93.0793 99.0982C94.4608 98.5347 95.9445 98.2578 97.4525 98.2671ZM97.4573 97.4871C95.8453 97.4772 94.2576 97.7534 92.772 98.3423C92.407 98.4961 92.1963 98.9368 92.3499 99.3277C94.1642 104.487 93.6277 107.162 92.8655 108.509C92.4445 109.312 91.713 109.88 90.8533 110.161L90.7751 110.186C89.7852 110.492 89.0006 111.241 88.6567 112.201C88.2597 113.343 88.5118 114.618 89.3626 115.794C89.955 116.707 90.9916 117.26 92.0838 117.24C92.6297 117.244 93.1765 117.117 93.6978 116.912C95.7716 122.151 95.5744 124.62 95.5743 124.646C95.5459 125.036 95.8036 125.401 96.1672 125.482C98.9451 126.149 101.257 126.501 103.077 126.512C105.287 126.526 106.824 126.041 107.584 125.084C108.003 124.566 108.189 123.892 108.063 123.215C108.038 123.111 107.987 122.98 107.909 122.902L104.038 118.146C105.785 117.481 109.045 115.837 110.313 112.516C112.163 107.718 107.984 102.258 103.323 99.2132C101.562 98.0843 99.5374 97.4739 97.4573 97.4871Z" fill="black"/>
<path d="M100.656 118.515C100.266 118.513 99.9024 118.485 99.5125 118.456C99.3047 118.429 99.15 118.22 99.1772 118.012C99.2045 117.805 99.4135 117.65 99.6213 117.677C99.6473 117.677 101.726 117.924 103.185 117.361C103.394 117.284 103.601 117.416 103.678 117.624C103.729 117.806 103.649 118.014 103.467 118.091C102.581 118.371 101.618 118.521 100.656 118.515Z" fill="black"/>
<path d="M93.0323 115.218C93.0063 115.218 92.9803 115.218 92.9543 115.218C91.7861 114.925 91.0611 114.426 90.8316 113.697C90.474 112.655 91.3122 111.646 91.3386 111.594C91.4695 111.439 91.7297 111.414 91.8849 111.545C92.0401 111.676 92.0645 111.936 91.9335 112.092C91.9334 112.118 91.357 112.816 91.5612 113.441C91.7398 113.988 92.5181 114.279 93.1411 114.439C93.3488 114.492 93.4775 114.701 93.4242 114.909C93.371 115.116 93.2143 115.22 93.0323 115.218Z" fill="black"/>
<path d="M98.9217 104.569C97.0607 107.001 93.1246 108.641 93.2987 109.916C93.4729 111.191 94.8204 111.928 96.2813 111.131C97.7422 110.334 98.9449 109.249 101.273 106.897C103.602 104.545 105.723 102.062 104.3 100.988C102.876 99.9129 101.674 100.972 98.9217 104.569Z" fill="#FFB49F"/>
<path d="M95.0895 110.421L95.0635 110.421C94.8556 110.394 94.7008 110.211 94.7021 110.003C94.9828 106.624 98.1036 106.513 98.1296 106.514C98.3376 106.515 98.5184 106.698 98.5172 106.906C98.5159 107.114 98.3328 107.295 98.1248 107.294C98.0208 107.293 95.6802 107.383 95.4557 110.059C95.4544 110.267 95.2715 110.422 95.0895 110.421Z" fill="black"/>
<path d="M97.9235 102.014C97.7155 102.013 97.5345 101.856 97.5098 101.648C97.5111 101.44 97.6682 101.259 97.8763 101.234C98.4748 101.16 99.0482 100.929 99.5443 100.594C99.7271 100.465 99.9609 100.493 100.09 100.676C100.219 100.832 100.191 101.092 100.008 101.221C99.4077 101.659 98.7042 101.915 97.9495 102.014L97.9235 102.014Z" fill="black"/>
<path d="M100.086 113.858C99.5924 113.855 99.0991 113.748 98.632 113.589C98.4245 113.51 98.348 113.275 98.4272 113.068C98.5064 112.886 98.689 112.783 98.8967 112.836C101.232 113.631 102.204 111.999 102.256 111.921C102.361 111.74 102.596 111.663 102.777 111.768C102.959 111.873 103.035 112.108 102.93 112.289C102.326 113.274 101.23 113.865 100.086 113.858Z" fill="black"/>
<path d="M87.3601 111.647C87.2301 111.647 87.1521 111.646 87.1261 111.646C86.9181 111.645 86.7372 111.462 86.7645 111.254C86.7658 111.046 86.9489 110.865 87.1567 110.892C87.1827 110.892 90.6919 111.044 92.4441 109.391C92.601 109.236 92.835 109.237 92.99 109.394C93.1451 109.551 93.1436 109.785 92.9867 109.94C92.9867 109.94 92.9867 109.94 92.9605 109.966C91.2608 111.541 88.2441 111.653 87.3601 111.647Z" fill="black"/>
<path d="M90.0739 110.052C89.9439 110.051 89.8143 109.999 89.7371 109.868C89.6082 109.685 89.6616 109.452 89.8444 109.323C94.0994 106.567 91.7889 101.769 91.6862 101.56C91.5833 101.377 91.6627 101.144 91.8714 101.041C92.054 100.938 92.2875 101.018 92.3902 101.226C92.4159 101.278 95.1118 106.833 90.2824 109.975C90.2299 110.053 90.1519 110.053 90.0739 110.052Z" fill="white"/>
<path d="M73.3312 101.291C73.2012 101.29 73.0717 101.211 72.9945 101.081C72.2745 99.7765 72.1005 98.4755 72.4459 97.2816C73.083 95.1534 75.144 94.0221 75.2223 93.9706C75.4049 93.8677 75.6384 93.9471 75.7412 94.1558C75.844 94.3384 75.7646 94.5719 75.582 94.6748C75.556 94.6746 73.7036 95.7033 73.1724 97.52C72.8802 98.5322 73.0296 99.5992 73.6468 100.721C73.7496 100.904 73.6702 101.137 73.4876 101.24C73.4614 101.266 73.3832 101.291 73.3312 101.291Z" fill="black"/>
<path d="M103.085 108.234C103.007 108.234 102.955 108.207 102.903 108.181L98.6024 105.711C98.4211 105.606 98.3445 105.371 98.4496 105.19C98.5548 105.008 98.7892 104.932 98.9706 105.037L103.271 107.507C103.453 107.612 103.529 107.847 103.424 108.028C103.345 108.158 103.215 108.235 103.085 108.234Z" fill="black"/>
<path d="M152.21 72.9154C156.926 71.2284 161.359 69.1756 160.826 71.3043C160.266 73.5369 158.094 75.7596 151.952 76.6839C146.097 77.5579 145.506 76.3322 145.506 76.3322" fill="#FFCDB2"/>
<path d="M148.256 77.3894C145.838 77.3745 145.296 76.7471 145.167 76.5123C145.091 76.3039 145.17 76.0964 145.353 75.9935C145.535 75.9166 145.743 75.9699 145.846 76.1265C145.897 76.1788 146.828 77.0426 151.903 76.2938C156.926 75.5446 159.796 73.8462 160.462 71.2243C160.515 71.0686 160.516 70.9126 160.464 70.8863C159.999 70.4674 157.106 71.5417 154.787 72.4114C154.005 72.7186 153.171 73.0255 152.363 73.3065C152.155 73.3573 151.948 73.226 151.897 73.0437C151.846 72.8613 151.951 72.654 152.108 72.5769C152.941 72.2961 153.749 71.989 154.531 71.6818C158.232 70.3006 160.212 69.6107 160.988 70.2915C161.195 70.4748 161.375 70.7879 161.241 71.4111C160.495 74.3706 157.415 76.2757 152.054 77.0747C150.779 77.2749 149.53 77.3712 148.256 77.3894Z" fill="black"/>
<path d="M140.694 68.1386C140.694 68.1386 149.284 62.3933 150.467 64.4806C151.65 66.5679 145.784 69.1059 145.195 71.9363C144.605 74.7668 140.694 68.1386 140.694 68.1386Z" fill="#FFCDB2"/>
<path d="M144.642 73.0508C143.238 73.0422 141.024 69.4665 140.381 68.3445C140.278 68.1619 140.332 67.9282 140.514 67.8253C141.245 67.3358 147.641 63.1371 150.004 63.6976C150.367 63.7779 150.652 63.9876 150.832 64.3007C151.604 65.6835 150.087 67.0522 148.466 68.5242C147.238 69.6087 145.852 70.8482 145.611 72.0427C145.45 72.7958 145.085 73.0015 144.798 73.0518C144.746 73.0514 144.694 73.0511 144.642 73.0508ZM141.24 68.2718C142.604 70.5162 144.179 72.3459 144.647 72.2708C144.699 72.2711 144.778 72.1416 144.832 71.882C145.126 70.4537 146.564 69.1626 147.924 67.9229C149.31 66.6834 150.617 65.5214 150.128 64.6864C150.051 64.5559 149.921 64.4771 149.791 64.4503C148.156 64.0763 143.328 66.9066 141.24 68.2718Z" fill="black"/>
<path d="M136.682 73.7038C136.682 73.7038 137.867 67.0029 143.218 67.9718C148.568 68.9408 150.559 70.695 153.254 67.9816C157.754 63.4331 161.213 63.2464 157.189 70.7878C153.164 78.3292 140.393 79.1607 140.393 79.1607" fill="#FFCDB2"/>
<path d="M140.39 79.5771C140.182 79.5758 140.001 79.4187 139.976 79.2105C139.952 79.0024 140.135 78.8215 140.343 78.7968C140.473 78.7976 152.959 77.8863 156.825 70.63C159.219 66.1206 158.444 65.3618 158.34 65.2832C157.926 64.9686 156.233 65.5042 153.486 68.2694C151.341 70.4402 149.601 69.9615 146.72 69.2158C145.682 68.9494 144.514 68.6302 143.111 68.3876C141.942 68.1464 140.745 68.3731 139.753 69.043C137.612 70.5378 137.02 73.7843 137.02 73.8103C136.992 74.0181 136.783 74.1728 136.549 74.1454C136.316 74.1179 136.187 73.9091 136.214 73.6753C136.241 73.5195 136.887 70.0654 139.289 68.3901C140.438 67.5912 141.87 67.314 143.22 67.6083C144.648 67.8771 145.842 68.1704 146.881 68.4628C149.684 69.208 151.086 69.5807 152.891 67.7197C153.886 66.7118 157.233 63.5344 158.76 64.6618C159.744 65.3958 159.315 67.5252 157.473 70.998C153.474 78.6175 140.962 79.5286 140.39 79.5771Z" fill="black"/>
<path d="M93.1467 117.637C93.6924 117.641 94.1374 117.201 94.1408 116.655C94.1441 116.11 93.7045 115.665 93.1589 115.661C92.6132 115.658 92.1682 116.098 92.1648 116.643C92.1615 117.189 92.6011 117.634 93.1467 117.637Z" fill="#FFAD00"/>
<path d="M93.1587 115.687C93.7047 115.691 94.1439 116.135 94.1406 116.681C94.1379 117.123 93.8496 117.486 93.4328 117.613C93.3547 117.639 93.2507 117.638 93.1727 117.637C92.6267 117.634 92.2134 117.19 92.2168 116.644C92.2193 116.228 92.5077 115.839 92.9245 115.712C92.9765 115.712 93.0807 115.687 93.1587 115.687ZM93.1635 114.907C92.2015 114.901 91.3907 115.676 91.3846 116.664C91.3786 117.652 92.1538 118.437 93.1417 118.443C93.2977 118.444 93.4799 118.419 93.6362 118.368C94.5738 118.114 95.0998 117.129 94.8454 116.218C94.6422 115.436 93.9435 114.912 93.1635 114.907Z" fill="black"/>
<path d="M77.6143 102.514C77.4583 102.513 77.3029 102.408 77.2519 102.251C76.715 100.766 76.7232 99.4401 77.3019 98.3516C78.2487 96.5894 80.306 96.0561 80.4102 96.0307C80.6185 95.98 80.8257 96.1113 80.8764 96.3196C80.9272 96.5279 80.7959 96.7351 80.5876 96.7858C80.5616 96.7857 78.7647 97.2426 77.9756 98.7198C77.5022 99.6009 77.4953 100.719 77.9556 101.97C78.0324 102.178 77.9271 102.386 77.7186 102.462C77.6924 102.488 77.6663 102.514 77.6143 102.514Z" fill="white"/>
<path d="M134.522 78.2928L134.496 78.2926C135.194 78.9729 139.872 83.4478 146.324 82.9674L146.454 82.9422L147.032 77.6677L136.443 74.4825L134.522 78.2928Z" fill="#E89D00"/>
<path d="M164.85 135.576C166.443 134.442 168.217 133.543 170.092 132.956C171.968 132.344 173.92 132.044 175.896 132.03C177.794 132.016 179.716 132.314 181.533 132.871C185.088 133.985 188.273 136.11 190.648 138.985C190.802 139.168 190.931 139.351 191.086 139.534C191.241 139.691 191.475 139.692 191.632 139.537C191.789 139.382 191.791 139.148 191.636 138.991C190.449 137.476 189.053 136.115 187.5 135.013C185.947 133.886 184.21 132.991 182.394 132.356C180.526 131.694 178.604 131.345 176.629 131.281C174.601 131.216 172.571 131.464 170.618 132.024C168.665 132.558 166.787 133.404 165.091 134.512C164.882 134.64 164.673 134.795 164.464 134.95C164.281 135.053 164.228 135.286 164.331 135.469C164.434 135.6 164.668 135.653 164.85 135.576Z" fill="black"/>
<path d="M221.415 120.688L225.48 114.914L229.546 109.115L231.828 105.853C231.933 105.672 231.883 105.438 231.701 105.307C231.52 105.201 231.286 105.252 231.155 105.433L227.089 111.206L223.049 117.006L220.767 120.268C220.662 120.449 220.713 120.683 220.894 120.814C221.101 120.92 221.335 120.869 221.415 120.688Z" fill="black"/>
<path d="M139.225 154.841C139.928 154.845 140.502 154.278 140.507 153.575C140.511 152.871 139.944 152.297 139.241 152.293C138.537 152.289 137.963 152.856 137.959 153.559C137.954 154.263 138.521 154.837 139.225 154.841Z" fill="#FFC140"/>
<path d="M103.478 158.573C104.181 158.578 104.755 158.011 104.759 157.307C104.764 156.604 104.197 156.03 103.493 156.025C102.79 156.021 102.216 156.588 102.211 157.292C102.207 157.995 102.774 158.569 103.478 158.573Z" fill="#FFC140"/>
<path d="M122.478 159.626C123.181 159.63 123.755 159.064 123.76 158.36C123.764 157.656 123.197 157.082 122.493 157.078C121.79 157.074 121.216 157.641 121.212 158.344C121.207 159.048 121.774 159.622 122.478 159.626Z" fill="#FFC140"/>
<path d="M109.367 143.763C110.071 143.768 110.644 143.201 110.649 142.497C110.653 141.794 110.086 141.22 109.383 141.215C108.679 141.211 108.105 141.778 108.101 142.481C108.096 143.185 108.663 143.759 109.367 143.763Z" fill="#FFC140"/>
<path d="M127.207 147.357C127.911 147.361 128.485 146.795 128.489 146.091C128.493 145.387 127.926 144.813 127.223 144.809C126.519 144.805 125.945 145.372 125.941 146.075C125.937 146.779 126.503 147.353 127.207 147.357Z" fill="#FFC140"/>
<path d="M117.539 134.064C118.242 134.068 118.816 133.501 118.82 132.797C118.825 132.094 118.258 131.52 117.554 131.516C116.851 131.511 116.277 132.078 116.272 132.782C116.268 133.485 116.835 134.059 117.539 134.064Z" fill="#FFC140"/>
<path d="M51.1211 110.696C51.8247 110.701 52.3986 110.134 52.4029 109.43C52.4072 108.727 51.8404 108.153 51.1368 108.148C50.4332 108.144 49.8593 108.711 49.855 109.415C49.8506 110.118 50.4175 110.692 51.1211 110.696Z" fill="#FFC140"/>
<path d="M78.1858 123.629C78.8894 123.633 79.4633 123.066 79.4676 122.363C79.4719 121.659 78.9051 121.085 78.2015 121.081C77.4979 121.077 76.924 121.644 76.9197 122.347C76.9153 123.051 77.4822 123.625 78.1858 123.629Z" fill="#FFC140"/>
<path d="M61.7358 122.358C62.4394 122.362 63.0133 121.795 63.0177 121.092C63.022 120.388 62.4551 119.814 61.7515 119.81C61.0479 119.806 60.474 120.373 60.4697 121.076C60.4654 121.78 61.0322 122.354 61.7358 122.358Z" fill="#FFC140"/>
<path d="M82.2478 143.831C82.9514 143.835 83.5253 143.268 83.5296 142.565C83.534 141.861 82.9671 141.287 82.2635 141.283C81.5599 141.278 80.986 141.845 80.9817 142.549C80.9773 143.252 81.5442 143.826 82.2478 143.831Z" fill="#FFC140"/>
<path d="M116 117.856C116.704 117.86 117.277 117.293 117.282 116.589C117.286 115.886 116.719 115.312 116.016 115.308C115.312 115.303 114.738 115.87 114.734 116.574C114.73 117.277 115.296 117.851 116 117.856Z" fill="#FFC140"/>
<path d="M134.078 116.563C134.782 116.567 135.356 116 135.36 115.296C135.365 114.593 134.798 114.019 134.094 114.015C133.39 114.01 132.817 114.577 132.812 115.281C132.808 115.984 133.375 116.558 134.078 116.563Z" fill="#FFC140"/>
<path d="M126.193 96.5719C126.896 96.5762 127.47 96.0094 127.475 95.3058C127.479 94.6022 126.912 94.0283 126.209 94.0239C125.505 94.0196 124.931 94.5865 124.927 95.2901C124.922 95.9937 125.489 96.5676 126.193 96.5719Z" fill="#FFC140"/>
<path d="M141.299 92.3746C142.003 92.379 142.577 91.8121 142.581 91.1085C142.585 90.4049 142.018 89.831 141.315 89.8267C140.611 89.8224 140.037 90.3892 140.033 91.0928C140.029 91.7964 140.595 92.3703 141.299 92.3746Z" fill="#FFC140"/>
<path d="M187.843 146.82C189.083 148.128 190.245 149.513 191.328 150.949C192.411 152.412 193.415 153.952 194.342 155.544C195.242 157.136 196.064 158.753 196.755 160.447C198.165 163.784 199.183 167.3 199.785 170.892C199.81 171.1 199.861 171.334 199.885 171.542C199.936 171.751 200.169 171.856 200.352 171.805C200.56 171.729 200.665 171.521 200.615 171.339C200.34 169.517 199.961 167.721 199.478 165.95C198.995 164.179 198.381 162.433 197.69 160.739C196.998 159.018 196.203 157.35 195.328 155.732C193.554 152.497 191.389 149.494 188.883 146.8L188.418 146.278C188.057 145.885 187.507 146.454 187.843 146.82Z" fill="white"/>
<path d="M101.993 103.964C102.352 103.966 102.645 103.677 102.647 103.318C102.649 102.959 102.36 102.666 102.001 102.664C101.642 102.661 101.349 102.951 101.347 103.31C101.345 103.669 101.634 103.961 101.993 103.964Z" fill="black"/>
<path d="M60.2029 101.054C60.1509 101.054 60.0989 101.054 60.047 101.027C48.1433 96.0659 40.5207 84.1108 36.2089 74.9582C33.386 68.9087 31.1888 62.603 29.6686 56.1196C29.6179 55.9113 29.7491 55.7041 29.9835 55.6535C30.2178 55.6029 30.399 55.7341 30.4495 55.9684C31.97 62.3998 34.1414 68.6793 36.9388 74.6506C41.1734 83.6728 48.693 95.4713 60.3634 100.327C60.5709 100.406 60.6474 100.641 60.5681 100.848C60.5155 100.952 60.3589 101.055 60.2029 101.054Z" fill="black"/>
<path d="M33.3929 84.6392C33.2889 84.6385 33.2111 84.612 33.1336 84.5336C25.1933 77.7246 20.3424 67.4506 17.658 60.0239C15.9451 55.2813 14.623 50.4111 13.7176 45.4394C13.6929 45.2313 13.8241 45.0241 14.0583 44.9995C14.2665 44.9748 14.4736 45.1061 14.4982 45.3402C14.5486 45.6005 18.6559 71.1063 33.6311 83.9646C33.7863 84.0956 33.8107 84.3557 33.6797 84.5109C33.6273 84.5886 33.4969 84.6398 33.3929 84.6392Z" fill="black"/>
<path d="M152.835 68.3691C152.835 68.3691 156.84 64.1296 158.369 64.815C159.899 65.5005 157.814 70.6097 156.086 72.4711" fill="#FFCDB2"/>
<path d="M156.084 72.8614C155.98 72.8607 155.902 72.8082 155.824 72.7558C155.669 72.5988 155.671 72.3648 155.802 72.2096C157.162 70.762 158.771 67.1058 158.468 65.6219C158.392 65.2834 158.263 65.2046 158.211 65.2043C157.355 64.809 154.715 67.0028 153.119 68.6571C152.988 68.8123 152.728 68.8366 152.573 68.7057C152.418 68.5747 152.393 68.3146 152.524 68.1594C152.525 68.1334 152.551 68.1335 152.551 68.1075C153.257 67.3579 156.842 63.7138 158.527 64.4782C158.916 64.6626 159.174 65.0542 159.223 65.4705C159.576 67.2147 157.888 71.1044 156.37 72.7591C156.292 72.8366 156.188 72.862 156.084 72.8614Z" fill="black"/>
<path d="M136.486 147.934C136.33 147.933 136.175 147.828 136.123 147.698C132.13 137.533 114.764 128.612 114.583 128.533C114.375 128.454 114.299 128.219 114.378 128.012C114.457 127.804 114.692 127.728 114.899 127.807C114.899 127.807 114.925 127.807 114.925 127.833C115.651 128.202 132.731 136.965 136.827 147.416C136.904 147.625 136.799 147.832 136.616 147.935C136.59 147.935 136.538 147.934 136.486 147.934Z" fill="white"/>
<path d="M32.8199 127.198C32.6379 127.197 32.4827 127.066 32.4577 126.91C32.2545 126.128 27.6343 107.926 36.2903 104.053C37.7764 103.386 39.1802 103.421 40.5016 104.183C46.0465 107.311 47.8533 122.142 47.9275 122.767C47.9522 122.975 47.7949 123.182 47.5868 123.207C47.3786 123.231 47.1716 123.074 47.1468 122.866C47.1218 122.71 45.2894 107.8 40.1074 104.856C39.0193 104.226 37.8755 104.193 36.598 104.757C28.5418 108.347 33.1361 126.524 33.187 126.706C33.2377 126.914 33.1064 127.122 32.9241 127.173C32.8719 127.198 32.8459 127.198 32.8199 127.198Z" fill="black"/>
<path d="M40.8621 125.87C40.8361 125.869 40.8101 125.869 40.7841 125.869C40.5764 125.816 40.4477 125.607 40.501 125.399C40.5279 125.244 43.9979 110.627 40.1517 106.079C39.3517 105.112 38.2622 104.689 36.8836 104.785C28.066 105.355 26.0794 123.985 26.0781 124.193C26.0508 124.4 25.8679 124.555 25.6599 124.554C25.452 124.527 25.2972 124.344 25.2984 124.136C25.3814 123.33 27.3683 104.648 36.8363 104.03C38.449 103.91 39.7717 104.464 40.7266 105.614C44.8308 110.476 41.3873 125.015 41.2275 125.638C41.1749 125.741 41.0181 125.871 40.8621 125.87Z" fill="black"/>
<path d="M23.5809 120.121C23.5809 120.121 18.6596 133.975 20.3429 143.528C20.3429 143.528 26.2933 148.374 41.217 148.466C41.217 148.466 47.577 137.429 45.6497 125.275C45.6497 125.275 36.7209 118.538 23.5809 120.121Z" fill="#6C32AD"/>
<path d="M27.8202 119.887C38.61 119.954 45.6494 125.275 45.6494 125.275C47.5767 137.429 41.2167 148.466 41.2167 148.466L41.1387 148.466C26.267 148.374 20.3427 143.528 20.3427 143.528C18.6594 133.975 23.5806 120.121 23.5806 120.121C24.9856 119.974 26.3902 119.878 27.8202 119.887ZM27.825 119.107C26.369 119.098 24.9384 119.193 23.5073 119.367C23.2211 119.391 22.9599 119.597 22.8801 119.883C22.6686 120.454 17.8791 134.022 19.6137 143.679C19.6386 143.861 19.7416 144.018 19.8968 144.149C20.1556 144.359 26.2102 149.154 41.1859 149.246L41.2639 149.246C41.5499 149.248 41.8109 149.094 41.9423 148.861C43.1785 146.554 44.1813 144.142 44.9247 141.651C46.1711 137.68 47.4567 131.578 46.4562 125.15C46.4314 124.942 46.3286 124.759 46.1472 124.654C45.8106 124.418 38.7188 119.174 27.825 119.107Z" fill="black"/>
<path d="M29.5033 125.28C29.5033 125.28 29.6729 139.971 34.5875 148.347C34.5875 148.347 41.8524 150.836 55.8721 145.722C55.8721 145.722 58.0032 133.177 51.9852 122.428C51.9852 122.428 41.2668 119.216 29.5033 125.28Z" fill="#D9CFFF"/>
<path d="M39.6519 149.34C36.35 149.32 34.6113 148.763 34.4817 148.71C34.4038 148.684 34.3263 148.605 34.2748 148.527C29.3602 140.151 29.136 125.875 29.1398 125.251C29.1408 125.095 29.2196 124.966 29.35 124.888C41.1135 118.825 51.9883 121.986 52.1182 122.012C52.222 122.039 52.2995 122.117 52.351 122.196C58.3692 132.919 56.3151 145.621 56.2884 145.724C56.2616 145.854 56.1568 145.984 56.0265 146.035C48.7037 148.746 43.2398 149.362 39.6519 149.34ZM34.85 148.011C35.8882 148.303 42.9762 149.959 55.5102 145.434C55.7548 143.719 57.0461 132.443 51.6975 122.764C50.3736 122.418 40.5336 120.121 29.8922 125.516C29.9584 127.44 30.4767 140.392 34.85 148.011Z" fill="black"/>
<path d="M21.9311 143.225C21.7231 143.224 21.568 143.067 21.5433 142.859C20.7958 133.338 24.7085 122.832 24.7611 122.728C24.8662 122.547 25.1009 122.444 25.2822 122.55C25.4378 122.629 25.5406 122.811 25.4875 122.993C25.4349 123.097 21.5752 133.447 22.3238 142.786C22.3485 142.994 22.1912 143.201 21.983 143.226L21.9311 143.225Z" fill="white"/>
<path d="M34.8923 128.407C35.28 128.409 35.5962 128.097 35.5986 127.709C35.601 127.321 35.2887 127.005 34.901 127.003C34.5133 127 34.197 127.313 34.1947 127.701C34.1923 128.088 34.5046 128.404 34.8923 128.407Z" fill="#6C32AD"/>
<path d="M44.0583 134.599C44.446 134.602 44.7623 134.289 44.7646 133.902C44.767 133.514 44.4547 133.198 44.067 133.195C43.6793 133.193 43.3631 133.505 43.3607 133.893C43.3583 134.281 43.6706 134.597 44.0583 134.599Z" fill="#6C32AD"/>
<path d="M44.7795 127.272C45.1672 127.274 45.4835 126.962 45.4858 126.574C45.4882 126.186 45.1759 125.87 44.7882 125.868C44.4005 125.865 44.0842 126.178 44.0819 126.565C44.0795 126.953 44.3918 127.269 44.7795 127.272Z" fill="#6C32AD"/>
<path d="M40.1323 147.237C40.52 147.24 40.8362 146.927 40.8386 146.54C40.841 146.152 40.5286 145.836 40.1409 145.833C39.7533 145.831 39.437 146.143 39.4346 146.531C39.4323 146.919 39.7446 147.235 40.1323 147.237Z" fill="#6C32AD"/>
<path d="M52.6052 144.272C52.9929 144.274 53.3091 143.962 53.3115 143.574C53.3139 143.187 53.0015 142.87 52.6139 142.868C52.2262 142.866 51.9099 143.178 51.9075 143.566C51.9052 143.953 52.2175 144.27 52.6052 144.272Z" fill="#6C32AD"/>
<path d="M39.4504 139.693C39.8381 139.695 40.1544 139.383 40.1567 138.995C40.1591 138.608 39.8468 138.291 39.4591 138.289C39.0714 138.287 38.7551 138.599 38.7528 138.987C38.7504 139.374 39.0627 139.691 39.4504 139.693Z" fill="#6C32AD"/>
<path d="M50.9492 134.46C51.3369 134.462 51.6531 134.15 51.6555 133.762C51.6579 133.374 51.3455 133.058 50.9578 133.056C50.5701 133.053 50.2539 133.366 50.2515 133.753C50.2492 134.141 50.5615 134.457 50.9492 134.46Z" fill="#6C32AD"/>
<path d="M36.1065 146.563C35.9765 146.562 35.847 146.483 35.7696 146.379C31.4219 138.838 31.4883 128.048 31.4891 127.918C31.4903 127.71 31.6735 127.529 31.8814 127.53C32.0894 127.532 32.2703 127.715 32.269 127.923C32.2684 128.027 32.2033 138.608 36.4482 145.967C36.551 146.149 36.4716 146.383 36.315 146.486C36.2367 146.537 36.1585 146.563 36.1065 146.563Z" fill="white"/>
<path d="M14.0603 141.981C13.8783 141.98 13.7231 141.849 13.6723 141.667C11.1889 131.147 14.6069 124.98 16.0532 122.337C16.2108 122.078 16.3424 121.819 16.4213 121.663C16.5264 121.482 16.7611 121.379 16.9424 121.484C17.1238 121.589 17.2263 121.824 17.1212 122.005C17.0159 122.213 16.8845 122.446 16.7268 122.731C15.3071 125.27 11.9942 131.256 14.4274 141.489C14.4781 141.698 14.3468 141.905 14.1385 141.955C14.1123 141.981 14.0863 141.981 14.0603 141.981Z" fill="black"/>
<path d="M154.379 66.8963C154.588 66.7156 154.823 66.509 155.058 66.3025C154.332 66.012 153.553 65.8772 152.772 65.9504C143.304 66.5682 141.318 85.2503 141.235 86.0558C141.207 86.2637 141.362 86.4726 141.596 86.4741C141.804 86.5013 142.013 86.3466 142.014 86.1126C142.041 85.9308 144.028 67.3007 152.82 66.7047C153.366 66.7081 153.885 66.7633 154.379 66.8963Z" fill="black"/>
<path d="M157.345 70.6587C158.973 76.6228 156.463 87.2676 156.437 87.3714C156.383 87.5791 156.512 87.7879 156.72 87.8411C156.746 87.8413 156.772 87.8415 156.798 87.8416C156.98 87.8427 157.137 87.7137 157.19 87.532C157.323 86.9868 159.993 75.667 157.846 69.6477C157.687 70.0107 157.529 70.3218 157.345 70.6587Z" fill="black"/>
<path d="M154.274 66.9994C153.417 66.9162 152.532 67.0667 151.749 67.4519C143.093 71.3248 147.713 89.5275 147.917 90.3088C147.968 90.4911 148.123 90.596 148.305 90.5972C148.331 90.5973 148.383 90.5976 148.409 90.5978C148.617 90.5471 148.748 90.3399 148.698 90.1316C148.647 89.9492 144.053 71.7727 152.109 68.1821C152.552 67.9769 153.021 67.8497 153.489 67.8006C153.699 67.5419 153.96 67.2835 154.274 66.9994Z" fill="black"/>
<path d="M163.387 86.1397C163.312 85.5932 161.951 74.3786 157.978 69.3621C157.846 69.6213 157.741 69.8807 157.609 70.1398C161.271 75.1284 162.607 86.1089 162.632 86.213C162.657 86.4212 162.864 86.5785 163.072 86.5537C163.281 86.529 163.438 86.348 163.387 86.1397Z" fill="black"/>
<path d="M139.067 83.4946C139.067 83.4946 134.119 97.3484 135.829 106.901C135.829 106.901 141.779 111.748 156.703 111.84C156.703 111.84 163.063 100.802 161.135 88.6484C161.135 88.6484 152.207 81.9114 139.067 83.4946Z" fill="#D9CFFF"/>
<path d="M156.622 112.229C141.802 112.138 135.825 107.421 135.593 107.211C135.515 107.159 135.463 107.08 135.464 106.976C133.781 97.424 138.518 83.9588 138.729 83.3621C138.782 83.2324 138.913 83.1292 139.043 83.104C152.183 81.5208 161.294 88.259 161.371 88.3114C161.449 88.3639 161.5 88.4682 161.526 88.5724C163.453 100.726 157.118 111.894 157.039 112.023C156.961 112.153 156.83 112.204 156.7 112.229L156.622 112.229ZM136.194 106.695C137.074 107.324 143.133 111.34 156.471 111.448C157.286 109.919 162.445 99.8102 160.77 88.8797C159.657 88.0929 151.215 82.5289 139.35 83.886C138.741 85.6762 134.713 98.0017 136.194 106.695Z" fill="black"/>
<path d="M144.989 88.6527C144.989 88.6527 145.158 103.344 150.073 111.72C150.073 111.72 157.338 114.209 171.357 109.095C171.357 109.095 173.489 96.5501 167.471 85.8009C167.471 85.8009 156.752 82.589 144.989 88.6527Z" fill="#6C32AD"/>
<path d="M155.137 112.714C151.835 112.693 150.097 112.137 149.967 112.084C149.889 112.057 149.812 111.979 149.76 111.901C144.846 103.524 144.621 89.2487 144.625 88.6247C144.626 88.4687 144.705 88.3391 144.835 88.2619C156.599 82.1982 167.474 85.3591 167.603 85.3859C167.707 85.4125 167.785 85.491 167.836 85.5693C173.855 96.2925 171.801 108.968 171.774 109.098C171.747 109.228 171.642 109.357 171.512 109.408C164.189 112.119 158.725 112.736 155.137 112.714ZM150.335 111.384C151.374 111.677 158.461 113.332 170.996 108.807C171.24 107.093 172.557 95.8165 167.183 86.1373C165.859 85.7912 156.019 83.4946 145.378 88.8893C145.444 90.8137 145.962 103.765 150.335 111.384Z" fill="black"/>
<path d="M137.416 106.599C137.208 106.598 137.053 106.441 137.029 106.232C136.281 96.7117 140.194 86.2055 140.247 86.1018C140.3 85.8942 140.509 85.7654 140.716 85.8187C140.924 85.872 141.053 86.0808 140.999 86.2885C140.999 86.3145 140.973 86.3403 140.973 86.3663C140.92 86.47 137.087 96.8206 137.809 106.159C137.834 106.367 137.677 106.574 137.443 106.573L137.416 106.599Z" fill="white"/>
<path d="M150.378 91.7799C150.766 91.7823 151.082 91.4699 151.084 91.0822C151.087 90.6945 150.774 90.3783 150.387 90.3759C149.999 90.3735 149.683 90.6859 149.68 91.0736C149.678 91.4613 149.99 91.7775 150.378 91.7799Z" fill="#6C32AD"/>
<path d="M159.544 97.9727C159.931 97.9751 160.248 97.6628 160.25 97.2751C160.252 96.8874 159.94 96.5712 159.552 96.5688C159.165 96.5664 158.848 96.8787 158.846 97.2664C158.844 97.6541 159.156 97.9704 159.544 97.9727Z" fill="#6C32AD"/>
<path d="M160.265 90.6446C160.653 90.647 160.969 90.3346 160.971 89.9469C160.974 89.5592 160.661 89.243 160.274 89.2406C159.886 89.2383 159.57 89.5506 159.567 89.9383C159.565 90.326 159.877 90.6422 160.265 90.6446Z" fill="#6C32AD"/>
<path d="M155.618 110.611C156.005 110.613 156.322 110.301 156.324 109.913C156.326 109.526 156.014 109.209 155.626 109.207C155.239 109.205 154.922 109.517 154.92 109.905C154.918 110.292 155.23 110.609 155.618 110.611Z" fill="#6C32AD"/>
<path d="M168.064 107.645C168.452 107.647 168.768 107.335 168.771 106.947C168.773 106.56 168.461 106.244 168.073 106.241C167.685 106.239 167.369 106.551 167.367 106.939C167.364 107.327 167.677 107.643 168.064 107.645Z" fill="#6C32AD"/>
<path d="M154.937 103.041C155.325 103.043 155.641 102.731 155.643 102.343C155.646 101.955 155.333 101.639 154.946 101.637C154.558 101.634 154.242 101.947 154.239 102.334C154.237 102.722 154.549 103.038 154.937 103.041Z" fill="#6C32AD"/>
<path d="M166.435 97.8331C166.822 97.8355 167.139 97.5231 167.141 97.1354C167.143 96.7477 166.831 96.4315 166.443 96.4291C166.056 96.4267 165.74 96.7391 165.737 97.1268C165.735 97.5145 166.047 97.8307 166.435 97.8331Z" fill="#6C32AD"/>
<path d="M151.592 109.936C151.462 109.935 151.332 109.856 151.255 109.752C146.907 102.211 146.974 91.3954 146.974 91.2914C146.976 91.0834 147.133 90.9023 147.341 90.9036C147.341 90.9036 147.341 90.9036 147.367 90.9038C147.575 90.905 147.756 91.0882 147.754 91.2962C147.754 91.4002 147.689 101.982 151.933 109.34C152.036 109.523 151.983 109.757 151.8 109.859C151.722 109.911 151.644 109.936 151.592 109.936Z" fill="white"/>
<path d="M152.581 92.8079C153.098 92.8111 153.52 92.3946 153.523 91.8777C153.526 91.3607 153.11 90.9391 152.593 90.9359C152.076 90.9328 151.654 91.3492 151.651 91.8662C151.648 92.3831 152.064 92.8047 152.581 92.8079Z" fill="#59298F"/>
<path d="M164.532 90.2293C165.049 90.2325 165.47 89.816 165.473 89.299C165.477 88.7821 165.06 88.3605 164.543 88.3573C164.026 88.3541 163.605 88.7706 163.601 89.2875C163.598 89.8045 164.015 90.2261 164.532 90.2293Z" fill="#59298F"/>
<path d="M159.398 96.2298C159.915 96.233 160.337 95.8165 160.34 95.2995C160.343 94.7826 159.927 94.361 159.41 94.3578C158.893 94.3546 158.471 94.7711 158.468 95.288C158.465 95.805 158.881 96.2266 159.398 96.2298Z" fill="#59298F"/>
<path d="M168.396 104.397C168.913 104.4 169.335 103.984 169.338 103.467C169.341 102.95 168.925 102.528 168.408 102.525C167.891 102.522 167.469 102.939 167.466 103.456C167.463 103.972 167.879 104.394 168.396 104.397Z" fill="#59298F"/>
<path d="M154.26 103.14C154.777 103.144 155.199 102.727 155.202 102.21C155.205 101.693 154.789 101.272 154.272 101.268C153.755 101.265 153.333 101.682 153.33 102.199C153.327 102.716 153.743 103.137 154.26 103.14Z" fill="#59298F"/>
<path d="M160.249 110.145C160.766 110.148 161.188 109.732 161.191 109.215C161.194 108.698 160.778 108.277 160.261 108.273C159.744 108.27 159.322 108.687 159.319 109.204C159.316 109.72 159.732 110.142 160.249 110.145Z" fill="#59298F"/>
<path d="M164.622 96.626C164.414 96.6248 164.233 96.4416 164.234 96.2337C164.235 96.0777 164.34 95.9223 164.496 95.8713C173.224 93.0129 180.927 87.6781 186.691 80.5374C191.014 75.1559 192.732 70.5904 192.759 70.5385C192.838 70.331 193.073 70.2545 193.28 70.3337C193.462 70.4129 193.538 70.6213 193.485 70.803C193.406 70.9845 191.688 75.524 187.286 81.0091C181.443 88.2793 173.61 93.6912 164.752 96.6008C164.7 96.6265 164.674 96.6264 164.622 96.626Z" fill="black"/>
<path d="M169.285 99.5147C169.077 99.5134 168.896 99.3563 168.871 99.1482C168.872 98.9402 169.029 98.7591 169.238 98.7344C187.528 96.8188 192.609 86.4759 192.662 86.3722C192.741 86.1647 192.976 86.0882 193.183 86.1674C193.391 86.2467 193.467 86.4812 193.388 86.6887L193.388 86.7147C193.335 86.8184 192.071 89.4887 188.439 92.4044C185.12 95.088 179.119 98.5092 169.337 99.515L169.285 99.5147Z" fill="black"/>
<path d="M31.0773 114.656C31.0773 114.656 27.1046 113.773 27.2352 109.458C27.3657 105.142 28.846 101.2 31.8449 99.7619C34.8438 98.3244 37.3085 99.1975 38.5478 100.609C39.7871 102.021 39.3338 103.864 37.2465 105.047C37.2465 105.047 38.893 107.891 35.1373 109.792C35.1373 109.792 35.9634 114.972 31.659 113.073L31.0773 114.656Z" fill="#FFCDB2"/>
<path d="M34.8651 99.0264C36.2693 99.0091 37.5917 99.5892 38.5215 100.609C39.7608 102.021 39.3075 103.864 37.2202 105.047C37.2202 105.047 38.8667 107.891 35.1109 109.792C35.1109 109.792 35.7122 113.488 33.2683 113.473C32.6964 113.443 32.1513 113.31 31.6329 113.047L31.0511 114.629C31.0511 114.629 27.0785 113.747 27.209 109.432C27.3395 105.116 28.8198 101.173 31.8187 99.7357C32.7576 99.2735 33.799 99.0459 34.8651 99.0264ZM34.8699 98.2465C33.6998 98.2653 32.5541 98.5442 31.5109 99.0578C28.512 100.495 26.616 104.384 26.455 109.427C26.2818 112.234 28.1644 114.742 30.9163 115.408C30.9683 115.409 31.0202 115.435 31.0722 115.435C31.4102 115.438 31.6974 115.231 31.8034 114.92L32.1206 114.064C32.5098 114.196 32.8995 114.251 33.2895 114.253C34.0173 114.284 34.6952 113.976 35.1666 113.433C35.9783 112.502 36.0134 111.02 35.9404 110.213C37.1408 109.493 37.9002 108.613 38.2186 107.575C38.4311 106.849 38.4099 106.068 38.1802 105.365C39.1727 104.643 39.7761 103.763 39.9382 102.776C40.0743 101.789 39.7683 100.799 39.0967 100.092C38.012 98.8898 36.4821 98.2304 34.8699 98.2465Z" fill="black"/>
<path d="M35.1344 110.182C35.0304 110.182 34.9267 110.129 34.8492 110.051C33.0926 108.194 30.3886 108.177 30.3366 108.177C30.1286 108.176 29.9477 107.993 29.949 107.785C29.9503 107.577 30.1334 107.396 30.3414 107.397C30.4714 107.398 33.4094 107.416 35.3985 109.508C35.5536 109.665 35.5521 109.899 35.3952 110.054C35.3425 110.158 35.2384 110.183 35.1344 110.182Z" fill="black"/>
<path d="M37.3475 105.516C37.2435 105.516 37.1656 105.489 37.0881 105.411C34.2434 102.923 32.2098 103.821 32.1315 103.872C31.9489 103.975 31.7155 103.87 31.6126 103.687C31.5097 103.504 31.6152 103.271 31.7978 103.168C31.9021 103.117 34.3531 101.988 37.6116 104.842C37.7668 104.973 37.7912 105.233 37.6343 105.388C37.5818 105.466 37.4515 105.517 37.3475 105.516Z" fill="black"/>
<path d="M30.6338 102.225C30.5298 102.224 30.4001 102.171 30.3224 102.119C30.0895 101.935 30.0654 101.623 30.2489 101.39C30.3274 101.313 31.8732 99.3981 34.2666 99.1788C35.7753 99.0581 37.2799 99.6134 38.7281 100.896C38.9348 101.106 38.9327 101.444 38.7236 101.624C38.5405 101.805 38.2543 101.829 38.0473 101.672C36.8319 100.599 35.6128 100.123 34.3902 100.22C32.4391 100.39 31.103 102.019 31.0769 102.045C30.9461 102.174 30.7898 102.226 30.6338 102.225Z" fill="white"/>
<path d="M57.3196 142.845L86.229 151.811L89.2529 163.218L179.757 163.774L166.58 205.32C165.651 208.253 162.82 212.083 159.751 212.168L104.737 211.752C101.512 211.836 98.6388 209.791 97.6696 206.717L81.5497 155.916L57.2846 148.539L57.3196 142.845Z" fill="#D9CFFF"/>
<path d="M159.749 212.558L104.735 212.142C101.354 212.225 98.3253 210.049 97.305 206.844L81.2618 156.253L57.2044 148.929C57.0487 148.876 56.9196 148.719 56.9206 148.563L56.9556 142.869C56.9569 142.661 57.14 142.48 57.348 142.481C57.374 142.482 57.426 142.482 57.4518 142.508L86.3613 151.474C86.4911 151.501 86.5945 151.605 86.6197 151.736L89.5673 162.856L179.786 163.411C179.994 163.412 180.175 163.595 180.173 163.803C180.173 163.855 180.173 163.881 180.147 163.907L166.943 205.426C166.042 208.255 163.156 212.475 159.749 212.558ZM104.739 211.362L159.754 211.778C162.744 211.693 165.368 207.809 166.217 205.188L179.261 164.135L89.2769 163.582C89.0949 163.581 88.9397 163.45 88.9146 163.294L85.9414 152.095L57.7327 143.342L57.7027 148.23L81.6822 155.527C81.8121 155.554 81.9154 155.659 81.9406 155.789L98.0606 206.589C98.9788 209.481 101.697 211.421 104.739 211.362Z" fill="black"/>
<path d="M111.21 211.844C111.08 211.843 110.951 211.764 110.874 211.66C100.292 194.695 99.2317 164.111 99.2076 163.799C99.2089 163.591 99.366 163.41 99.5742 163.386C99.7823 163.361 99.9632 163.544 99.9879 163.752C99.986 164.064 101.073 194.439 111.526 211.222C111.629 211.405 111.602 211.638 111.419 211.767C111.367 211.819 111.288 211.845 111.21 211.844Z" fill="black"/>
<path d="M151.172 211.986C150.964 211.985 150.783 211.801 150.785 211.593C150.785 211.515 150.812 211.438 150.838 211.386C162.703 193.05 163.296 164.194 163.298 163.908C163.299 163.7 163.483 163.519 163.691 163.52C163.899 163.521 164.079 163.704 164.078 163.912C164.076 164.198 163.482 193.289 151.485 211.806C151.407 211.909 151.302 211.987 151.172 211.986Z" fill="black"/>
<path d="M131.909 211.451C131.727 211.45 131.572 211.345 131.547 211.163C127.781 197.853 131.78 164.779 131.834 164.468C131.861 164.26 132.044 164.105 132.278 164.132C132.486 164.16 132.641 164.343 132.613 164.576C132.585 164.914 128.587 197.832 132.328 210.986C132.379 211.194 132.273 211.401 132.065 211.478C131.987 211.451 131.935 211.451 131.909 211.451Z" fill="black"/>
<path d="M109.53 235.728C113.522 235.753 116.778 232.537 116.802 228.545C116.827 224.553 113.611 221.297 109.619 221.272C105.627 221.248 102.371 224.464 102.346 228.456C102.322 232.448 105.538 235.704 109.53 235.728Z" fill="#D9CFFF"/>
<path d="M109.527 236.144C105.315 236.118 101.904 232.691 101.93 228.453C101.956 224.241 105.383 220.856 109.621 220.882C113.833 220.908 117.244 224.335 117.218 228.573C117.166 232.759 113.739 236.144 109.527 236.144ZM109.616 221.662C105.82 221.639 102.733 224.688 102.71 228.458C102.687 232.254 105.736 235.341 109.532 235.364C113.328 235.388 116.415 232.338 116.438 228.543C116.435 224.772 113.386 221.686 109.616 221.662Z" fill="black"/>
<path d="M154.509 236.005C158.501 236.029 161.757 232.813 161.781 228.821C161.806 224.829 158.59 221.573 154.598 221.549C150.606 221.524 147.35 224.74 147.326 228.732C147.301 232.724 150.517 235.98 154.509 236.005Z" fill="#D9CFFF"/>
<path d="M154.506 236.421C150.295 236.395 146.91 232.942 146.936 228.73C146.961 224.518 150.414 221.133 154.626 221.159C158.838 221.185 162.223 224.612 162.197 228.85C162.171 233.036 158.719 236.421 154.506 236.421ZM154.595 221.939C150.8 221.916 147.739 224.965 147.715 228.761C147.692 232.557 150.741 235.618 154.537 235.641C158.307 235.664 161.394 232.615 161.417 228.819C161.44 225.049 158.391 221.962 154.595 221.939Z" fill="black"/>
<path d="M102.507 215.066L162.383 215.434C163.007 215.438 163.524 215.961 163.52 216.585L163.513 217.703C163.51 218.327 162.986 218.844 162.362 218.84L102.486 218.472C101.862 218.468 101.345 217.945 101.349 217.321L101.356 216.203C101.359 215.579 101.883 215.062 102.507 215.066Z" fill="#D9CFFF"/>
<path d="M162.334 219.204L102.483 218.836C101.651 218.831 100.954 218.151 100.959 217.293L100.966 216.175C100.971 215.343 101.651 214.645 102.509 214.651L162.386 215.019C163.218 215.024 163.916 215.704 163.91 216.562L163.904 217.68C163.872 218.538 163.192 219.21 162.334 219.204ZM102.504 215.457C102.088 215.454 101.748 215.79 101.745 216.206L101.739 217.324C101.736 217.74 102.072 218.08 102.488 218.082L162.365 218.451C162.781 218.453 163.121 218.117 163.123 217.701L163.13 216.583C163.133 216.167 162.797 215.827 162.381 215.825L102.504 215.457Z" fill="black"/>
<path d="M118.182 215.553C117.974 215.552 117.793 215.369 117.794 215.161L117.814 211.859C117.816 211.651 117.999 211.47 118.207 211.471C118.415 211.472 118.596 211.656 118.594 211.864L118.574 215.165C118.573 215.373 118.39 215.554 118.182 215.553Z" fill="black"/>
<path d="M142.518 215.702C142.31 215.701 142.129 215.518 142.13 215.31L142.15 212.06C142.151 211.852 142.334 211.671 142.542 211.672C142.75 211.674 142.931 211.857 142.93 212.065L142.91 215.315C142.909 215.523 142.726 215.704 142.518 215.702Z" fill="black"/>
<path d="M154.436 230.856C155.585 230.863 156.522 229.937 156.529 228.789C156.536 227.64 155.611 226.703 154.462 226.696C153.313 226.689 152.376 227.614 152.369 228.763C152.362 229.912 153.288 230.849 154.436 230.856Z" fill="white"/>
<path d="M154.434 231.246C153.082 231.238 151.971 230.113 151.979 228.761C151.988 227.409 153.112 226.298 154.464 226.306C155.816 226.315 156.927 227.439 156.919 228.791C156.911 230.143 155.786 231.254 154.434 231.246ZM154.46 227.086C153.524 227.08 152.765 227.83 152.759 228.766C152.753 229.702 153.503 230.46 154.439 230.466C155.375 230.472 156.133 229.723 156.139 228.787C156.145 227.851 155.396 227.092 154.46 227.086Z" fill="black"/>
<path d="M109.457 230.579C110.606 230.587 111.543 229.661 111.55 228.512C111.557 227.364 110.632 226.427 109.483 226.42C108.334 226.412 107.397 227.338 107.39 228.487C107.383 229.635 108.308 230.572 109.457 230.579Z" fill="white"/>
<path d="M109.455 230.969C108.103 230.961 106.992 229.836 107 228.484C107.009 227.132 108.133 226.021 109.485 226.029C110.837 226.038 111.948 227.163 111.94 228.514C111.932 229.866 110.807 230.978 109.455 230.969ZM109.481 226.809C108.545 226.804 107.786 227.553 107.78 228.489C107.774 229.425 108.524 230.184 109.46 230.189C110.396 230.195 111.154 229.446 111.16 228.51C111.166 227.574 110.417 226.815 109.481 226.809Z" fill="black"/>
<path d="M107.771 208.859C107.641 208.858 107.511 208.779 107.434 208.675C97.7095 191.819 97.4898 168.339 97.4913 168.105C97.4925 167.897 97.6756 167.716 97.8836 167.717C98.0916 167.719 98.2725 167.902 98.2712 168.11C98.2698 168.344 98.4907 191.615 108.112 208.289C108.215 208.472 108.162 208.705 107.979 208.834C107.901 208.834 107.849 208.859 107.771 208.859Z" fill="white"/>
<path d="M154.57 209.147C154.362 209.145 154.181 208.962 154.182 208.754C154.183 208.676 154.209 208.598 154.262 208.547C165.86 191.25 165.108 169.795 165.109 169.587C165.111 169.379 165.268 169.198 165.476 169.173C165.684 169.148 165.865 169.331 165.89 169.54C165.889 169.748 166.665 191.463 154.909 208.967C154.831 209.07 154.7 209.147 154.57 209.147Z" fill="white"/>
<path d="M133.251 209.015C133.069 209.014 132.913 208.883 132.863 208.701C130.102 196.802 133.072 170.352 133.1 170.092C133.127 169.884 133.31 169.729 133.544 169.756C133.752 169.784 133.907 169.967 133.879 170.201C133.852 170.46 130.908 196.781 133.643 208.55C133.694 208.758 133.563 208.965 133.355 209.016C133.329 209.016 133.277 209.016 133.251 209.015Z" fill="white"/>
</svg>
