<svg width="36" height="36" viewBox="0 0 36 36" fill="none" xmlns="http://www.w3.org/2000/svg">
<path opacity="0.3" d="M16.5 9.75C16.5 13.5 13.5 16.5 9.75 16.5C6 16.5 3 13.5 3 9.75C3 6 6 3 9.75 3C13.5 3 16.5 6 16.5 9.75ZM26.25 3C22.5 3 19.5 6 19.5 9.75C19.5 13.5 22.5 16.5 26.25 16.5C30 16.5 33 13.5 33 9.75C33 6 30 3 26.25 3ZM9.75 19.5C6 19.5 3 22.5 3 26.25C3 30 6 33 9.75 33C13.5 33 16.5 30 16.5 26.25C16.5 22.5 13.5 19.5 9.75 19.5ZM26.25 19.5C22.5 19.5 19.5 22.5 19.5 26.25C19.5 30 22.5 33 26.25 33C30 33 33 30 33 26.25C33 22.5 30 19.5 26.25 19.5Z" fill="white"/>
<path d="M26.2501 24.0001C26.2501 24.0001 26.1001 24.0001 26.2501 24.0001L25.0501 22.95C24.1501 22.05 23.5501 20.85 23.4001 19.65C23.2501 18.6 23.2501 17.4 23.4001 16.2C23.5501 15 24.1501 13.8 25.0501 12.9L26.1001 11.8501H26.2501C27.4501 11.8501 28.5001 10.8001 28.5001 9.6001C28.5001 8.4001 27.4501 7.3501 26.2501 7.3501C25.0501 7.3501 24.0001 8.4001 24.0001 9.6001V9.75006L22.9501 10.8001C22.0501 11.7001 20.8501 12.3 19.6501 12.45C18.6001 12.6 17.4001 12.6 16.2001 12.45C15.0001 12.3 13.8001 11.7001 12.9001 10.8001L11.8501 9.75006V9.6001C11.8501 8.4001 10.8001 7.3501 9.6001 7.3501C8.4001 7.3501 7.3501 8.4001 7.3501 9.6001C7.3501 10.8001 8.4001 11.8501 9.6001 11.8501H9.75011L10.8001 12.9C11.7001 13.8 12.3001 15 12.4501 16.2C12.6001 17.25 12.6001 18.45 12.4501 19.65C12.3001 20.85 11.7001 22.05 10.8001 22.95L9.75011 24.0001H9.6001C8.4001 24.0001 7.3501 25.0501 7.3501 26.2501C7.3501 27.4501 8.4001 28.5001 9.6001 28.5001C10.8001 28.5001 11.8501 27.4501 11.8501 26.2501V26.1001L12.9001 25.0501C13.8001 24.1501 15.0001 23.55 16.2001 23.4C17.2501 23.25 18.4501 23.25 19.6501 23.4C20.8501 23.55 22.0501 24.1501 22.9501 25.0501L24.0001 26.1001V26.2501C24.0001 27.4501 25.0501 28.5001 26.2501 28.5001C27.4501 28.5001 28.5001 27.4501 28.5001 26.2501C28.5001 25.0501 27.4501 24.0001 26.2501 24.0001Z" fill="white"/>
</svg>
