<svg width="322" height="108" viewBox="0 0 322 108" fill="none" xmlns="http://www.w3.org/2000/svg">
<path d="M44.1415 47.5H0V108H320V27.5L308.783 38.384C299.453 47.4368 286.964 52.5 273.964 52.5H248.548C235.548 52.5 223.059 47.4368 213.729 38.384L190.265 15.616C180.935 6.56318 168.446 1.5 155.446 1.5H132.09C119.09 1.5 106.602 6.56318 97.2717 15.616L78.9602 33.384C69.6303 42.4368 57.1415 47.5 44.1415 47.5Z" fill="url(#paint0_linear_634_1744)"/>
<path d="M0 47.5H44.1415C57.1415 47.5 69.6303 42.4368 78.9602 33.384L97.2717 15.616C106.602 6.56318 119.09 1.5 132.09 1.5H155.446C168.446 1.5 180.935 6.56318 190.265 15.616L213.729 38.384C223.059 47.4368 235.548 52.5 248.548 52.5H273.964C286.964 52.5 299.453 47.4368 308.783 38.384L320 27.5" stroke="#D9623D" stroke-width="3"/>
<defs>
<linearGradient id="paint0_linear_634_1744" x1="160" y1="1.5" x2="160" y2="108" gradientUnits="userSpaceOnUse">
<stop stop-color="#EFE9E1"/>
<stop offset="1" stop-color="white" stop-opacity="0"/>
</linearGradient>
</defs>
</svg>
