<svg width="16" height="16" viewBox="0 0 16 16" fill="none" xmlns="http://www.w3.org/2000/svg">
<path d="M14.1378 2.98661C14.7152 3.56402 14.7247 4.49722 14.1591 5.08622L8.74224 10.7273C8.46695 11.014 8.08913 11.1797 7.69176 11.188L5.41644 11.2358L5.46449 8.94521C5.47264 8.55688 5.63111 8.18685 5.90655 7.91298L11.4436 2.40759C12.0298 1.82467 12.9773 1.82602 13.5619 2.41063L14.1378 2.98661Z" fill="#7E8299"/>
<path opacity="0.3" d="M8.59967 1.3335C8.96786 1.3335 9.26634 1.63197 9.26634 2.00016C9.26634 2.36835 8.96786 2.66683 8.59967 2.66683H3.99967C3.26329 2.66683 2.66634 3.26378 2.66634 4.00016V12.0002C2.66634 12.7365 3.26329 13.3335 3.99967 13.3335H11.9997C12.7361 13.3335 13.333 12.7365 13.333 12.0002V8.66683C13.333 8.29864 13.6315 8.00016 13.9997 8.00016C14.3679 8.00016 14.6663 8.29864 14.6663 8.66683V12.0002C14.6663 13.4729 13.4724 14.6668 11.9997 14.6668H3.99967C2.52692 14.6668 1.33301 13.4729 1.33301 12.0002V4.00016C1.33301 2.5274 2.52692 1.3335 3.99967 1.3335H8.59967Z" fill="#7E8299"/>
</svg>
